<?xml version="1.0" standalone="no"?>
<!DOCTYPE svg PUBLIC "-//W3C//DTD SVG 1.1//EN" "http://www.w3.org/Graphics/SVG/1.1/DTD/svg11.dtd" >
<svg>
<metadata>
Created by FontForge 20090622 at Wed Apr  4 12:40:24 2018
 By deploy user
</metadata>
<defs>
<font id="KozGoPro-Medium-AlphaNum" horiz-adv-x="1000" vert-adv-y="1000" >
  <font-face 
    font-family="KozGoPro-Medium-AlphaNum"
    font-weight="500"
    font-stretch="normal"
    units-per-em="1000"
    panose-1="2 0 6 3 0 0 0 0 0 0"
    ascent="800"
    descent="-200"
    bbox="12 -89 974 850"
    underline-thickness="50"
    underline-position="-100"
  />
<missing-glyph horiz-adv-x="364" 
d="M33 0v666h265v-666h-265zM66 33h199v600h-199v-600z" />
    <glyph glyph-name=".notdef" horiz-adv-x="364" 
d="M33 0v666h265v-666h-265zM66 33h199v600h-199v-600z" />
    <glyph glyph-name=".null" horiz-adv-x="0" vert-adv-y="0" 
 />
    <glyph glyph-name="nonmarkingreturn" horiz-adv-x="333" 
 />
    <glyph glyph-name="Japan1.7555" 
d="M968 380q0 -194 -137.5 -331t-330.5 -137q-95 0 -181.5 37t-149.5 100t-100 149.5t-37 181.5t37 181.5t100 149.5t149.5 100t181.5 37t181.5 -37t149.5 -100t100 -149.5t37 -181.5zM500 815q-181 0 -308 -128t-127 -307q0 -180 127.5 -307.5t307.5 -127.5t307.5 127.5
t127.5 307.5t-127.5 307.5t-307.5 127.5zM467 122v431h-1l-92 -46l-16 73l119 58h84v-516h-94z" />
    <glyph glyph-name="Japan1.7556" 
d="M968 380q0 -194 -137.5 -331t-330.5 -137q-95 0 -181.5 37t-149.5 100t-100 149.5t-37 181.5t37 181.5t100 149.5t149.5 100t181.5 37t181.5 -37t149.5 -100t100 -149.5t37 -181.5zM500 815q-181 0 -308 -128t-127 -307q0 -180 127.5 -307.5t307.5 -127.5t307.5 127.5
t127.5 307.5t-127.5 307.5t-307.5 127.5zM680 125h-360v60l62 54q113 101 151.5 147t38.5 90q0 37 -24 63t-75 26q-61 0 -116 -45l-26 69q68 54 161 54q87 0 131.5 -46.5t44.5 -108.5q0 -34 -10.5 -64t-37 -61.5t-53.5 -56.5t-76 -66l-43 -33v-2h232v-80z" />
    <glyph glyph-name="Japan1.7557" 
d="M968 380q0 -194 -137.5 -331t-330.5 -137q-95 0 -181.5 37t-149.5 100t-100 149.5t-37 181.5t37 181.5t100 149.5t149.5 100t181.5 37t181.5 -37t149.5 -100t100 -149.5t37 -181.5zM500 815q-181 0 -308 -128t-127 -307q0 -180 127.5 -307.5t307.5 -127.5t307.5 127.5
t127.5 307.5t-127.5 307.5t-307.5 127.5zM323 153l21 74q52 -33 121 -33q58 0 85 25t27 54q0 46 -38 67.5t-90 21.5h-45v70h45q44 0 77 17.5t33 52.5q0 26 -22 45t-66 19q-62 0 -109 -33l-21 70q60 40 150 40q81 0 123 -36.5t42 -88.5q0 -84 -96 -118v-1q51 -11 83.5 -45.5
t32.5 -81.5q0 -65 -54.5 -110t-151.5 -45q-90 0 -147 36z" />
    <glyph glyph-name="Japan1.7558" 
d="M968 380q0 -194 -137.5 -331t-330.5 -137q-95 0 -181.5 37t-149.5 100t-100 149.5t-37 181.5t37 181.5t100 149.5t149.5 100t181.5 37t181.5 -37t149.5 -100t100 -149.5t37 -181.5zM500 815q-181 0 -308 -128t-127 -307q0 -180 127.5 -307.5t307.5 -127.5t307.5 127.5
t127.5 307.5t-127.5 307.5t-307.5 127.5zM618 122h-90v128h-249v62l232 326h107v-316h69v-72h-69v-128zM361 322h167v157q0 33 2 81h-2l-44 -79l-123 -157v-2z" />
    <glyph glyph-name="Japan1.7559" 
d="M968 380q0 -194 -137.5 -331t-330.5 -137q-95 0 -181.5 37t-149.5 100t-100 149.5t-37 181.5t37 181.5t100 149.5t149.5 100t181.5 37t181.5 -37t149.5 -100t100 -149.5t37 -181.5zM500 815q-181 0 -308 -128t-127 -307q0 -180 127.5 -307.5t307.5 -127.5t307.5 127.5
t127.5 307.5t-127.5 307.5t-307.5 127.5zM659 635v-80h-203l-14 -102q18 3 42 3q83 0 138 -42.5t55 -120.5q0 -74 -58.5 -125t-151.5 -51q-83 0 -141 32l20 72q54 -28 118 -28q48 0 81 25.5t33 65.5q0 101 -147 101q-26 0 -75 -7l31 257h272z" />
    <glyph glyph-name="Japan1.7560" 
d="M968 380q0 -194 -137.5 -331t-330.5 -137q-95 0 -181.5 37t-149.5 100t-100 149.5t-37 181.5t37 181.5t100 149.5t149.5 100t181.5 37t181.5 -37t149.5 -100t100 -149.5t37 -181.5zM500 815q-181 0 -308 -128t-127 -307q0 -180 127.5 -307.5t307.5 -127.5t307.5 127.5
t127.5 307.5t-127.5 307.5t-307.5 127.5zM636 643v-77q-23 1 -57 -3q-69 -4 -114 -43t-59 -106l3 1q43 49 122 49q72 0 116 -46t44 -116q0 -75 -53.5 -130t-137.5 -55q-88 0 -140 59.5t-52 161.5q0 152 100 239q75 66 228 66zM504 183q44 0 69.5 35t25.5 82q0 40 -25.5 70.5
t-70.5 30.5q-66 0 -98 -53q-6 -14 -6 -34q0 -14 3.5 -31t12.5 -42t32.5 -41.5t56.5 -16.5z" />
    <glyph glyph-name="Japan1.7561" 
d="M968 380q0 -194 -137.5 -331t-330.5 -137q-95 0 -181.5 37t-149.5 100t-100 149.5t-37 181.5t37 181.5t100 149.5t149.5 100t181.5 37t181.5 -37t149.5 -100t100 -149.5t37 -181.5zM500 815q-181 0 -308 -128t-127 -307q0 -180 127.5 -307.5t307.5 -127.5t307.5 127.5
t127.5 307.5t-127.5 307.5t-307.5 127.5zM328 635h354v-64l-229 -449h-100l229 431v2h-254v80z" />
    <glyph glyph-name="Japan1.7562" 
d="M408 389v2q-81 36 -81 112q0 62 50.5 101t127.5 39q79 0 123 -37t44 -92q0 -78 -84 -114v-3q49 -15 76.5 -48t27.5 -78q0 -71 -55 -112.5t-139 -41.5q-85 0 -137.5 40t-52.5 103q0 89 100 129zM503 582q-44 0 -66.5 -22.5t-22.5 -52.5q0 -64 99 -86q32 8 53.5 30t21.5 53
q0 30 -21 54t-64 24zM400 270v-2q0 -35 27.5 -62.5t73.5 -27.5q48 0 74 25.5t26 58.5q0 80 -114 101q-41 -10 -64 -34t-23 -59zM968 380q0 -194 -137.5 -331t-330.5 -137q-95 0 -181.5 37t-149.5 100t-100 149.5t-37 181.5t37 181.5t100 149.5t149.5 100t181.5 37t181.5 -37
t149.5 -100t100 -149.5t37 -181.5zM500 815q-181 0 -308 -128t-127 -307q0 -180 127.5 -307.5t307.5 -127.5t307.5 127.5t127.5 307.5t-127.5 307.5t-307.5 127.5z" />
    <glyph glyph-name="Japan1.7563" 
d="M968 380q0 -194 -137.5 -331t-330.5 -137q-95 0 -181.5 37t-149.5 100t-100 149.5t-37 181.5t37 181.5t100 149.5t149.5 100t181.5 37t181.5 -37t149.5 -100t100 -149.5t37 -181.5zM500 815q-181 0 -308 -128t-127 -307q0 -180 127.5 -307.5t307.5 -127.5t307.5 127.5
t127.5 307.5t-127.5 307.5t-307.5 127.5zM363 117v77q23 -1 58 3q68 4 114 42.5t58 106.5l-3 -1q-43 -49 -122 -49q-72 0 -116 46t-44 116q0 75 54 130t138 55q88 0 139.5 -59.5t51.5 -161.5q0 -151 -99 -239q-78 -66 -229 -66zM495 577q-44 0 -69 -35t-25 -82
q0 -40 25.5 -70.5t69.5 -30.5q33 0 68.5 20.5t35.5 66.5q0 27 -7 54t-32.5 52t-65.5 25z" />
    <glyph glyph-name="Japan1.7564" 
d="M968 379q0 -194 -137.5 -331t-330.5 -137q-95 0 -181.5 37t-149.5 100t-100 149.5t-37 181.5t37 181.5t100 149.5t149.5 100t181.5 37t181.5 -37t149.5 -100t100 -149.5t37 -181.5zM500 814q-181 0 -308 -128t-127 -307q0 -180 127.5 -307.5t307.5 -127.5t307.5 127.5
t127.5 307.5t-127.5 307.5t-307.5 127.5zM635 134q-72 0 -109.5 68t-38.5 174q0 111 41 179.5t112 68.5q76 0 110.5 -68t34.5 -172q0 -124 -41 -187t-109 -63zM637 202q32 0 50 39t18 139q0 176 -67 176q-71 0 -71 -188q0 -166 70 -166zM300 137v408h-1l-80 -42l-14 63
l102 55h73v-484h-80z" />
    <glyph glyph-name="Japan1.7565" 
d="M968 380q0 -194 -137.5 -331t-330.5 -137q-95 0 -181.5 37t-149.5 100t-100 149.5t-37 181.5t37 181.5t100 149.5t149.5 100t181.5 37t181.5 -37t149.5 -100t100 -149.5t37 -181.5zM500 815q-181 0 -308 -128t-127 -307q0 -180 127.5 -307.5t307.5 -127.5t307.5 127.5
t127.5 307.5t-127.5 307.5t-307.5 127.5zM305 138v408h-2l-79 -42l-15 63l103 55h74v-484h-81zM642 138v408h-2l-80 -42l-14 63l103 55h73v-484h-80z" />
    <glyph glyph-name="Japan1.7566" 
d="M968 380q0 -194 -137.5 -331t-330.5 -137q-95 0 -181.5 37t-149.5 100t-100 149.5t-37 181.5t37 181.5t100 149.5t149.5 100t181.5 37t181.5 -37t149.5 -100t100 -149.5t37 -181.5zM500 815q-181 0 -308 -128t-127 -307q0 -180 127.5 -307.5t307.5 -127.5t307.5 127.5
t127.5 307.5t-127.5 307.5t-307.5 127.5zM300 138v408h-1l-80 -42l-14 63l103 55h73v-484h-81zM768 141h-279v55l48 55q81 90 111.5 136t30.5 92q0 34 -19 56t-58 22q-42 0 -85 -31l-16 63q49 36 116 36q75 0 109 -41t34 -96q0 -63 -35 -115.5t-110 -128.5l-31 -30v-2h184
v-71z" />
    <glyph glyph-name="Japan1.7567" 
d="M968 380q0 -194 -137.5 -331t-330.5 -137q-95 0 -181.5 37t-149.5 100t-100 149.5t-37 181.5t37 181.5t100 149.5t149.5 100t181.5 37t181.5 -37t149.5 -100t100 -149.5t37 -181.5zM500 815q-181 0 -308 -128t-127 -307q0 -180 127.5 -307.5t307.5 -127.5t307.5 127.5
t127.5 307.5t-127.5 307.5t-307.5 127.5zM300 138v408h-1l-80 -42l-14 63l103 55h73v-484h-81zM494 160l14 66q37 -24 87 -24q47 0 70 23.5t23 53.5q0 24 -10.5 41.5t-23 26t-34.5 13t-34 5t-32 0.5v60q119 0 119 71q0 28 -18 45t-53 17q-42 0 -77 -23l-13 60q41 30 108 30
q66 0 100 -33.5t34 -81.5q0 -36 -21 -65t-58 -43v-1q43 -12 69 -44.5t26 -77.5q0 -58 -45 -101t-125 -43q-66 0 -106 25z" />
    <glyph glyph-name="Japan1.7568" 
d="M968 380q0 -194 -137.5 -331t-330.5 -137q-95 0 -181.5 37t-149.5 100t-100 149.5t-37 181.5t37 181.5t100 149.5t149.5 100t181.5 37t181.5 -37t149.5 -100t100 -149.5t37 -181.5zM500 815q-181 0 -308 -128t-127 -307q0 -180 127.5 -307.5t307.5 -127.5t307.5 127.5
t127.5 307.5t-127.5 307.5t-307.5 127.5zM729 137h-72v120h-194v55l191 308h75v-298h57v-65h-57v-120zM531 322h126v139q0 37 3 70l-2 1q-15 -32 -34 -65l-93 -144v-1zM300 138v408h-1l-80 -42l-14 63l103 55h73v-484h-81z" />
    <glyph glyph-name="Japan1.7569" 
d="M968 380q0 -194 -137.5 -331t-330.5 -137q-95 0 -181.5 37t-149.5 100t-100 149.5t-37 181.5t37 181.5t100 149.5t149.5 100t181.5 37t181.5 -37t149.5 -100t100 -149.5t37 -181.5zM500 815q-181 0 -308 -128t-127 -307q0 -180 127.5 -307.5t307.5 -127.5t307.5 127.5
t127.5 307.5t-127.5 307.5t-307.5 127.5zM300 138v408h-1l-80 -42l-14 63l102 55h73v-484h-80zM753 619v-71h-147l-14 -101q3 0 11.5 0.5t13.5 0.5q53 0 99 -37.5t46 -109.5q0 -71 -47 -118.5t-123 -47.5q-65 0 -100 24l14 63q38 -20 82 -20q42 0 67.5 25t25.5 65
q0 47 -31 71.5t-85 24.5q-29 0 -47 -3l27 234h208z" />
    <glyph glyph-name="Japan1.7570" 
d="M968 380q0 -194 -137.5 -331t-330.5 -137q-95 0 -181.5 37t-149.5 100t-100 149.5t-37 181.5t37 181.5t100 149.5t149.5 100t181.5 37t181.5 -37t149.5 -100t100 -149.5t37 -181.5zM500 815q-181 0 -308 -128t-127 -307q0 -180 127.5 -307.5t307.5 -127.5t307.5 127.5
t127.5 307.5t-127.5 307.5t-307.5 127.5zM747 626v-69q-17 1 -47 -4q-51 -9 -84.5 -48.5t-43.5 -98.5l3 1q35 44 92 44q55 0 88 -41t33 -105q0 -68 -40 -119t-109 -51q-67 0 -108.5 52.5t-41.5 145.5q0 144 85 227q27 27 62 42t56.5 18.5t54.5 5.5zM641 191q27 0 43.5 20.5
t21.5 44t5 50.5q0 37 -18.5 63t-50.5 26q-46 0 -67 -39q-6 -12 -6 -40q0 -55 18.5 -90t53.5 -35zM300 138v408h-1l-80 -42l-14 63l102 55h73v-484h-80z" />
    <glyph glyph-name="Japan1.7571" 
d="M968 380q0 -194 -137.5 -331t-330.5 -137q-95 0 -181.5 37t-149.5 100t-100 149.5t-37 181.5t37 181.5t100 149.5t149.5 100t181.5 37t181.5 -37t149.5 -100t100 -149.5t37 -181.5zM500 815q-181 0 -308 -128t-127 -307q0 -180 127.5 -307.5t307.5 -127.5t307.5 127.5
t127.5 307.5t-127.5 307.5t-307.5 127.5zM300 138v408h-1l-80 -42l-14 63l102 55h73v-484h-80zM503 619h276v-55l-179 -426h-78l175 408v2h-194v71z" />
    <glyph glyph-name="Japan1.7572" 
d="M568 392v2q-67 36 -67 105q0 57 40 91.5t101 34.5q57 0 94 -32.5t37 -84.5q0 -70 -72 -108v-2q85 -36 85 -124q0 -64 -44 -101.5t-107 -37.5q-65 0 -107 35t-42 96q0 84 82 126zM641 574q-32 0 -49 -21t-17 -50q0 -59 73 -84q24 8 39.5 31t15.5 51q0 30 -15 51.5
t-47 21.5zM637 186q36 0 55.5 24.5t19.5 59.5q0 74 -86 101q-65 -25 -65 -98q0 -36 20.5 -61.5t55.5 -25.5zM968 380q0 -194 -137.5 -331t-330.5 -137q-95 0 -181.5 37t-149.5 100t-100 149.5t-37 181.5t37 181.5t100 149.5t149.5 100t181.5 37t181.5 -37t149.5 -100
t100 -149.5t37 -181.5zM500 815q-181 0 -308 -128t-127 -307q0 -180 127.5 -307.5t307.5 -127.5t307.5 127.5t127.5 307.5t-127.5 307.5t-307.5 127.5zM300 138v408h-1l-80 -42l-14 63l102 55h73v-484h-80z" />
    <glyph glyph-name="Japan1.7573" 
d="M968 380q0 -194 -137.5 -331t-330.5 -137q-95 0 -181.5 37t-149.5 100t-100 149.5t-37 181.5t37 181.5t100 149.5t149.5 100t181.5 37t181.5 -37t149.5 -100t100 -149.5t37 -181.5zM500 815q-181 0 -308 -128t-127 -307q0 -180 127.5 -307.5t307.5 -127.5t307.5 127.5
t127.5 307.5t-127.5 307.5t-307.5 127.5zM531 134v69q17 -1 47 4q54 9 86 49t42 98l-3 -1q-35 -44 -92 -44q-55 0 -88 41t-33 105q0 68 40 119t109 51q67 0 108.5 -52.5t41.5 -145.5q0 -144 -85 -227q-27 -27 -61.5 -42t-56 -18.5t-55.5 -5.5zM637 569q-37 0 -53.5 -34.5
t-16.5 -80.5q1 -37 19 -63t50 -26q46 0 67 39q6 12 6 40q0 55 -18.5 90t-53.5 35zM300 138v408h-1l-80 -42l-14 63l102 55h73v-484h-80z" />
    <glyph glyph-name="Japan1.7574" 
d="M968 380q0 -194 -137.5 -331t-330.5 -137q-95 0 -181.5 37t-149.5 100t-100 149.5t-37 181.5t37 181.5t100 149.5t149.5 100t181.5 37t181.5 -37t149.5 -100t100 -149.5t37 -181.5zM500 815q-181 0 -308 -128t-127 -307q0 -180 127.5 -307.5t307.5 -127.5t307.5 127.5
t127.5 307.5t-127.5 307.5t-307.5 127.5zM672 135q-41 0 -70.5 23.5t-43.5 62.5t-20.5 77.5t-6.5 79.5q0 112 38.5 179.5t107.5 67.5q72 0 104.5 -68t32.5 -174q0 -123 -39.5 -185.5t-102.5 -62.5zM611 380v-8q0 -169 62 -169q61 0 61 177t-60 177q-63 0 -63 -177zM468 141
h-253v57l45 59q45 58 65 86.5t38 68t18 73.5q0 32 -17 52t-51 20t-73 -24l-13 63q44 29 100 29q73 0 103.5 -40t30.5 -94q0 -45 -20.5 -91t-42 -73.5t-65.5 -78.5l-31 -34v-2h166v-71z" />
    <glyph glyph-name="Japan1.7575" 
d="M441 772h117v-777h-117v777z" />
    <glyph glyph-name="Japan1.7576" 
d="M289 772h114v-777h-114v777zM597 772h114v-777h-114v777z" />
    <glyph glyph-name="Japan1.7577" 
d="M197 772h112v-777h-112v777zM444 772h112v-777h-112v777zM691 772h111v-777h-111v777z" />
    <glyph glyph-name="Japan1.7578" 
d="M132 772h112v-777h-112v777zM668 -5h-127l-230 777h123l104 -386q39 -145 69 -277h3q38 150 75 276l112 387h122z" />
    <glyph glyph-name="Japan1.7579" 
d="M558 -5h-138l-261 777h129l121 -392q49 -158 83 -282h2q36 126 89 281l131 393h127z" />
    <glyph glyph-name="Japan1.7580" 
d="M438 -5h-127l-230 777h124l104 -386l69 -277h2q39 154 76 276l112 387h121zM757 772h111v-777h-111v777z" />
    <glyph glyph-name="Japan1.7581" 
d="M375 -5h-119l-218 777h113l100 -380q38 -144 66 -270h3q30 151 60 269l90 381h111zM610 772h106v-777h-106v777zM817 772h106v-777h-106v777z" />
    <glyph glyph-name="Japan1.7582" 
d="M326 -5h-107l-190 777h105l85 -380q32 -142 55 -268h3q23 143 50 267l77 381h102zM518 772h88v-777h-88v777zM681 772h88v-777h-88v777zM844 772h88v-777h-88v777z" />
    <glyph glyph-name="Japan1.7583" 
d="M120 772h112v-777h-112v777zM910 -5h-129l-92 172q-72 132 -85 160h-2q-35 -75 -78 -159l-85 -173h-126l227 395l-212 382h127l94 -184q39 -76 63 -130h2q48 103 61 129l92 185h126l-217 -378z" />
    <glyph glyph-name="Japan1.7584" 
d="M836 -5h-138l-110 172q-51 78 -98 161h-2q-27 -56 -90 -160l-101 -173h-135l257 397l-241 380h137l110 -186q65 -115 74 -132h2q30 60 71 131l108 187h137l-247 -378z" />
    <glyph glyph-name="Japan1.8061" 
d="M455 -14q-140 0 -211.5 109t-71.5 285q0 178 77.5 283t206.5 105q135 0 208.5 -102t73.5 -284q0 -184 -73.5 -290t-209.5 -106zM453 80q44 0 76.5 25t49.5 69t25 94.5t8 110.5q0 139 -39.5 217t-117.5 78q-64 0 -110 -71.5t-46 -232.5q0 -134 41.5 -212t112.5 -78z
M898 -9q-30 0 -49.5 21t-19.5 55q0 33 19.5 54.5t50.5 21.5t50 -21t19 -55q0 -33 -18 -54.5t-52 -21.5z" />
    <glyph glyph-name="Japan1.8062" 
d="M438 -6v645h-3l-157 -81l-33 95l212 107h102v-766h-121zM898 -9q-30 0 -49.5 21t-19.5 55q0 33 19.5 54.5t50.5 21.5t50 -21t19 -55q0 -33 -18 -54.5t-52 -21.5z" />
    <glyph glyph-name="Japan1.8063" 
d="M269 576l-55 88q50 51 109.5 77.5t143.5 26.5q111 0 176 -62.5t65 -160.5q0 -52 -17.5 -99.5t-57 -96.5t-79 -87t-106.5 -97l-75 -61v-2h354v-102h-541v75l93 80l110 98t81 77.5t64 74t33 62.5t14 67q0 56 -37 92t-98 36q-93 0 -177 -86zM898 -9q-30 0 -49.5 21t-19.5 55
q0 33 19.5 54.5t50.5 21.5t50 -21t19 -55q0 -33 -18 -54.5t-52 -21.5z" />
    <glyph glyph-name="Japan1.8064" 
d="M246 604l-35 90q38 31 102.5 52.5t135.5 21.5q113 0 176 -53.5t63 -131.5q0 -141 -154 -185v-2q79 -10 130.5 -58.5t51.5 -128.5q0 -93 -77.5 -158t-218.5 -65q-147 0 -234 70l35 93q32 -25 84 -44t110 -19q82 0 125.5 38.5t43.5 90.5q0 68 -56 99t-138 31h-75v92h75
q67 0 118.5 33t51.5 91q0 46 -35 76.5t-100 30.5q-50 0 -100 -19.5t-79 -44.5zM898 -9q-30 0 -49.5 21t-19.5 55q0 33 19.5 54.5t50.5 21.5t50 -21t19 -55q0 -33 -18 -54.5t-52 -21.5z" />
    <glyph glyph-name="Japan1.8065" 
d="M649 -6h-124v177h-373v81l336 508h161v-495h113v-94h-113v-177zM281 265h244v258q2 90 4 141h-4q-44 -84 -78 -139l-165 -257zM898 -9q-30 0 -49.5 21t-19.5 55q0 33 19.5 54.5t50.5 21.5t50 -21t19 -55q0 -33 -18 -54.5t-52 -21.5z" />
    <glyph glyph-name="Japan1.8066" 
d="M237 381l49 373h405v-102h-317l-24 -170q38 6 70 6q144 0 220.5 -66t76.5 -178q0 -110 -85.5 -184t-228.5 -74q-128 0 -210 51l30 100q31 -20 80 -36t99 -16q75 0 129.5 40t54.5 113t-55 115t-173 42q-63 0 -121 -14zM898 -9q-30 0 -49.5 21t-19.5 55q0 33 19.5 54.5
t50.5 21.5t50 -21t19 -55q0 -33 -18 -54.5t-52 -21.5z" />
    <glyph glyph-name="Japan1.8067" 
d="M308 420h2q68 78 184 78q103 0 173 -67t70 -180t-76.5 -189t-194.5 -76q-138 0 -214.5 92t-76.5 234q0 86 25 162.5t74 139.5t128.5 103t181.5 47q39 3 63 2l11 -97q-20 2 -34 2q-69 0 -133.5 -26t-116.5 -85t-66 -140zM454 407q-66 0 -111 -44t-45 -83q2 -90 45.5 -145
t121.5 -55q64 0 103.5 44.5t39.5 116.5q0 77 -41 121.5t-113 44.5zM898 -9q-30 0 -49.5 21t-19.5 55q0 33 19.5 54.5t50.5 21.5t50 -21t19 -55q0 -33 -18 -54.5t-52 -21.5z" />
    <glyph glyph-name="Japan1.8068" 
d="M191 754h530v-83l-336 -671h-138l336 649v3h-392v102zM898 -9q-30 0 -49.5 21t-19.5 55q0 33 19.5 54.5t50.5 21.5t50 -21t19 -55q0 -33 -18 -54.5t-52 -21.5z" />
    <glyph glyph-name="Japan1.8069" 
d="M323 389v3q-124 52 -124 166q0 92 74 151t188 59q121 0 184 -57t63 -135q0 -53 -30 -99.5t-95 -73.5v-2q73 -23 115 -71.5t42 -116.5q0 -102 -81 -164.5t-207 -62.5q-129 0 -205 60.5t-76 148.5q0 136 152 194zM457 679q-66 0 -101.5 -33t-35.5 -79q0 -95 148 -127
q53 12 87.5 44.5t34.5 79.5q0 45 -33 80t-100 35zM453 76q72 0 113.5 36t41.5 86q0 116 -167 149q-67 -13 -104 -50t-37 -88q-1 -53 41 -93t112 -40zM898 -9q-30 0 -49.5 21t-19.5 55q0 33 19.5 54.5t50.5 21.5t50 -21t19 -55q0 -33 -18 -54.5t-52 -21.5z" />
    <glyph glyph-name="Japan1.8070" 
d="M604 334h-3q-68 -78 -184 -78q-103 0 -173 67t-70 180t76 189t195 76q140 0 215.5 -92.5t75.5 -233.5q0 -184 -106.5 -311t-302.5 -141q-38 -3 -63 -2l-10 97q20 -2 34 -2q69 0 134 26.5t116.5 85t65.5 139.5zM447 674q-64 0 -104 -44.5t-40 -116.5q0 -77 41.5 -121.5
t112.5 -44.5q66 0 111 43.5t45 83.5q-2 90 -45.5 145t-120.5 55zM898 -9q-30 0 -49.5 21t-19.5 55q0 33 19.5 54.5t50.5 21.5t50 -21t19 -55q0 -33 -18 -54.5t-52 -21.5z" />
    <glyph glyph-name="Japan1.8071" 
d="M202 848v-5q-108 -143 -108 -463t108 -463v-5h-63q-107 141 -107 468t107 468h63zM798 -88v5q108 143 108 463t-108 463v5h63q107 -141 107 -468t-107 -468h-63zM478 34v590h-2l-121 -64l-19 80l152 81h90v-687h-100z" />
    <glyph glyph-name="Japan1.8072" 
d="M202 848v-5q-108 -143 -108 -463t108 -463v-5h-63q-107 141 -107 468t107 468h63zM798 -88v5q108 143 108 463t-108 463v5h63q107 -141 107 -468t-107 -468h-63zM707 39h-415v66l72 76q122 125 173 198t51 145q0 54 -29 88t-90 34q-64 0 -131 -51l-28 76q74 61 179 61
q102 0 153 -57.5t51 -140.5q0 -87 -53 -168t-157 -185l-52 -51v-2h276v-89z" />
    <glyph glyph-name="Japan1.8073" 
d="M202 848v-5q-108 -143 -108 -463t108 -463v-5h-63q-107 141 -107 468t107 468h63zM798 -88v5q108 143 108 463t-108 463v5h63q107 -141 107 -468t-107 -468h-63zM295 69l24 82q63 -39 137 -39q72 0 106.5 37t34.5 87q0 63 -47 95.5t-116 32.5h-43v78h41q55 0 98 27.5
t43 80.5q0 43 -27 70.5t-81 27.5q-65 0 -122 -41l-24 77q28 20 74 34t95 14q93 0 142 -47.5t49 -116.5q0 -53 -30.5 -95t-86.5 -64v-2q62 -13 102 -59.5t40 -115.5q0 -85 -65 -144.5t-179 -59.5q-99 0 -165 41z" />
    <glyph glyph-name="Japan1.8074" 
d="M639 34h-96v185h-290v69l276 438h110v-425h94v-82h-94v-185zM363 301h181v198q0 35 4 105h-2q-26 -53 -53 -99l-130 -202v-2zM202 848v-5q-108 -143 -108 -463t108 -463v-5h-63q-107 141 -107 468t107 468h63zM798 -88v5q108 143 108 463t-108 463v5h63
q107 -141 107 -468t-107 -468h-63z" />
    <glyph glyph-name="Japan1.8075" 
d="M202 848v-5q-108 -143 -108 -463t108 -463v-5h-63q-107 141 -107 468t107 468h63zM798 -88v5q108 143 108 463t-108 463v5h63q107 -141 107 -468t-107 -468h-63zM685 721v-88h-229l-23 -160q11 2 41 2q97 0 160.5 -56.5t63.5 -156.5q0 -101 -67.5 -167.5t-175.5 -66.5
q-94 0 -154 37l22 81q61 -34 127 -34q61 0 102.5 38t40.5 103q0 68 -45 106t-131 38q-47 0 -79 -6l42 330h305z" />
    <glyph glyph-name="Japan1.8076" 
d="M664 732v-87q-120 6 -190 -59.5t-87 -172.5h2q54 63 142 63q83 0 135.5 -58.5t52.5 -148.5q0 -98 -62 -169.5t-160 -71.5q-100 0 -157.5 78t-57.5 207q0 185 86.5 292.5t218.5 121.5q34 7 77 5zM504 106q49 0 80 43t31 110q0 63 -29.5 102.5t-81.5 39.5
q-36 0 -64.5 -17.5t-44.5 -45.5q-7 -16 -7 -44q0 -86 29.5 -137t86.5 -51zM202 848v-5q-108 -143 -108 -463t108 -463v-5h-63q-107 141 -107 468t107 468h63zM798 -88v5q108 143 108 463t-108 463v5h63q107 -141 107 -468t-107 -468h-63z" />
    <glyph glyph-name="Japan1.8077" 
d="M202 848v-5q-108 -143 -108 -463t108 -463v-5h-63q-107 141 -107 468t107 468h63zM798 -88v5q108 143 108 463t-108 463v5h63q107 -141 107 -468t-107 -468h-63zM307 721h411v-69l-273 -618h-107l270 596v2h-301v89z" />
    <glyph glyph-name="Japan1.8078" 
d="M402 396l-1 2q-51 26 -76.5 66.5t-25.5 85.5q0 81 59 131.5t148 50.5q91 0 143 -48.5t52 -119.5q0 -105 -107 -157v-3q61 -26 95.5 -71.5t34.5 -105.5q0 -90 -65 -144.5t-162 -54.5q-100 0 -161 52.5t-61 132.5q0 122 127 183zM504 659q-48 0 -76 -29t-28 -75
q0 -82 114 -118q40 14 65 45t25 72q0 43 -25 74t-75 31zM380 226v-4q0 -50 33 -85t87 -35q56 0 88 33.5t32 83.5q0 102 -132 142q-51 -17 -79.5 -53t-28.5 -82zM202 848v-5q-108 -143 -108 -463t108 -463v-5h-63q-107 141 -107 468t107 468h63zM798 -88v5q108 143 108 463
t-108 463v5h63q107 -141 107 -468t-107 -468h-63z" />
    <glyph glyph-name="Japan1.8079" 
d="M336 28v87q120 -6 190 59.5t87 172.5h-2q-54 -63 -142 -63q-83 0 -135.5 58.5t-52.5 148.5q0 98 62 169.5t160 71.5q100 0 157.5 -78t57.5 -207q0 -185 -86.5 -292.5t-218.5 -121.5q-34 -7 -77 -5zM496 654q-49 0 -80 -43t-31 -110q0 -63 29.5 -102.5t81.5 -39.5
q36 0 64.5 17.5t44.5 45.5q7 16 7 44q0 86 -29.5 137t-86.5 51zM202 848v-5q-108 -143 -108 -463t108 -463v-5h-63q-107 141 -107 468t107 468h63zM798 -88v5q108 143 108 463t-108 463v5h63q107 -141 107 -468t-107 -468h-63z" />
    <glyph glyph-name="Japan1.8080" 
d="M638 713h1q155 0 155 -329q0 -174 -48 -255.5t-115 -81.5q-44 0 -76 28t-50 76t-26 104t-8 121q0 154 43.5 245.5t123.5 91.5zM632 138h1q70 0 70 242t-71 242q-35 0 -53 -64.5t-18 -177.5t18 -177.5t53 -64.5zM202 848v-5q-108 -143 -108 -463t108 -463v-5h-63
q-107 141 -107 468t107 468h63zM798 -88v5q108 143 108 463t-108 463v5h63q107 -141 107 -468t-107 -468h-63zM282 51v569h-2l-84 -48l-10 75l104 62h81v-658h-89z" />
    <glyph glyph-name="Japan1.8081" 
d="M202 848v-5q-108 -143 -108 -463t108 -463v-5h-63q-107 141 -107 468t107 468h63zM798 -88v5q108 143 108 463t-108 463v5h63q107 -141 107 -468t-107 -468h-63zM307 51v569h-2l-84 -48l-10 75l104 62h81v-658h-89zM655 51v569h-2l-84 -48l-10 75l104 62h81v-658h-89z
" />
    <glyph glyph-name="Japan1.8082" 
d="M202 848v-5q-108 -143 -108 -463t108 -463v-5h-63q-107 141 -107 468t107 468h63zM798 -88v5q108 143 108 463t-108 463v5h63q107 -141 107 -468t-107 -468h-63zM282 51v569h-2l-84 -48l-10 75l104 62h81v-658h-89zM776 55h-303v70l53 81q4 7 29.5 46t31.5 49l25.5 42.5
t25.5 48.5l16.5 42.5t14 48t3.5 44.5q0 47 -21 74.5t-62 27.5q-35 0 -84 -26l-11 78q47 32 111 32q80 0 121.5 -48t41.5 -130q0 -88 -43 -169.5t-119 -174.5l-34 -44v-2h204v-90z" />
    <glyph glyph-name="Japan1.8083" 
d="M202 848v-5q-108 -143 -108 -463t108 -463v-5h-63q-107 141 -107 468t107 468h63zM798 -88v5q108 143 108 463t-108 463v5h63q107 -141 107 -468t-107 -468h-63zM282 51v569h-2l-84 -48l-10 75l104 62h81v-658h-89zM473 73l14 82q40 -24 86 -24q53 0 80 32.5t27 80.5
q0 119 -142 119v76q70 0 96.5 31t26.5 69q0 41 -21.5 65t-58.5 24q-35 0 -71 -25l-13 77q43 33 110 33q75 0 114.5 -45t39.5 -109q0 -46 -25 -85.5t-66 -60.5v-2q48 -17 78 -61t30 -109q0 -79 -51.5 -136.5t-145.5 -57.5q-62 0 -108 26z" />
    <glyph glyph-name="Japan1.8084" 
d="M749 55h-83v165h-207v69l216 420h74v-407h65v-82h-65v-165zM544 302h124v160q0 57 4 105h-2q-12 -29 -39 -87l-87 -176v-2zM202 848v-5q-108 -143 -108 -463t108 -463v-5h-63q-107 141 -107 468t107 468h63zM798 -88v5q108 143 108 463t-108 463v5h63q107 -141 107 -468
t-107 -468h-63zM282 51v569h-2l-84 -48l-10 75l104 62h81v-658h-89z" />
    <glyph glyph-name="Japan1.8085" 
d="M202 848v-5q-108 -143 -108 -463t108 -463v-5h-63q-107 141 -107 468t107 468h63zM798 -88v5q108 143 108 463t-108 463v5h63q107 -141 107 -468t-107 -468h-63zM282 51v569h-2l-84 -48l-10 75l104 62h81v-658h-89zM504 395l36 310h227v-89h-151l-20 -148q6 1 18 1
q10 0 26 -4t39.5 -17t43 -33t33.5 -56.5t14 -83.5q0 -100 -54 -164t-144 -64q-63 0 -101 24l16 82q39 -21 78 -21q52 0 80.5 35.5t28.5 95.5q0 69 -39 101.5t-93 32.5q-29 0 -38 -2z" />
    <glyph glyph-name="Japan1.8086" 
d="M758 713v-87q-34 -1 -60 -8q-56 -14 -90.5 -74t-44.5 -129h2q39 48 99 48q61 0 99.5 -53t38.5 -138q0 -89 -45.5 -157t-125.5 -68q-75 0 -118 71t-43 192q0 167 67 271t159 126q26 6 62 6zM640 120q31 0 51.5 37.5t20.5 105.5q0 62 -20 96.5t-54 34.5q-47 0 -70 -55
q-5 -13 -5 -39q0 -85 20.5 -132.5t56.5 -47.5zM202 848v-5q-108 -143 -108 -463t108 -463v-5h-63q-107 141 -107 468t107 468h63zM798 -88v5q108 143 108 463t-108 463v5h63q107 -141 107 -468t-107 -468h-63zM282 51v569h-2l-84 -48l-10 75l104 62h81v-658h-89z" />
    <glyph glyph-name="Japan1.8087" 
d="M202 848v-5q-108 -143 -108 -463t108 -463v-5h-63q-107 141 -107 468t107 468h63zM798 -88v5q108 143 108 463t-108 463v5h63q107 -141 107 -468t-107 -468h-63zM282 51v569h-2l-84 -48l-10 75l104 62h81v-658h-89zM485 705h300v-66l-189 -584h-88l180 558v2h-203v90z
" />
    <glyph glyph-name="Japan1.8088" 
d="M562 403v2q-81 53 -81 144q0 74 47 119t114 45q57 0 101.5 -42t44.5 -113q0 -95 -90 -149v-3q102 -57 102 -174q0 -85 -51 -135t-119 -50q-69 0 -118.5 46.5t-49.5 128.5q0 111 100 181zM641 647q-37 0 -54 -28.5t-17 -65.5q0 -79 77 -115q27 15 42.5 45.5t15.5 66.5
q0 41 -15.5 69t-48.5 28zM632 113q45 0 63 35.5t18 80.5q0 93 -91 139q-71 -46 -71 -138q0 -51 20.5 -84t60.5 -33zM202 848v-5q-108 -143 -108 -463t108 -463v-5h-63q-107 141 -107 468t107 468h63zM798 -88v5q108 143 108 463t-108 463v5h63q107 -141 107 -468t-107 -468
h-63zM282 51v569h-2l-84 -48l-10 75l104 62h81v-658h-89z" />
    <glyph glyph-name="Japan1.8089" 
d="M516 47v87q35 1 60 8q59 15 92.5 77t42.5 126h-3q-39 -48 -98 -48q-61 0 -100 53.5t-39 137.5q0 89 46 157t126 68q75 0 117.5 -70.5t42.5 -192.5q0 -205 -99 -315q-73 -88 -188 -88zM634 640q-31 0 -51.5 -37.5t-20.5 -105.5q0 -62 20 -96.5t54 -34.5q22 0 40.5 15
t29.5 40q5 13 5 39q0 85 -20.5 132.5t-56.5 47.5zM202 848v-5q-108 -143 -108 -463t108 -463v-5h-63q-107 141 -107 468t107 468h63zM798 -88v5q108 143 108 463t-108 463v5h63q107 -141 107 -468t-107 -468h-63zM282 51v569h-2l-84 -48l-10 75l104 62h81v-658h-89z" />
    <glyph glyph-name="Japan1.8090" 
d="M663 47q-43 0 -73.5 29.5t-46 80t-22 104.5t-6.5 116q0 156 40 246t115 90q143 0 143 -330q0 -175 -45.5 -255.5t-104.5 -80.5zM664 134h1q64 0 64 246t-65 246q-66 0 -66 -246t66 -246zM202 848v-5q-108 -143 -108 -463t108 -463v-5h-63q-107 141 -107 468t107 468h63z
M798 -88v5q108 143 108 463t-108 463v5h63q107 -141 107 -468t-107 -468h-63zM463 55h-276v65l48 83q2 3 17.5 29.5l19 32.5l17 30.5t18 33.5l15.5 32t15 35t11.5 32.5t10 35.5t5 33t2.5 35q0 47 -20.5 74t-56.5 27q-31 0 -74 -23l-9 76q43 27 98 27q72 0 111.5 -47
t39.5 -129q0 -44 -10 -87t-33.5 -90.5t-42.5 -79l-55 -88.5l-32 -50v-2h181v-85z" />
    <glyph glyph-name="Japan1.8091" 
d="M968 380q0 -194 -137.5 -331t-330.5 -137q-95 0 -181.5 37t-149.5 100t-100 149.5t-37 181.5t37 181.5t100 149.5t149.5 100t181.5 37t181.5 -37t149.5 -100t100 -149.5t37 -181.5zM500 815q-181 0 -308 -128t-127 -307q0 -180 127.5 -307.5t307.5 -127.5t307.5 127.5
t127.5 307.5t-127.5 307.5t-307.5 127.5zM468 141h-253v57l45 59q45 58 65 86.5t38 68t18 73.5q0 32 -17 52t-51 20t-73 -24l-13 63q44 29 100 29q73 0 103.5 -40t30.5 -94q0 -45 -20.5 -91t-42 -73.5t-65.5 -78.5l-31 -34v-2h166v-71zM654 138v406h-1l-78 -42l-14 65
l100 55h73v-484h-80z" />
    <glyph glyph-name="Japan1.8092" 
d="M500 648q-35 0 -54 22.5t-19 51.5q0 31 20.5 52.5t52.5 21.5t52.5 -21.5t20.5 -52.5t-20.5 -52.5t-52.5 -21.5zM558 -5h-117v562h117v-562z" />
    <glyph glyph-name="Japan1.8093" 
d="M345 652q-34 0 -52.5 21.5t-18.5 49.5q0 31 20 52t52 21q31 0 51 -21t20 -52q0 -29 -20 -50t-52 -21zM655 652q-34 0 -53 21.5t-19 49.5q0 30 20.5 51.5t51.5 21.5q32 0 52 -21t20 -52q0 -29 -20.5 -50t-51.5 -21zM402 -5h-114v562h114v-562zM712 -5h-114v562h114v-562z
" />
    <glyph glyph-name="Japan1.8094" 
d="M270 654q-32 0 -51 21t-19 50t20 50t51 21t50.5 -20.5t19.5 -50.5t-19.5 -50.5t-51.5 -20.5zM500 654q-33 0 -51.5 21.5t-18.5 49.5q0 29 19.5 50t50.5 21t50.5 -20.5t19.5 -50.5t-19.5 -50.5t-50.5 -20.5zM729 654q-33 0 -51.5 21.5t-18.5 49.5q0 29 20 50t51 21
q30 0 50 -20.5t20 -50.5q0 -29 -20 -50t-51 -21zM327 -5h-112v562h112v-562zM556 -5h-112v562h112v-562zM785 -5h-112v562h112v-562z" />
    <glyph glyph-name="Japan1.8095" 
d="M214 654q-33 0 -51.5 21.5t-18.5 49.5q0 29 20 50t51 21t50.5 -20.5t19.5 -50.5q0 -29 -20 -50t-51 -21zM270 -5h-112v562h112v-562zM350 557h125l99 -288l45 -143h3q26 86 47 143l98 288h123l-224 -562h-98z" />
    <glyph glyph-name="Japan1.8096" 
d="M211 557h130l111 -299q26 -72 48 -150h3q26 87 50 150l111 299h125l-244 -562h-96z" />
    <glyph glyph-name="Japan1.8097" 
d="M787 654q-34 0 -53 21.5t-19 49.5q0 30 19.5 50.5t50.5 20.5t51 -21t20 -50t-19.5 -50t-49.5 -21zM110 557h126l98 -288q27 -78 45 -143h3q26 86 47 143l99 288h122l-223 -562h-99zM842 -5h-112v562h112v-562z" />
    <glyph glyph-name="Japan1.8098" 
d="M654 661q-34 0 -51.5 20t-17.5 47q0 29 18.5 48t48.5 19q29 0 48 -19.5t19 -47.5t-18 -47.5t-47 -19.5zM856 661q-34 0 -51.5 20t-17.5 47q0 29 18.5 48t48.5 19q29 0 48 -19.5t19 -47.5t-18 -47.5t-47 -19.5zM60 557h120l92 -288q24 -71 44 -143h3q18 62 44 143l95 288
h116l-212 -562h-95zM705 -5h-106v562h106v-562zM907 -5h-106v562h106v-562z" />
    <glyph glyph-name="Japan1.8099" 
d="M566 666q-28 0 -43.5 19.5t-15.5 45.5q0 27 16.5 46t41.5 19t41.5 -19t16.5 -46t-16 -46t-41 -19zM723 666q-28 0 -43.5 19.5t-15.5 45.5q0 27 16 46t41 19q26 0 42 -19t16 -46t-15.5 -46t-40.5 -19zM880 666q-28 0 -43.5 19.5t-15.5 45.5q0 27 16 46t41 19q26 0 42 -19
t16 -46t-15.5 -46t-40.5 -19zM51 557h106l82 -288q26 -93 38 -143h2q21 82 39 143l84 288h102l-187 -562h-84zM609 -5h-88v562h88v-562zM766 -5h-88v562h88v-562zM923 -5h-88v562h88v-562z" />
    <glyph glyph-name="Japan1.8100" 
d="M219 654q-33 0 -52 21t-19 50q0 30 19.5 50.5t50.5 20.5t51 -21t20 -50t-19.5 -50t-50.5 -21zM274 -5h-111v562h111v-562zM367 557h126l72 -116q18 -27 56 -95h4q30 57 56 99l69 112h119l-183 -268l192 -294h-125l-76 120l-62 105h-3q-45 -79 -60 -102l-78 -123h-121
l198 289z" />
    <glyph glyph-name="Japan1.8101" 
d="M229 557h136l79 -116q32 -45 61 -95h3q30 52 62 99l76 112h129l-201 -268l211 -294h-135l-84 120q-40 59 -67 105h-3q-52 -83 -66 -102l-86 -123h-130l217 289z" />
    <glyph glyph-name="Japan1.8102" 
d="M968 380q0 -194 -137.5 -331t-330.5 -137q-95 0 -181.5 37t-149.5 100t-100 149.5t-37 181.5t37 181.5t100 149.5t149.5 100t181.5 37t181.5 -37t149.5 -100t100 -149.5t37 -181.5zM500 815q-181 0 -308 -128t-127 -307q0 -180 127.5 -307.5t307.5 -127.5t307.5 127.5
t127.5 307.5t-127.5 307.5t-307.5 127.5zM468 141h-253v57l45 59q45 58 65 86.5t37.5 68t17.5 73.5q0 32 -16.5 52t-50.5 20t-73 -24l-13 63q43 29 100 29q73 0 103.5 -40t30.5 -94q0 -45 -20.5 -91t-42 -73.5t-65.5 -78.5l-31 -34v-2h166v-71zM795 141h-253v57l45 59
q45 57 65.5 86.5t38 68.5t17.5 73q0 32 -17 52t-51 20q-35 0 -72 -24l-13 63q43 29 100 29q72 0 102.5 -40t30.5 -94q0 -45 -20 -90.5t-42.5 -74.5t-65.5 -78l-30 -34v-2h165v-71z" />
    <glyph glyph-name="Japan1.8103" 
d="M968 380q0 -194 -137.5 -331t-330.5 -137q-95 0 -181.5 37t-149.5 100t-100 149.5t-37 181.5t37 181.5t100 149.5t149.5 100t181.5 37t181.5 -37t149.5 -100t100 -149.5t37 -181.5zM500 815q-181 0 -308 -128t-127 -307q0 -180 127.5 -307.5t307.5 -127.5t307.5 127.5
t127.5 307.5t-127.5 307.5t-307.5 127.5zM468 141h-253v57l45 59q45 58 65 86.5t37.5 68t17.5 73.5q0 32 -16.5 52t-50.5 20t-73 -24l-13 63q43 29 100 29q73 0 103.5 -40t30.5 -94q0 -45 -20.5 -91t-42 -73.5t-65.5 -78.5l-31 -34v-2h166v-71zM535 156l12 65q32 -19 79 -19
q46 0 68 22.5t22 54.5q0 84 -125 84v61q110 0 110 72q0 28 -18 45t-51 17q-36 0 -67 -19l-11 61q38 25 98 25q64 0 97 -33t33 -81q0 -36 -20 -65t-54 -43v-1q41 -13 65 -45.5t24 -78.5q0 -57 -43.5 -100t-123.5 -43q-55 0 -95 21z" />
    <glyph glyph-name="Japan1.8104" 
d="M968 380q0 -194 -137.5 -331t-330.5 -137q-95 0 -181.5 37t-149.5 100t-100 149.5t-37 181.5t37 181.5t100 149.5t149.5 100t181.5 37t181.5 -37t149.5 -100t100 -149.5t37 -181.5zM500 815q-181 0 -308 -128t-127 -307q0 -180 127.5 -307.5t307.5 -127.5t307.5 127.5
t127.5 307.5t-127.5 307.5t-307.5 127.5zM762 138h-73v118h-182v57l174 309h81v-301h50v-65h-50v-118zM579 321h110v137q0 30 6 78h-3q-17 -42 -33 -70l-80 -143v-2zM468 141h-253v57l45 59q45 58 65 86.5t38 68t18 73.5q0 32 -17 52t-51 20t-73 -24l-13 63q44 29 100 29
q73 0 103.5 -40t30.5 -94q0 -45 -20.5 -91t-42 -73.5t-65.5 -78.5l-31 -34v-2h166v-71z" />
    <glyph glyph-name="Japan1.8105" 
d="M968 380q0 -194 -137.5 -331t-330.5 -137q-95 0 -181.5 37t-149.5 100t-100 149.5t-37 181.5t37 181.5t100 149.5t149.5 100t181.5 37t181.5 -37t149.5 -100t100 -149.5t37 -181.5zM500 815q-181 0 -308 -128t-127 -307q0 -180 127.5 -307.5t307.5 -127.5t307.5 127.5
t127.5 307.5t-127.5 307.5t-307.5 127.5zM468 141h-253v57l45 59q45 58 65 86.5t38 68t18 73.5q0 32 -17 52t-51 20t-73 -24l-13 63q44 29 100 29q73 0 103.5 -40t30.5 -94q0 -45 -20.5 -91t-42 -73.5t-65.5 -78.5l-31 -34v-2h166v-71zM784 619v-71h-136l-12 -102q5 1 20 1
q46 0 90 -39t44 -106q0 -72 -45.5 -119.5t-120.5 -47.5q-56 0 -89 20l13 65q36 -18 72 -18q42 0 65.5 24.5t23.5 63.5q0 27 -10 46.5t-23 29t-31 14.5t-27.5 6t-19.5 1q-18 0 -38 -2l26 234h198z" />
    <glyph glyph-name="Japan1.8106" 
d="M968 380q0 -194 -137.5 -331t-330.5 -137q-95 0 -181.5 37t-149.5 100t-100 149.5t-37 181.5t37 181.5t100 149.5t149.5 100t181.5 37t181.5 -37t149.5 -100t100 -149.5t37 -181.5zM500 815q-181 0 -308 -128t-127 -307q0 -180 127.5 -307.5t307.5 -127.5t307.5 127.5
t127.5 307.5t-127.5 307.5t-307.5 127.5zM767 625v-68q-17 0 -28.5 -1t-34.5 -9t-38.5 -22t-31.5 -44.5t-23 -72.5h2q31 36 77 36q51 0 83.5 -40t32.5 -102q0 -65 -38.5 -116t-107.5 -51q-61 0 -97 52t-36 144q0 129 66 214.5t174 79.5zM729 294q0 42 -16.5 68t-45.5 26
q-36 0 -52 -31q-9 -13 -9 -55q0 -51 16.5 -81t44.5 -30q62 0 62 103zM468 141h-253v57l45 59q45 58 65 86.5t38 68t18 73.5q0 32 -17 52t-51 20t-73 -24l-13 63q44 29 100 29q73 0 103.5 -40t30.5 -94q0 -45 -20.5 -91t-42 -73.5t-65.5 -78.5l-31 -34v-2h166v-71z" />
    <glyph glyph-name="Japan1.8107" 
d="M968 380q0 -194 -137.5 -331t-330.5 -137q-95 0 -181.5 37t-149.5 100t-100 149.5t-37 181.5t37 181.5t100 149.5t149.5 100t181.5 37t181.5 -37t149.5 -100t100 -149.5t37 -181.5zM500 815q-181 0 -308 -128t-127 -307q0 -180 127.5 -307.5t307.5 -127.5t307.5 127.5
t127.5 307.5t-127.5 307.5t-307.5 127.5zM468 141h-253v57l45 59q45 58 65 86.5t37.5 68t17.5 73.5q0 32 -16.5 52t-50.5 20t-73 -24l-13 63q43 29 100 29q73 0 103.5 -40t30.5 -94q0 -45 -20.5 -91t-42 -73.5t-65.5 -78.5l-31 -34v-2h166v-71zM542 619h256v-56l-158 -425
h-76l153 408v2h-175v71z" />
    <glyph glyph-name="Japan1.8108" 
d="M602 393v2q-67 36 -67 105q0 55 40.5 89t100.5 34q52 0 89.5 -31.5t37.5 -84.5q0 -69 -72 -107v-2q84 -38 84 -126q0 -64 -43.5 -101t-104.5 -37t-103.5 34.5t-42.5 95.5q0 83 81 129zM675 574q-35 0 -50.5 -22t-15.5 -50q0 -59 73 -84q51 25 51 82q0 74 -58 74zM669 186
q38 0 55 25t17 58q0 71 -84 100q-61 -31 -61 -98q0 -37 19 -61t54 -24zM968 380q0 -194 -137.5 -331t-330.5 -137q-95 0 -181.5 37t-149.5 100t-100 149.5t-37 181.5t37 181.5t100 149.5t149.5 100t181.5 37t181.5 -37t149.5 -100t100 -149.5t37 -181.5zM500 815
q-181 0 -308 -128t-127 -307q0 -180 127.5 -307.5t307.5 -127.5t307.5 127.5t127.5 307.5t-127.5 307.5t-307.5 127.5zM468 141h-253v57l45 59q45 58 65 86.5t37.5 68t17.5 73.5q0 32 -16.5 52t-50.5 20t-73 -24l-13 63q43 29 100 29q73 0 103.5 -40t30.5 -94
q0 -45 -20.5 -91t-42 -73.5t-65.5 -78.5l-31 -34v-2h166v-71z" />
    <glyph glyph-name="Japan1.8109" 
d="M968 380q0 -194 -137.5 -331t-330.5 -137q-95 0 -181.5 37t-149.5 100t-100 149.5t-37 181.5t37 181.5t100 149.5t149.5 100t181.5 37t181.5 -37t149.5 -100t100 -149.5t37 -181.5zM500 815q-181 0 -308 -128t-127 -307q0 -180 127.5 -307.5t307.5 -127.5t307.5 127.5
t127.5 307.5t-127.5 307.5t-307.5 127.5zM730 352h-2q-33 -36 -77 -36q-52 0 -84 39.5t-32 102.5q0 65 38.5 116t106.5 51q62 0 98 -52t36 -144q0 -130 -66 -215t-175 -79v68q17 0 28.5 1t34.5 9t39 22t32 44.5t23 72.5zM611 466q0 -41 16.5 -67.5t45.5 -26.5q37 0 53 31
q9 13 9 55q0 52 -16.5 81.5t-45.5 29.5q-30 0 -46 -28t-16 -75zM468 141h-253v57l45 59q45 58 65 86.5t38 68t18 73.5q0 32 -17 52t-51 20t-73 -24l-13 63q44 29 100 29q73 0 103.5 -40t30.5 -94q0 -45 -20.5 -91t-42 -73.5t-65.5 -78.5l-31 -34v-2h166v-71z" />
    <glyph glyph-name="Japan1.8110" 
d="M968 380q0 -194 -137.5 -331t-330.5 -137q-95 0 -181.5 37t-149.5 100t-100 149.5t-37 181.5t37 181.5t100 149.5t149.5 100t181.5 37t181.5 -37t149.5 -100t100 -149.5t37 -181.5zM500 815q-181 0 -308 -128t-127 -307q0 -180 127.5 -307.5t307.5 -127.5t307.5 127.5
t127.5 307.5t-127.5 307.5t-307.5 127.5zM672 135q-71 0 -105.5 68.5t-35.5 173.5q0 111 38.5 179.5t107.5 68.5q137 0 137 -241q0 -125 -40.5 -187t-101.5 -62zM673 203q29 0 45 39t16 138q0 177 -60 177q-63 0 -63 -177t62 -177zM378 403v-1q40 -13 63.5 -45t23.5 -79
q0 -57 -41.5 -100t-117.5 -43q-54 0 -92 21l12 65q29 -19 73 -19t64.5 22.5t20.5 54.5q0 84 -117 84v61q102 0 102 72q0 28 -16.5 45t-47.5 17q-34 0 -62 -19l-11 61q38 25 94 25q61 0 93 -33t32 -81q0 -36 -19.5 -65.5t-53.5 -42.5z" />
    <glyph glyph-name="Japan1.8111" 
d="M968 380q0 -194 -137.5 -331t-330.5 -137q-95 0 -181.5 37t-149.5 100t-100 149.5t-37 181.5t37 181.5t100 149.5t149.5 100t181.5 37t181.5 -37t149.5 -100t100 -149.5t37 -181.5zM500 815q-181 0 -308 -128t-127 -307q0 -180 127.5 -307.5t307.5 -127.5t307.5 127.5
t127.5 307.5t-127.5 307.5t-307.5 127.5zM217 156l11 65q29 -19 74 -19q43 0 63.5 22.5t20.5 54.5q0 84 -116 84v61q101 0 101 72q0 28 -16.5 45t-47.5 17q-34 0 -62 -19l-11 61q37 25 94 25q61 0 93 -33t32 -81q0 -36 -19.5 -65.5t-52.5 -42.5v-1q39 -13 63 -45.5t24 -78.5
q0 -56 -42 -99.5t-118 -43.5q-55 0 -91 21zM654 138v406h-1l-78 -42l-14 65l100 55h73v-484h-80z" />
    <glyph glyph-name="Japan1.8112" 
d="M690 411v-192q0 -76 9 -125h-94l-8 68h-2q-46 -72 -143 -72q-67 0 -106 43t-39 107q0 93 76.5 141.5t204.5 49.5v10q0 41 -23.5 74.5t-78.5 33.5q-65 0 -122 -36l-23 69q72 43 163 43q59 0 98.5 -19t57 -53t24 -66.5t6.5 -75.5zM592 260v104q-34 0 -65 -5.5t-61 -17
t-47.5 -34.5t-17.5 -55q0 -43 24 -65.5t55 -22.5q48 0 80 29t32 67zM202 848v-5q-108 -143 -108 -463t108 -463v-5h-63q-107 141 -107 468t107 468h63zM798 -88v5q108 143 108 463t-108 463v5h63q107 -141 107 -468t-107 -468h-63z" />
    <glyph glyph-name="Japan1.8113" 
d="M318 148v605h98v-292h2q43 77 128 77q76 0 119 -71.5t43 -186.5q0 -132 -51 -204.5t-128 -72.5q-42 0 -70.5 18.5t-50.5 60.5h-2l-7 -75h-85q4 80 4 141zM416 337v-137q0 -39 24 -76t67 -37q50 0 76 51t26 137q0 80 -26 129.5t-75 49.5q-38 0 -65 -36t-27 -81zM199 848
v-5q-107 -142 -107 -463q0 -320 107 -463v-5h-60q-107 141 -107 468t107 468h60zM801 -88v5q107 142 107 463q0 320 -107 463v5h60q107 -141 107 -468t-107 -468h-60z" />
    <glyph glyph-name="Japan1.8114" 
d="M199 848v-5q-107 -142 -107 -463q0 -320 107 -463v-5h-60q-107 141 -107 468t107 468h60zM801 -88v5q107 142 107 463q0 320 -107 463v5h60q107 -141 107 -468t-107 -468h-60zM664 192l15 -79q-46 -23 -122 -23q-110 0 -175.5 70t-65.5 191t71.5 197.5t189.5 76.5
q65 0 107 -22l-20 -80q-38 19 -90 19q-73 0 -116.5 -53.5t-43.5 -132.5q0 -85 44 -134.5t115 -49.5q47 0 91 20z" />
    <glyph glyph-name="Japan1.8115" 
d="M584 753h98v-605q0 -57 4 -141h-86l-6 75h-3q-17 -34 -49.5 -56.5t-75.5 -22.5q-81 0 -126.5 73.5t-45.5 190.5q0 128 51.5 199.5t126.5 71.5q76 0 110 -65h2v280zM584 200v132q0 57 -26 89.5t-62 32.5q-50 0 -76.5 -52.5t-26.5 -133.5q0 -82 26 -131.5t74 -49.5
q43 0 67 37t24 76zM199 848v-5q-107 -142 -107 -463q0 -320 107 -463v-5h-60q-107 141 -107 468t107 468h60zM801 -88v5q107 142 107 463q0 320 -107 463v5h60q107 -141 107 -468t-107 -468h-60z" />
    <glyph glyph-name="Japan1.8116" 
d="M701 331h-309q-2 -80 40.5 -122t108.5 -42q63 0 121 25l16 -74q-58 -28 -153 -28q-108 0 -169 69t-61 187q0 129 62.5 204t157.5 75q96 0 142.5 -68t46.5 -171q0 -37 -3 -55zM392 403h221q1 61 -24.5 104t-80.5 43q-52 0 -82.5 -45t-33.5 -102zM199 848v-5
q-107 -142 -107 -463q0 -320 107 -463v-5h-60q-107 141 -107 468t107 468h60zM801 -88v5q107 142 107 463q0 320 -107 463v5h60q107 -141 107 -468t-107 -468h-60z" />
    <glyph glyph-name="Japan1.8117" 
d="M199 848v-5q-107 -142 -107 -463q0 -320 107 -463v-5h-60q-107 141 -107 468t107 468h60zM801 -88v5q107 142 107 463q0 320 -107 463v5h60q107 -141 107 -468t-107 -468h-60zM513 7h-98v437h-74v73h74q0 42 2 66.5t15.5 62.5t39.5 64q50 47 124 47q50 0 86 -16l-16 -79
q-24 12 -57 12q-27 0 -46.5 -12t-29 -26.5t-14.5 -40t-5.5 -40t-0.5 -38.5h121v-73h-121v-437z" />
    <glyph glyph-name="Japan1.8118" 
d="M683 504v-300q0 -90 -14.5 -141t-44.5 -81q-57 -57 -161 -57q-78 0 -131 31l21 78q46 -29 110 -29q121 0 121 157v48h-2q-34 -66 -116 -66t-126.5 72.5t-44.5 180.5q0 128 53.5 200t129.5 72q79 0 115 -73h2l5 69h87q-4 -60 -4 -161zM584 336v136q0 44 -23.5 77.5
t-61.5 33.5q-50 0 -78 -51t-28 -132q0 -82 28 -129t76 -47q33 0 60 30.5t27 81.5zM199 848v-5q-107 -142 -107 -463q0 -320 107 -463v-5h-60q-107 141 -107 468t107 468h60zM801 -88v5q107 142 107 463q0 320 -107 463v5h60q107 -141 107 -468t-107 -468h-60z" />
    <glyph glyph-name="Japan1.8119" 
d="M199 848v-5q-107 -142 -107 -463q0 -320 107 -463v-5h-60q-107 141 -107 468t107 468h60zM801 -88v5q107 142 107 463q0 320 -107 463v5h60q107 -141 107 -468t-107 -468h-60zM318 7v746h98v-292h3q16 29 49.5 53t82.5 24q61 0 101 -52t40 -158v-321h-98v320
q0 126 -82 126q-39 0 -67.5 -33.5t-28.5 -87.5v-325h-98z" />
    <glyph glyph-name="Japan1.8120" 
d="M199 848v-5q-107 -142 -107 -463q0 -320 107 -463v-5h-60q-107 141 -107 468t107 468h60zM801 -88v5q107 142 107 463q0 320 -107 463v5h60q107 -141 107 -468t-107 -468h-60zM499 616q-27 0 -45 20t-18 48q0 31 19 51t45 20q27 0 45.5 -19.5t18.5 -51.5q0 -28 -19 -48
t-46 -20zM549 6h-98v526h98v-526z" />
    <glyph glyph-name="Japan1.8121" 
d="M199 848v-5q-107 -142 -107 -463q0 -320 107 -463v-5h-60q-107 141 -107 468t107 468h60zM801 -88v5q107 142 107 463q0 320 -107 463v5h60q107 -141 107 -468t-107 -468h-60zM521 656q-27 0 -44.5 20t-17.5 48q0 31 18.5 50.5t45.5 19.5q26 0 44.5 -19.5t18.5 -50.5
q0 -28 -19 -48t-46 -20zM352 -65l-9 80q37 2 62 13.5t38.5 26.5t20 45.5t8 55t1.5 70.5v343h98v-373q0 -38 -2.5 -65.5t-14.5 -67t-34 -64.5t-65 -44t-103 -20z" />
    <glyph glyph-name="Japan1.8122" 
d="M199 848v-5q-107 -142 -107 -463q0 -320 107 -463v-5h-60q-107 141 -107 468t107 468h60zM801 -88v5q107 142 107 463q0 320 -107 463v5h60q107 -141 107 -468t-107 -468h-60zM427 753v-462h3q12 28 36 69l115 174h107l-158 -220l171 -307h-110l-129 242l-35 -49v-193
h-98v746h98z" />
    <glyph glyph-name="Japan1.8123" 
d="M199 848v-5q-107 -142 -107 -463q0 -320 107 -463v-5h-60q-107 141 -107 468t107 468h60zM801 -88v5q107 142 107 463q0 320 -107 463v5h60q107 -141 107 -468t-107 -468h-60zM451 7v746h98v-746h-98z" />
    <glyph glyph-name="Japan1.8124" 
d="M199 848v-5q-107 -142 -107 -463q0 -320 107 -463v-5h-60q-107 141 -107 468t107 468h60zM801 -88v5q107 142 107 463q0 320 -107 463v5h60q107 -141 107 -468t-107 -468h-60zM259 93v388q0 48 -4 140h76l4 -60h2q35 64 97 64q75 0 95 -64h2q6 13 16 25.5t34.5 25.5
t54.5 13q105 0 105 -168v-364h-86v329q0 29 -1.5 46t-6 34.5t-15.5 25.5t-29 8q-21 0 -36.5 -15t-21.5 -47q-3 -15 -3 -48v-333h-84v332q0 57 -10.5 84t-41.5 27q-21 0 -35 -11t-19 -32t-6 -34.5t-1 -33.5v-332h-86z" />
    <glyph glyph-name="Japan1.8125" 
d="M199 848v-5q-107 -142 -107 -463q0 -320 107 -463v-5h-60q-107 141 -107 468t107 468h60zM801 -88v5q107 142 107 463q0 320 -107 463v5h60q107 -141 107 -468t-107 -468h-60zM313 93v382q0 42 -4 146h85l6 -77h1q21 38 58 59.5t82 21.5q62 0 104 -49.5t42 -148.5v-334
h-99v326q0 121 -81 121q-41 0 -68.5 -35.5t-27.5 -87.5v-324h-98z" />
    <glyph glyph-name="Japan1.8126" 
d="M501 90q-97 0 -154 71t-57 194q0 130 61.5 200t150.5 70q95 0 151.5 -71.5t56.5 -194.5q0 -73 -19.5 -127.5t-52 -84t-67 -43.5t-70.5 -14zM501 167q54 0 82.5 58t28.5 133q0 73 -27 131t-84 58q-40 0 -67 -31t-36.5 -71.5t-9.5 -87.5q0 -82 29 -136t84 -54zM199 848v-5
q-107 -142 -107 -463q0 -320 107 -463v-5h-60q-107 141 -107 468t107 468h60zM801 -88v5q107 142 107 463q0 320 -107 463v5h60q107 -141 107 -468t-107 -468h-60z" />
    <glyph glyph-name="Japan1.8127" 
d="M317 -65v562q0 56 -4 168h88l6 -78h2q41 82 128 82q82 0 126.5 -74t44.5 -191q0 -133 -51 -201.5t-130 -68.5q-73 0 -108 64h-4v-263h-98zM415 465v-130q0 -14 3.5 -31t12.5 -37.5t28.5 -34.5t46.5 -14q51 0 77 52.5t26 133.5q0 82 -26.5 131.5t-74.5 49.5q-41 0 -67 -38
t-26 -82zM199 848v-5q-107 -142 -107 -463q0 -320 107 -463v-5h-60q-107 141 -107 468t107 468h60zM801 -88v5q107 142 107 463q0 320 -107 463v5h60q107 -141 107 -468t-107 -468h-60z" />
    <glyph glyph-name="Japan1.8128" 
d="M584 -65v266h-2q-37 -67 -119 -67q-77 0 -124 72t-47 185q0 131 54.5 204.5t134.5 73.5q78 0 114 -74l2 -1l5 71h85q-5 -105 -5 -160v-570h-98zM584 332v136q0 62 -29 89.5t-59 27.5q-50 0 -77.5 -50.5t-27.5 -134.5q0 -80 26.5 -131t76.5 -51q41 0 65.5 35.5t24.5 78.5z
M199 848v-5q-107 -142 -107 -463q0 -320 107 -463v-5h-60q-107 141 -107 468t107 468h60zM801 -88v5q107 142 107 463q0 320 -107 463v5h60q107 -141 107 -468t-107 -468h-60z" />
    <glyph glyph-name="Japan1.8129" 
d="M199 848v-5q-107 -142 -107 -463q0 -320 107 -463v-5h-60q-107 141 -107 468t107 468h60zM801 -88v5q107 142 107 463q0 320 -107 463v5h60q107 -141 107 -468t-107 -468h-60zM370 93v329q0 115 -5 199h91l5 -124h4q24 62 68 95t99 33q14 0 40 -4v-98q-16 4 -49 4
q-42 0 -74.5 -20.5t-48.5 -51t-24 -57t-8 -45.5v-260h-98z" />
    <glyph glyph-name="Japan1.8130" 
d="M199 848v-5q-107 -142 -107 -463q0 -320 107 -463v-5h-60q-107 141 -107 468t107 468h60zM801 -88v5q107 142 107 463q0 320 -107 463v5h60q107 -141 107 -468t-107 -468h-60zM313 128l22 75q65 -37 148 -37q52 0 79.5 21.5t27.5 49.5q0 30 -24.5 48t-83.5 36
q-86 26 -120.5 63.5t-34.5 85.5q0 64 53 109.5t144 45.5q79 0 139 -33l-24 -74q-57 30 -124 30q-43 0 -68.5 -18.5t-25.5 -44.5q0 -31 23 -47.5t86 -36.5q83 -26 118.5 -63.5t35.5 -93.5q0 -67 -55.5 -110.5t-157.5 -43.5q-93 0 -158 38z" />
    <glyph glyph-name="Japan1.8131" 
d="M199 848v-5q-107 -142 -107 -463q0 -320 107 -463v-5h-60q-107 141 -107 468t107 468h60zM801 -88v5q107 142 107 463q0 320 -107 463v5h60q107 -141 107 -468t-107 -468h-60zM414 670l98 31v-126h140v-73h-140v-276q0 -96 73 -96q28 0 56 7l3 -77q-33 -12 -87 -12
q-143 0 -143 177v277h-83v73h83v95z" />
    <glyph glyph-name="Japan1.8132" 
d="M199 848v-5q-107 -142 -107 -463q0 -320 107 -463v-5h-60q-107 141 -107 468t107 468h60zM801 -88v5q107 142 107 463q0 320 -107 463v5h60q107 -141 107 -468t-107 -468h-60zM687 621v-379q0 -29 2 -83t2 -66h-86l-6 71h-1q-48 -74 -138 -74q-147 0 -147 215v316h98
v-302q0 -144 83 -144q39 0 67 31t28 82v333h98z" />
    <glyph glyph-name="Japan1.8133" 
d="M199 848v-5q-107 -142 -107 -463q0 -320 107 -463v-5h-60q-107 141 -107 468t107 468h60zM801 -88v5q107 142 107 463q0 320 -107 463v5h60q107 -141 107 -468t-107 -468h-60zM289 621h106l74 -277q13 -51 32 -142h3q17 79 35 142l74 277h98l-167 -527h-90z" />
    <glyph glyph-name="Japan1.8134" 
d="M199 848v-5q-107 -142 -107 -463q0 -320 107 -463v-5h-60q-107 141 -107 468t107 468h60zM801 -88v5q107 142 107 463q0 320 -107 463v5h60q107 -141 107 -468t-107 -468h-60zM229 621h86l52 -253q24 -134 26 -149h3q16 112 24 146l51 256h67l51 -249q16 -77 27 -153h3
q17 103 26 149l48 253h77l-120 -528h-69l-52 236q-18 86 -24 156h-3q-9 -74 -25 -159l-51 -233h-74z" />
    <glyph glyph-name="Japan1.8135" 
d="M199 848v-5q-107 -142 -107 -463q0 -320 107 -463v-5h-60q-107 141 -107 468t107 468h60zM801 -88v5q107 142 107 463q0 320 -107 463v5h60q107 -141 107 -468t-107 -468h-60zM306 621h108l49 -114l40 -99h3l18 47t21 52l49 114h100l-134 -260l137 -268h-106l-56 122
q-20 45 -40 95h-3q-2 -5 -15.5 -41t-21.5 -55l-55 -121h-98l134 265z" />
    <glyph glyph-name="Japan1.8136" 
d="M199 848v-5q-107 -142 -107 -463q0 -320 107 -463v-5h-60q-107 141 -107 468t107 468h60zM801 -88v5q107 142 107 463q0 320 -107 463v5h60q107 -141 107 -468t-107 -468h-60zM298 678h107l78 -299q2 -10 11 -44t12 -51h2l24 95l73 299h98l-118 -387q-28 -84 -42 -121.5
t-38 -84t-53 -78.5q-47 -52 -104 -72l-31 84q95 38 133 137q7 13 7 22q0 10 -5 27z" />
    <glyph glyph-name="Japan1.8137" 
d="M199 848v-5q-107 -142 -107 -463q0 -320 107 -463v-5h-60q-107 141 -107 468t107 468h60zM801 -88v5q107 142 107 463q0 320 -107 463v5h60q107 -141 107 -468t-107 -468h-60zM322 98v63l186 289q28 47 53 80v3h-220v83h333v-67l-183 -286q-30 -48 -53 -79v-3h239v-83
h-355z" />
    <glyph glyph-name="Japan1.8184" 
d="M205 323v380h-1l-87 -43l-14 65l114 55h72v-457h-84zM263 -23h-68l468 806h69zM920 -17h-340v54l60 50q107 91 145 134t39 84q0 34 -22.5 57.5t-64.5 23.5q-57 0 -111 -50l-33 59q66 61 156 61q72 0 116 -41.5t44 -101.5q0 -59 -40 -110t-118 -112l-50 -35v-1h219v-72z
" />
    <glyph glyph-name="Japan1.8185" 
d="M855 -20h-82v111h-239v59l213 302h108v-295h76v-66h-76v-111zM615 157h161v149q0 35 3 80h-10q-23 -43 -45 -78zM201 323v380h-1l-87 -43l-14 65l114 55h72v-457h-84zM270 -23h-68l468 806h69z" />
    <glyph glyph-name="Japan1.8224" 
d="M968 380q0 -194 -137.5 -331t-330.5 -137q-95 0 -181.5 37t-149.5 100t-100 149.5t-37 181.5t37 181.5t100 149.5t149.5 100t181.5 37t181.5 -37t149.5 -100t100 -149.5t37 -181.5zM500 815q-181 0 -308 -128t-127 -307q0 -180 127.5 -307.5t307.5 -127.5t307.5 127.5
t127.5 307.5t-127.5 307.5t-307.5 127.5zM498 117q-51 0 -89.5 24t-59.5 63.5t-31 83.5t-10 90q0 119 53 192t143 73q93 0 140 -71.5t47 -185.5q0 -126 -50 -197.5t-143 -71.5zM405 382v-13q0 -84 25 -131t70 -47q95 0 95 191q0 187 -94 187q-43 0 -69.5 -48.5t-26.5 -138.5
z" />
    <glyph glyph-name="Japan1.8225" 
d="M687 -5h-129l-92 172q-76 140 -86 160h-1l-77 -159l-86 -173h-126l227 395l-213 382h128l95 -184l62 -130h2l60 129l92 185h127l-217 -378zM768 772h112v-777h-112v777z" />
    <glyph glyph-name="Japan1.8226" 
d="M582 -5h-125l-78 169q-51 103 -73 158h-2q-19 -52 -66 -157l-73 -170h-123l202 396l-189 381h122l82 -183l54 -129h1q40 102 51 128l78 184h123l-192 -376zM613 772h107v-777h-107v777zM817 772h106v-777h-106v777z" />
    <glyph glyph-name="Japan1.8227" 
d="M496 27q-76 0 -127 54.5t-70.5 130t-19.5 165.5q0 165 60.5 259.5t165.5 94.5q106 0 161 -94t55 -253q0 -173 -60 -265t-165 -92zM385 386v-16q0 -123 30.5 -191t84.5 -68h1q114 0 114 270q0 266 -114 266q-54 0 -85 -69.5t-31 -191.5zM202 848v-5q-108 -143 -108 -463
t108 -463v-5h-63q-107 141 -107 468t107 468h63zM798 -88v5q108 143 108 463t-108 463v5h63q107 -141 107 -468t-107 -468h-63z" />
    <glyph glyph-name="Japan1.8228" 
d="M718 774l72 -50l-60 -89q53 -97 53 -253q0 -184 -73.5 -290t-209.5 -106q-103 0 -170 65l-48 -71l-72 50l62 92q-55 98 -55 258q0 178 77.5 283t206.5 105q104 0 170 -63zM364 250l243 364q-41 60 -107 60q-58 0 -96 -50.5t-50.5 -120.5t-9.5 -140.5t20 -112.5zM637 505
l-243 -363q40 -62 104 -62q57 0 94 44t51 108t14 147q0 73 -20 126z" />
    <glyph glyph-name="Japan1.8286" 
d="M500 848q194 0 331 -137.5t137 -330.5q0 -95 -37 -181.5t-100 -149.5t-149.5 -100t-181.5 -37t-181.5 37t-149.5 100t-100 149.5t-37 181.5t37 181.5t100 149.5t149.5 100t181.5 37zM454 526v-409h125v523h-107l-141 -64l21 -96l101 46h1z" />
    <glyph glyph-name="Japan1.8287" 
d="M500 848q194 0 331 -137.5t137 -330.5q0 -95 -37 -181.5t-100 -149.5t-149.5 -100t-181.5 -37t-181.5 37t-149.5 100t-100 149.5t-37 181.5t37 181.5t100 149.5t149.5 100t181.5 37zM308 119h384v106h-200v1l50 39q67 57 103 107.5t36 110.5q0 74 -50 120t-139 46
q-103 0 -178 -57l36 -92q61 46 115 46q44 0 65.5 -21t21.5 -54q-1 -40 -38.5 -84t-135.5 -130l-70 -60v-78z" />
    <glyph glyph-name="Japan1.8288" 
d="M500 848q194 0 331 -137.5t137 -330.5q0 -95 -37 -181.5t-100 -149.5t-149.5 -100t-181.5 -37t-181.5 37t-149.5 100t-100 149.5t-37 181.5t37 181.5t100 149.5t149.5 100t181.5 37zM335 244l-27 -97q61 -38 162 -38t161 44.5t60 115.5q0 49 -32.5 83t-82.5 43v2
q97 33 97 121q0 56 -48 93.5t-132 37.5q-105 0 -169 -41l27 -93q52 32 113 32q38 0 58 -14.5t20 -36.5q0 -29 -28 -42.5t-64 -13.5h-52v-93h54q43 0 74 -18.5t31 -52.5q0 -28 -25 -46.5t-71 -18.5q-68 0 -126 33z" />
    <glyph glyph-name="Japan1.8289" 
d="M500 848q194 0 331 -137.5t137 -330.5q0 -95 -37 -181.5t-100 -149.5t-149.5 -100t-181.5 -37t-181.5 37t-149.5 100t-100 149.5t-37 181.5t37 181.5t100 149.5t149.5 100t181.5 37zM516 117h122v121h63v98h-63v305h-159l-200 -318v-85h237v-121zM516 449v-113h-118
l72 113q34 69 46 97h3q-3 -51 -3 -97z" />
    <glyph glyph-name="Japan1.8290" 
d="M500 848q194 0 331 -137.5t137 -330.5q0 -95 -37 -181.5t-100 -149.5t-149.5 -100t-181.5 -37t-181.5 37t-149.5 100t-100 149.5t-37 181.5t37 181.5t100 149.5t149.5 100t181.5 37zM668 533v106h-298l-34 -276q37 5 72 5q151 0 151 -84q0 -38 -31 -56.5t-74 -18.5
q-64 0 -123 27l-23 -97q62 -30 152 -30q109 0 170 52t61 130q0 91 -65 134q-52 36 -142 38q-11 0 -35 -2l10 72h209z" />
    <glyph glyph-name="Japan1.8291" 
d="M500 848q194 0 331 -137.5t137 -330.5q0 -95 -37 -181.5t-100 -149.5t-149.5 -100t-181.5 -37t-181.5 37t-149.5 100t-100 149.5t-37 181.5t37 181.5t100 149.5t149.5 100t181.5 37zM651 547v100q-11 1 -39 1q-153 0 -237 -82.5t-84 -230.5q0 -98 52.5 -162t152.5 -64
q88 0 146 55t58 134q0 74 -48.5 119t-119.5 45q-70 0 -107 -37h-2q14 58 67 91q45 32 140 32q14 0 21 -1zM500 204q-39 0 -58 31t-19 73q0 19 6 31q23 32 68 32q35 0 54.5 -23.5t19.5 -56.5q0 -37 -19 -62t-52 -25z" />
    <glyph glyph-name="Japan1.8292" 
d="M500 848q194 0 331 -137.5t137 -330.5q0 -95 -37 -181.5t-100 -149.5t-149.5 -100t-181.5 -37t-181.5 37t-149.5 100t-100 149.5t-37 181.5t37 181.5t100 149.5t149.5 100t181.5 37zM701 639h-382v-106h245v-2l-221 -414h138l220 440v82z" />
    <glyph glyph-name="Japan1.8293" 
d="M500 848q194 0 331 -137.5t137 -330.5q0 -95 -37 -181.5t-100 -149.5t-149.5 -100t-181.5 -37t-181.5 37t-149.5 100t-100 149.5t-37 181.5t37 181.5t100 149.5t149.5 100t181.5 37zM607 398v1q38 18 57.5 49t19.5 66q0 54 -45.5 94.5t-134.5 40.5q-84 0 -137.5 -41.5
t-53.5 -106.5q0 -77 77 -115v-2q-94 -38 -94 -129q0 -59 51.5 -102.5t148.5 -43.5q94 0 151.5 44t57.5 116q0 48 -28 80.5t-70 48.5zM500 562q34 0 49.5 -19t15.5 -43q0 -23 -16 -40.5t-37 -22.5q-75 20 -75 67q0 25 16.5 41.5t46.5 16.5zM502 197q-32 0 -53 21.5t-21 49.5
q0 59 63 73q83 -21 83 -82q0 -26 -19 -44t-53 -18z" />
    <glyph glyph-name="Japan1.8294" 
d="M500 848q194 0 331 -137.5t137 -330.5q0 -95 -37 -181.5t-100 -149.5t-149.5 -100t-181.5 -37t-181.5 37t-149.5 100t-100 149.5t-37 181.5t37 181.5t100 149.5t149.5 100t181.5 37zM349 211v-100q11 -1 39 -1q153 0 237 82.5t84 230.5q0 98 -52.5 162t-152.5 64
q-88 0 -146 -55t-58 -134q0 -74 48.5 -119t119.5 -45q70 0 107 37h2q-14 -58 -67 -91q-45 -32 -140 -32q-14 0 -21 1zM499 554q43 0 60.5 -32.5t17.5 -71.5q0 -19 -6 -31q-23 -32 -68 -32q-35 0 -54.5 23.5t-19.5 56.5q0 38 19.5 62.5t50.5 24.5z" />
    <glyph glyph-name="Japan1.8295" 
d="M494 -5h-109l-68 167q-49 114 -63 155h-1q-14 -40 -57 -154l-63 -168h-107l173 394l-162 383h109l69 -180q29 -76 46 -126h1q25 78 42 126l66 180h111l-166 -376zM518 772h88v-777h-88v777zM681 772h88v-777h-88v777zM844 772h88v-777h-88v777z" />
    <glyph glyph-name="Japan1.8296" 
d="M444 -5h-102l-58 163q-37 97 -54 153h-1q-18 -62 -49 -152l-53 -164h-101l152 394l-142 383h98l61 -176q30 -88 41 -124h1q14 52 37 124l58 176h100l-145 -374zM453 772h89v-777h-89v777zM820 -5h-102l-163 777h102l70 -374q23 -122 44 -260h1q22 151 40 259l62 375h100z
" />
    <glyph glyph-name="Japan1.8297" 
d="M786 398l74 374h111l-180 -777h-116l-187 768l-160 -365l178 -403h-120l-64 163q-48 115 -61 152h-1q-25 -73 -55 -151l-60 -164h-116l172 394l-161 383h118l67 -176q27 -75 43 -124h2q15 56 40 123l63 177h227l82 -373q34 -159 53 -263h2q30 167 49 262z" />
    <glyph glyph-name="Japan1.8298" 
d="M781 654q-32 0 -51 21t-19 50t20 50t51 21t50.5 -20.5t19.5 -50.5q0 -29 -20 -50t-51 -21zM136 557h125l73 -116q26 -41 56 -95h4q37 70 55 99l70 112h118l-182 -268l192 -294h-125l-77 120l-62 105h-3q-29 -53 -59 -102l-78 -123h-121l197 289zM837 -5h-111v562h111
v-562z" />
    <glyph glyph-name="Japan1.8299" 
d="M650 661q-31 0 -49.5 20t-18.5 47q0 29 19 48.5t48 19.5t48.5 -20t19.5 -48t-19 -47.5t-48 -19.5zM852 661q-32 0 -50 20t-18 47q0 29 18.5 48.5t48.5 19.5q29 0 48.5 -20t19.5 -48t-19 -47.5t-48 -19.5zM74 557h125l68 -116l53 -95h3q48 91 53 99l66 112h118l-175 -268
l184 -294h-125l-72 120l-59 105h-2l-57 -102l-75 -123h-119l189 289zM703 -5h-106v562h106v-562zM905 -5h-106v562h106v-562z" />
    <glyph glyph-name="Japan1.8300" 
d="M564 666q-28 0 -43.5 19.5t-15.5 45.5q0 27 16 46t41 19q26 0 42 -19t16 -46t-15.5 -46t-40.5 -19zM721 666q-28 0 -43.5 19.5t-15.5 45.5q0 27 16 46t41 19q26 0 42 -19t16 -46t-15.5 -46t-40.5 -19zM877 666q-27 0 -42.5 19t-15.5 46t16 46t41 19t41.5 -19t16.5 -46
t-16 -46t-41 -19zM55 557h115l62 -114q31 -65 47 -94h2l47 97l60 111h108l-158 -268l166 -294h-114l-65 119q-37 69 -52 103h-3l-51 -100l-68 -122h-108l171 289zM607 -5h-88v562h88v-562zM764 -5h-88v562h88v-562zM921 -5h-88v562h88v-562z" />
    <glyph glyph-name="Japan1.8301" 
d="M500 666q-28 0 -43 19.5t-15 45.5q0 27 16 46t41 19t41.5 -19t16.5 -46t-15.5 -46t-41.5 -19zM37 557h108l51 -112q17 -35 39 -92h2l40 95l51 109h99l-136 -267l144 -295h-107l-55 116l-44 100h-2q-26 -65 -42 -98l-57 -118h-102l148 289zM544 -5h-89v562h89v-562z
M566 557h100l70 -281q20 -79 33 -140h2q16 72 33 140l71 281h99l-166 -562h-81z" />
    <glyph glyph-name="Japan1.8302" 
d="M768 276l83 281h112l-191 -562h-93l-180 546l-153 -251l171 -295h-122l-66 119q-37 69 -53 104h-3q-4 -9 -50 -101l-68 -122h-118l178 289l-165 273h123l62 -114l48 -95h3q43 89 48 98l59 111h217l80 -281q26 -92 38 -140h2q4 14 38 140z" />
    <glyph glyph-name="Japan1.9780" 
d="M218 376q-87 0 -136.5 59t-49.5 157t50 158t139 60q90 0 138.5 -58t48.5 -156t-47 -159t-143 -61zM218 445q49 0 71.5 41.5t22.5 107.5q0 146 -93 146q-42 0 -67 -38t-25 -108q0 -72 24.5 -110.5t66.5 -38.5zM802 810l-534 -860h-71l534 860h71zM852 178v-1
q50 -2 83 -29.5t33 -70.5q0 -59 -54.5 -93t-150.5 -34q-100 0 -158 34l22 70q60 -30 134 -30q107 0 107 57q0 30 -31 46.5t-86 16.5h-58v68h58q40 0 71 13t31 38q0 20 -22 33.5t-66 13.5q-58 0 -120 -31l-24 68q64 37 163 37q78 0 121.5 -30.5t43.5 -76.5q0 -74 -97 -99z
" />
    <glyph glyph-name="Japan1.9781" 
d="M204 378v347h-2l-97 -42l-17 69l129 55h77v-429h-90zM802 810l-534 -860h-71l534 860h71zM605 -16l22 70q60 -30 134 -30q107 0 107 57q0 30 -31 46.5t-86 16.5h-58v68h58q40 0 71 13t31 38q0 20 -22 33.5t-66 13.5q-58 0 -120 -31l-24 68q64 37 163 37q78 0 121.5 -30.5
t43.5 -76.5q0 -74 -97 -99v-1q50 -2 83 -29.5t33 -70.5q0 -59 -54.5 -93t-150.5 -34q-100 0 -158 34z" />
    <glyph glyph-name="Japan1.9782" 
d="M387 384h-354v53l62 45q109 78 147.5 115t38.5 70q0 30 -21 49t-65 19q-63 0 -115 -46l-35 64q65 57 169 57q75 0 118.5 -36.5t43.5 -96.5q0 -48 -35 -89t-113 -96l-42 -30v-1h201v-77zM802 810l-534 -860h-71l534 860h71zM605 -16l22 70q60 -30 134 -30q107 0 107 57
q0 30 -31 46.5t-86 16.5h-58v68h58q40 0 71 13t31 38q0 20 -22 33.5t-66 13.5q-58 0 -120 -31l-24 68q64 37 163 37q78 0 121.5 -30.5t43.5 -76.5q0 -74 -97 -99v-1q50 -2 83 -29.5t33 -70.5q0 -59 -54.5 -93t-150.5 -34q-100 0 -158 34z" />
    <glyph glyph-name="Japan1.9783" 
d="M904 -48h-92v107h-232v61l197 259h127v-251h64v-69h-64v-107zM671 128h141v111q0 25 2 83h-2q-12 -18 -69 -96l-72 -95v-3zM32 411l22 69q64 -29 134 -29q55 0 81 15.5t26 39.5q0 60 -117 60h-58v69h58q39 -1 70.5 12.5t31.5 39.5q0 49 -88 49q-63 0 -120 -31l-24 68
q60 37 163 37q78 0 121.5 -31t43.5 -78q0 -78 -97 -100v-2q51 -2 83.5 -29t32.5 -70q0 -58 -54 -90.5t-151 -32.5q-100 0 -158 34zM802 810l-534 -860h-71l534 860h71z" />
    <glyph glyph-name="Japan1.9784" 
d="M204 378v347h-2l-97 -42l-17 69l129 55h77v-429h-90zM802 810l-534 -860h-71l534 860h71zM950 376v-77h-210l-13 -69q12 2 42 2q49 0 90.5 -10.5t75 -43t33.5 -83.5q0 -67 -53.5 -106t-153.5 -39q-88 0 -146 27l22 71q53 -24 122 -24q41 0 76 15.5t35 53.5q0 70 -149 70
q-40 0 -80 -7l33 220h276z" />
    <glyph glyph-name="Japan1.9785" 
d="M387 384h-354v53l62 45q109 78 147.5 115t38.5 70q0 30 -21 49t-65 19q-63 0 -115 -46l-35 64q65 57 169 57q75 0 118.5 -36.5t43.5 -96.5q0 -48 -35 -89t-113 -96l-42 -30v-1h201v-77zM802 810l-534 -860h-71l534 860h71zM950 376v-77h-210l-13 -69q12 2 42 2
q49 0 90.5 -10.5t75 -43t33.5 -83.5q0 -67 -53.5 -106t-153.5 -39q-88 0 -146 27l22 71q53 -24 122 -24q41 0 76 15.5t35 53.5q0 70 -149 70q-40 0 -80 -7l33 220h276z" />
    <glyph glyph-name="Japan1.9786" 
d="M32 411l23 71q67 -30 133 -30q54 0 80 15.5t26 39.5q0 59 -116 59h-58v69h58q39 0 69.5 13t30.5 39q0 48 -86 48q-59 0 -119 -30l-25 68q60 37 163 37q78 0 121.5 -31t43.5 -78q0 -36 -24.5 -62.5t-72.5 -36.5v-3q51 -2 83.5 -29t32.5 -70q0 -58 -54 -90.5t-151 -32.5
q-100 0 -158 34zM802 810l-534 -860h-71l534 860h71zM950 376v-77h-210l-13 -69q12 2 42 2q49 0 90.5 -10.5t75 -43t33.5 -83.5q0 -67 -53.5 -106t-153.5 -39q-88 0 -146 27l22 71q53 -24 122 -24q41 0 76 15.5t35 53.5q0 70 -149 70q-40 0 -80 -7l33 220h276z" />
    <glyph glyph-name="Japan1.9787" 
d="M355 376h-92v108h-231v61l196 258h127v-250h65v-69h-65v-108zM123 553h140v110q0 41 3 83h-3q-12 -18 -69 -96l-71 -95v-2zM802 810l-534 -860h-71l534 860h71zM950 376v-77h-210l-13 -69q12 2 42 2q49 0 90.5 -10.5t75 -43t33.5 -83.5q0 -67 -53.5 -106t-153.5 -39
q-88 0 -146 27l22 71q53 -24 122 -24q41 0 76 15.5t35 53.5q0 70 -149 70q-40 0 -80 -7l33 220h276z" />
    <glyph glyph-name="Japan1.9788" 
d="M912 382v-74q-12 2 -21 2q-7 0 -25 -2q-159 -10 -181 -106h1q45 38 119 38q69 0 116 -36.5t47 -103.5q0 -66 -52.5 -108t-132.5 -42q-93 0 -144 53t-51 133q0 54 22.5 102t61.5 80q70 57 198 63q22 3 42 1zM784 20q41 0 64.5 21t23.5 56q0 36 -26 55.5t-69 19.5
q-41 0 -68.5 -22t-27.5 -40q0 -37 27.5 -63.5t75.5 -26.5zM204 378v347h-2l-97 -42l-17 69l129 55h77v-429h-90zM802 810l-534 -860h-71l534 860h71z" />
    <glyph glyph-name="Japan1.9789" 
d="M912 382v-74q-12 2 -21 2q-7 0 -25 -2q-159 -10 -181 -106h1q45 38 119 38q69 0 116 -36.5t47 -103.5q0 -66 -52.5 -108t-132.5 -42q-93 0 -144 53t-51 133q0 54 22.5 102t61.5 80q70 57 198 63q22 3 42 1zM784 20q41 0 64.5 21t23.5 56q0 36 -26 55.5t-69 19.5
q-41 0 -68.5 -22t-27.5 -40q0 -37 27.5 -63.5t75.5 -26.5zM802 810l-534 -860h-71l534 860h71zM367 799v-76h-210l-14 -70q19 3 42 3q36 0 69.5 -7t64 -22t48.5 -43t18 -66q0 -67 -54 -106t-153 -39q-90 0 -146 28l21 71q48 -24 123 -24q46 0 78.5 16.5t32.5 49.5
q0 73 -150 73q-40 0 -80 -7l33 219h277z" />
    <glyph glyph-name="Japan1.9790" 
d="M204 378v347h-2l-97 -42l-17 69l129 55h77v-429h-90zM802 810l-534 -860h-71l534 860h71zM612 376h356v-58l-209 -366h-107l211 345v2h-251v77z" />
    <glyph glyph-name="Japan1.9791" 
d="M387 384h-354v53l62 45q109 78 147.5 115t38.5 70q0 30 -21 49t-65 19q-63 0 -115 -46l-35 64q65 57 169 57q75 0 118.5 -36.5t43.5 -96.5q0 -48 -35 -89t-113 -96l-42 -30v-1h201v-77zM802 810l-534 -860h-71l534 860h71zM612 376h356v-58l-209 -366h-107l211 345v2
h-251v77z" />
    <glyph glyph-name="Japan1.9792" 
d="M32 411l22 69q64 -29 134 -29q55 0 81 15.5t26 39.5q0 60 -117 60h-58v69h58q39 -1 70.5 12.5t31.5 39.5q0 49 -88 49q-63 0 -120 -31l-24 68q60 37 163 37q78 0 121.5 -31t43.5 -78q0 -78 -97 -100v-2q51 -2 83.5 -29t32.5 -70q0 -58 -54 -90.5t-151 -32.5
q-100 0 -158 34zM802 810l-534 -860h-71l534 860h71zM612 376h356v-58l-209 -366h-107l211 345v2h-251v77z" />
    <glyph glyph-name="Japan1.9793" 
d="M355 376h-92v108h-231v61l196 258h127v-250h65v-69h-65v-108zM123 553h140v110q0 41 3 83h-3q-12 -18 -69 -96l-71 -95v-2zM802 810l-534 -860h-71l534 860h71zM612 376h356v-58l-209 -366h-107l211 345v2h-251v77z" />
    <glyph glyph-name="Japan1.9794" 
d="M802 810l-534 -860h-71l534 860h71zM367 799v-76h-210l-14 -70q19 3 42 3q36 0 69.5 -7t64 -22t48.5 -43t18 -66q0 -67 -54 -106t-153 -39q-90 0 -146 28l21 71q48 -24 123 -24q46 0 78.5 16.5t32.5 49.5q0 73 -150 73q-40 0 -80 -7l33 219h277zM612 376h356v-58
l-209 -366h-107l211 345v2h-251v77z" />
    <glyph glyph-name="Japan1.9795" 
d="M355 808v-73q-23 2 -53.5 -1t-68.5 -12t-67.5 -33t-37.5 -60h2q43 38 119 38q69 0 116 -37t47 -104q0 -66 -52.5 -108t-132.5 -42q-93 0 -144 53t-51 133q0 115 84 182q68 57 197 63q22 3 42 1zM228 447q40 0 63.5 20.5t23.5 55.5q0 36 -26 55.5t-69 19.5q-42 0 -69 -22
t-27 -40q0 -36 27.5 -62.5t76.5 -26.5zM802 810l-534 -860h-71l534 860h71zM612 376h356v-58l-209 -366h-107l211 345v2h-251v77z" />
    <glyph glyph-name="Japan1.9796" 
d="M870 181v-2q44 -10 71 -36.5t27 -66.5q0 -55 -53 -90.5t-141 -35.5q-90 0 -139 35.5t-49 79.5q0 77 96 105v2q-77 26 -77 93q0 52 49.5 85t125.5 33q84 0 125.5 -33.5t41.5 -74.5q0 -31 -19.5 -57.5t-57.5 -36.5zM778 317q-41 0 -62 -14t-21 -35q0 -44 92 -58
q31 4 51 18.5t20 36.5q0 21 -20 36.5t-60 15.5zM778 18q43 0 67.5 14t24.5 35q0 55 -102 70q-39 -5 -60.5 -22.5t-21.5 -40.5t25.5 -39.5t66.5 -16.5zM802 810l-534 -860h-71l534 860h71zM204 378v347h-2l-97 -42l-17 69l129 55h77v-429h-90z" />
    <glyph glyph-name="Japan1.9797" 
d="M870 181v-2q44 -10 71 -36.5t27 -66.5q0 -55 -53 -90.5t-141 -35.5q-90 0 -139 35.5t-49 79.5q0 77 96 105v2q-77 26 -77 93q0 52 49.5 85t125.5 33q84 0 125.5 -33.5t41.5 -74.5q0 -31 -19.5 -57.5t-57.5 -36.5zM778 317q-41 0 -62 -14t-21 -35q0 -44 92 -58
q31 4 51 18.5t20 36.5q0 21 -20 36.5t-60 15.5zM778 18q43 0 67.5 14t24.5 35q0 55 -102 70q-39 -5 -60.5 -22.5t-21.5 -40.5t25.5 -39.5t66.5 -16.5zM279 601v-2q51 -2 83.5 -29t32.5 -70q0 -58 -54 -90.5t-151 -32.5q-100 0 -158 34l22 69q64 -29 134 -29q55 0 81 15.5
t26 39.5q0 60 -117 60h-58v69h58q39 -1 70.5 12.5t31.5 39.5q0 49 -88 49q-63 0 -120 -31l-24 68q60 37 163 37q78 0 121.5 -31t43.5 -78q0 -78 -97 -100zM802 810l-534 -860h-71l534 860h71z" />
    <glyph glyph-name="Japan1.9798" 
d="M870 181v-2q44 -10 71 -36.5t27 -66.5q0 -55 -53 -90.5t-141 -35.5q-90 0 -139 35.5t-49 79.5q0 77 96 105v2q-77 26 -77 93q0 52 49.5 85t125.5 33q84 0 125.5 -33.5t41.5 -74.5q0 -31 -19.5 -57.5t-57.5 -36.5zM778 317q-41 0 -62 -14t-21 -35q0 -44 92 -58
q31 4 51 18.5t20 36.5q0 21 -20 36.5t-60 15.5zM778 18q43 0 67.5 14t24.5 35q0 55 -102 70q-39 -5 -60.5 -22.5t-21.5 -40.5t25.5 -39.5t66.5 -16.5zM802 810l-534 -860h-71l534 860h71zM367 803v-76h-210l-14 -70q19 3 42 3q36 0 69.5 -7t64 -22t48.5 -43t18 -66
q0 -67 -54 -106t-153 -39q-90 0 -146 28l21 70q51 -23 123 -23q46 0 78.5 16.5t32.5 49.5q0 73 -150 73q-40 0 -80 -7l33 219h277z" />
    <glyph glyph-name="Japan1.9799" 
d="M870 181v-2q44 -10 71 -36.5t27 -66.5q0 -55 -53 -90.5t-141 -35.5q-90 0 -139 35.5t-49 79.5q0 77 96 105v2q-77 26 -77 93q0 52 49.5 85t125.5 33q84 0 125.5 -33.5t41.5 -74.5q0 -31 -19.5 -57.5t-57.5 -36.5zM778 317q-41 0 -62 -14t-21 -35q0 -44 92 -58
q31 4 51 18.5t20 36.5q0 21 -20 36.5t-60 15.5zM778 18q43 0 67.5 14t24.5 35q0 55 -102 70q-39 -5 -60.5 -22.5t-21.5 -40.5t25.5 -39.5t66.5 -16.5zM802 810l-534 -860h-71l534 860h71zM32 803h356v-58l-210 -366h-107l211 345v3h-250v76z" />
    <glyph glyph-name="Japan1.9800" 
d="M645 -49v73q23 -2 53.5 0.5t68.5 12t67.5 33.5t37.5 60h-2q-43 -38 -119 -38q-69 0 -115.5 37t-46.5 104q0 66 52.5 108t131.5 42q94 0 144.5 -53t50.5 -133q0 -115 -84 -182q-68 -57 -196 -63q-22 -3 -43 -1zM772 312q-39 0 -63 -21t-24 -55q0 -37 26 -56.5t69 -19.5
q41 0 68.5 22.5t27.5 40.5q0 37 -27 63t-77 26zM204 379v348h-2l-97 -43l-17 69l129 55h77v-429h-90zM802 810l-534 -860h-71l534 860h71z" />
    <glyph glyph-name="Japan1.9801" 
d="M645 -49v73q23 -2 53.5 0.5t68.5 12t67.5 33.5t37.5 60h-2q-43 -38 -119 -38q-69 0 -115.5 37t-46.5 104q0 66 52.5 108t131.5 42q94 0 144.5 -53t50.5 -133q0 -115 -84 -182q-68 -57 -196 -63q-22 -3 -43 -1zM772 312q-39 0 -63 -21t-24 -55q0 -37 26 -56.5t69 -19.5
q41 0 68.5 22.5t27.5 40.5q0 37 -27 63t-77 26zM387 384h-354v53l62 45q109 78 147.5 115t38.5 70q0 30 -21 49t-65 19q-63 0 -115 -46l-35 64q65 57 169 57q75 0 118.5 -36.5t43.5 -96.5q0 -48 -35 -89t-113 -96l-42 -30v-1h201v-77zM802 810l-534 -860h-71l534 860h71z
" />
    <glyph glyph-name="Japan1.9802" 
d="M355 376h-92v108h-231v61l196 258h127v-250h65v-69h-65v-108zM123 553h140v110q0 41 3 83h-3q-12 -18 -69 -96l-71 -95v-2zM645 -49v73q23 -2 53.5 0.5t68.5 12t67.5 33.5t37.5 60h-2q-43 -38 -119 -38q-69 0 -115.5 37t-46.5 104q0 66 52.5 108t131.5 42q94 0 144.5 -53
t50.5 -133q0 -115 -84 -182q-68 -57 -196 -63q-22 -3 -43 -1zM772 312q-39 0 -63 -21t-24 -55q0 -37 26 -56.5t69 -19.5q41 0 68.5 22.5t27.5 40.5q0 37 -27 63t-77 26zM802 810l-534 -860h-71l534 860h71z" />
    <glyph glyph-name="Japan1.9803" 
d="M645 -49v73q23 -2 53.5 0.5t68.5 12t67.5 33.5t37.5 60h-2q-43 -38 -119 -38q-69 0 -115.5 37t-46.5 104q0 66 52.5 108t131.5 42q94 0 144.5 -53t50.5 -133q0 -115 -84 -182q-68 -57 -196 -63q-22 -3 -43 -1zM772 312q-39 0 -63 -21t-24 -55q0 -37 26 -56.5t69 -19.5
q41 0 68.5 22.5t27.5 40.5q0 37 -27 63t-77 26zM802 810l-534 -860h-71l534 860h71zM367 799v-76h-210l-14 -70q19 3 42 3q36 0 69.5 -7t64 -22t48.5 -43t18 -66q0 -67 -54 -106t-153 -39q-90 0 -146 28l21 71q48 -24 123 -24q46 0 78.5 16.5t32.5 49.5q0 73 -150 73
q-40 0 -80 -7l33 219h277z" />
    <glyph glyph-name="Japan1.9804" 
d="M645 -49v73q23 -2 53.5 0.5t68.5 12t67.5 33.5t37.5 60h-2q-43 -38 -119 -38q-69 0 -115.5 37t-46.5 104q0 66 52.5 108t131.5 42q94 0 144.5 -53t50.5 -133q0 -115 -84 -182q-68 -57 -196 -63q-22 -3 -43 -1zM772 312q-39 0 -63 -21t-24 -55q0 -37 26 -56.5t69 -19.5
q41 0 68.5 22.5t27.5 40.5q0 37 -27 63t-77 26zM802 810l-534 -860h-71l534 860h71zM32 803h356v-58l-210 -366h-107l211 345v3h-250v76z" />
    <glyph glyph-name="Japan1.9805" 
d="M128 598v1q-78 26 -78 93q0 52 49.5 85t125.5 33q86 0 126.5 -33.5t40.5 -73.5q0 -32 -19.5 -58t-57.5 -37v-2q44 -10 71.5 -36.5t27.5 -65.5q0 -56 -53 -91.5t-141 -35.5q-90 0 -139 36t-49 80q0 76 96 105zM223 744q-41 0 -62 -14t-21 -35q0 -43 93 -58q31 4 50.5 19
t19.5 36t-20 36.5t-60 15.5zM223 445q43 0 68 13.5t25 35.5q0 54 -103 70q-39 -5 -60.5 -22t-21.5 -41q0 -23 25.5 -39.5t66.5 -16.5zM645 -49v73q23 -2 53.5 0.5t68.5 12t67.5 33.5t37.5 60h-2q-43 -38 -119 -38q-69 0 -115.5 37t-46.5 104q0 66 52.5 108t131.5 42
q94 0 144.5 -53t50.5 -133q0 -115 -84 -182q-68 -57 -196 -63q-22 -3 -43 -1zM772 312q-39 0 -63 -21t-24 -55q0 -37 26 -56.5t69 -19.5q41 0 68.5 22.5t27.5 40.5q0 37 -27 63t-77 26zM802 810l-534 -860h-71l534 860h71z" />
    <glyph glyph-name="Japan1.9806" 
d="M821 -50h-1q-70 0 -106.5 55.5t-38.5 160.5q0 104 38 160.5t110 56.5q145 0 145 -214q0 -219 -147 -219zM821 18q65 0 65 150q0 147 -64 147t-64 -147q0 -150 63 -150zM727 810l-535 -860h-71l535 860h71zM174 378v347h-2l-91 -42l-16 69l121 55h71v-429h-83zM544 -48
v346h-2l-48 -24l-17 70l81 37h66v-429h-80z" />
    <glyph glyph-name="Japan1.9807" 
d="M821 -50h-1q-70 0 -106.5 55.5t-38.5 160.5q0 104 38 160.5t110 56.5q145 0 145 -214q0 -219 -147 -219zM821 18q65 0 65 150q0 147 -64 147t-64 -147q0 -150 63 -150zM254 601v-2q45 -2 75 -29t30 -70q0 -58 -49 -90.5t-135 -32.5q-91 0 -143 34l21 69q58 -29 119 -29
q49 0 72.5 15.5t23.5 39.5q0 29 -28 44.5t-76 15.5h-52v69h52q34 -1 62 12.5t28 39.5q0 49 -78 49q-55 0 -107 -30l-23 67q56 37 147 37q70 0 109 -31t39 -78q0 -78 -87 -100zM727 810l-535 -860h-71l535 860h71zM544 -48v346h-2l-48 -24l-17 70l81 37h66v-429h-80z" />
    <glyph glyph-name="Japan1.9808" 
d="M821 -50h-1q-70 0 -106.5 55.5t-38.5 160.5q0 104 38 160.5t110 56.5q145 0 145 -214q0 -219 -147 -219zM821 18q65 0 65 150q0 147 -64 147t-64 -147q0 -150 63 -150zM727 810l-535 -860h-71l535 860h71zM32 803h322v-58l-189 -366h-98l190 345v3h-225v76zM544 -48v346
h-2l-48 -24l-17 70l81 37h66v-429h-80z" />
    <glyph glyph-name="Japan1.9809" 
d="M284 558h-2q-40 -38 -105 -38q-62 0 -103.5 36.5t-41.5 103.5q0 66 47 108t119 42q84 0 129.5 -53t45.5 -133q0 -115 -75 -182q-64 -57 -178 -63q-28 -2 -38 -1v74q6 -1 19 -1q15 0 22 1q143 10 161 106zM197 740q-36 0 -56.5 -21t-20.5 -56q0 -37 22.5 -56t61.5 -19
q37 0 61 23t24 39q0 37 -24.5 63.5t-67.5 26.5zM821 -50h-1q-70 0 -106.5 55.5t-38.5 160.5q0 104 38 160.5t110 56.5q145 0 145 -214q0 -219 -147 -219zM821 18q65 0 65 150q0 147 -64 147t-64 -147q0 -150 63 -150zM727 810l-535 -860h-71l535 860h71zM544 -48v346h-2
l-48 -24l-17 70l81 37h66v-429h-80z" />
    <glyph glyph-name="Japan1.9810" 
d="M175 379v348h-2l-91 -43l-17 69l122 55h71v-429h-83zM727 810l-535 -860h-71l535 860h71zM565 -48v346h-2l-48 -24l-17 70l81 37h66v-429h-80zM851 -48v346h-2l-48 -24l-17 70l80 37h67v-429h-80z" />
    <glyph glyph-name="Japan1.9811" 
d="M347 384h-314v53l56 45q96 77 130.5 114t34.5 71q0 68 -76 68q-55 0 -103 -46l-31 64q59 57 152 57q67 0 106 -36.5t39 -96.5q0 -48 -30.5 -88t-101.5 -97l-37 -30v-1h175v-77zM733 810l-534 -860h-72l535 860h71zM565 -48v346h-2l-48 -24l-17 70l81 37h66v-429h-80z
M851 -48v346h-2l-48 -24l-17 70l80 37h67v-429h-80z" />
    <glyph glyph-name="Japan1.9812" 
d="M32 411l21 69q58 -29 119 -29q49 0 72.5 15.5t23.5 39.5q0 29 -28 44.5t-76 15.5h-52v69h52q34 -1 62 12.5t28 39.5q0 49 -78 49q-55 0 -107 -30l-23 67q56 37 147 37q70 0 109 -31t39 -78q0 -78 -87 -100v-2q45 -2 75 -29t30 -70q0 -58 -49 -90.5t-135 -32.5
q-91 0 -143 34zM727 810l-535 -860h-71l535 860h71zM565 -48v346h-2l-48 -24l-17 70l81 37h66v-429h-80zM851 -48v346h-2l-48 -24l-17 70l80 37h67v-429h-80z" />
    <glyph glyph-name="Japan1.9813" 
d="M323 379h-85v107h-206v62l177 258h114v-251h58v-69h-58v-107zM115 555h123v111q0 36 3 80h-2q-10 -17 -60 -93l-64 -95v-3zM732 810l-534 -860h-71l534 860h71zM565 -48v346h-2l-48 -24l-17 70l81 37h66v-429h-80zM851 -48v346h-2l-48 -24l-17 70l80 37h67v-429h-80z" />
    <glyph glyph-name="Japan1.9814" 
d="M727 810l-535 -860h-71l535 860h71zM333 803v-76h-189l-12 -70q16 3 38 3q72 0 126 -33t54 -105q0 -67 -48.5 -106t-138.5 -39q-81 0 -131 28l19 70q46 -23 111 -23q19 0 37.5 3.5t39 20t20.5 44.5q0 71 -132 71q-37 0 -72 -7l29 219h249zM565 -48v346h-2l-48 -24l-17 70
l81 37h66v-429h-80zM851 -48v346h-2l-48 -24l-17 70l80 37h67v-429h-80z" />
    <glyph glyph-name="Japan1.9815" 
d="M323 809v-73q-21 2 -49 -1t-61.5 -12.5t-59 -33.5t-32.5 -59h1q40 38 106 38q61 0 103.5 -37t42.5 -104q0 -66 -47.5 -108t-119.5 -42q-84 0 -129.5 53t-45.5 133q0 115 75 182q63 57 178 63q18 3 38 1zM208 448q35 0 56 21t21 55q0 37 -23 56.5t-61 19.5t-61.5 -23.5
t-23.5 -39.5q0 -36 24.5 -62.5t67.5 -26.5zM727 810l-535 -860h-71l535 860h71zM565 -48v346h-2l-48 -24l-17 70l81 37h66v-429h-80zM851 -48v346h-2l-48 -24l-17 70l80 37h67v-429h-80z" />
    <glyph glyph-name="Japan1.9816" 
d="M727 810l-535 -860h-71l535 860h71zM32 803h322v-58l-189 -366h-98l190 345v3h-225v76zM565 -48v346h-2l-48 -24l-17 70l81 37h66v-429h-80zM851 -48v346h-2l-48 -24l-17 70l80 37h67v-429h-80z" />
    <glyph glyph-name="Japan1.9817" 
d="M287 608v-2q39 -10 63.5 -36.5t24.5 -65.5q0 -56 -47.5 -91.5t-126.5 -35.5q-81 0 -125 36t-44 80q0 76 86 105v1q-70 26 -70 93q0 52 45 85t113 33q76 0 113 -33t37 -74q0 -32 -17.5 -58t-51.5 -37zM204 744q-37 0 -55 -14t-18 -35q0 -42 81 -58q27 4 44.5 19t17.5 36
t-17.5 36.5t-52.5 15.5zM204 445q38 0 59.5 14t21.5 35q0 54 -90 70q-34 -5 -53 -22t-19 -41q0 -23 22.5 -39.5t58.5 -16.5zM729 810l-534 -860h-72l535 860h71zM565 -48v346h-2l-48 -24l-17 70l81 37h66v-429h-80zM851 -48v346h-2l-48 -24l-17 70l80 37h67v-429h-80z" />
    <glyph glyph-name="Japan1.9818" 
d="M82 378v74q6 -1 19 -1q15 0 22 1q143 10 161 106h-2q-40 -38 -105 -38q-62 0 -103.5 36.5t-41.5 103.5q0 66 47 108t119 42q84 0 129.5 -53t45.5 -133q0 -115 -75 -182q-64 -57 -178 -63q-28 -2 -38 -1zM197 740q-36 0 -56.5 -21t-20.5 -56q0 -37 22.5 -56t61.5 -19
q37 0 61 23t24 39q0 37 -24.5 63.5t-67.5 26.5zM727 810l-535 -860h-71l535 860h71zM565 -48v346h-2l-48 -24l-17 70l81 37h66v-429h-80zM851 -48v346h-2l-48 -24l-17 70l80 37h67v-429h-80z" />
    <glyph glyph-name="Japan1.9819" 
d="M344 377q-64 0 -97 55.5t-33 160.5q0 104 33.5 160.5t98.5 56.5q130 0 130 -214q0 -219 -132 -219zM344 445q49 0 49 150q0 147 -48 147t-48 -147q0 -150 47 -150zM802 810l-534 -860h-71l534 860h71zM96 379v346h-2l-48 -24l-17 71l80 36h67v-429h-80zM622 -48v346h-2
l-48 -24l-17 70l80 37h67v-429h-80zM863 -48v346h-2l-48 -24l-17 70l80 37h67v-429h-80z" />
    <glyph glyph-name="Japan1.9820" 
d="M174 378v347h-2l-91 -42l-16 69l121 55h71v-429h-83zM733 810l-534 -860h-72l535 860h71zM565 -48v346h-2l-48 -24l-17 70l81 37h66v-429h-80zM968 -48h-263v51l42 43q75 74 103 114.5t28 76.5q0 69 -59 69q-19 0 -38.5 -13.5t-32.5 -32.5l-30 63q49 57 126 57
q56 0 88.5 -36.5t32.5 -96.5q0 -49 -26 -91t-84 -95l-32 -30v-1h145v-78z" />
    <glyph glyph-name="Japan1.9821" 
d="M733 810l-534 -860h-72l535 860h71zM333 803v-76h-189l-12 -70q16 3 38 3q72 0 126 -33t54 -105q0 -67 -48.5 -106t-138.5 -39q-81 0 -131 28l19 70q46 -23 111 -23q19 0 37.5 3.5t39 20t20.5 44.5q0 71 -132 71q-37 0 -72 -7l29 219h249zM565 -48v346h-2l-48 -24l-17 70
l81 37h66v-429h-80zM968 -48h-263v51l42 43q75 74 103 114.5t28 76.5q0 69 -59 69q-19 0 -38.5 -13.5t-32.5 -32.5l-30 63q49 57 126 57q56 0 88.5 -36.5t32.5 -96.5q0 -49 -26 -91t-84 -95l-32 -30v-1h145v-78z" />
    <glyph glyph-name="Japan1.9822" 
d="M733 810l-534 -860h-72l535 860h71zM32 803h322v-58l-189 -366h-98l190 345v3h-225v76zM565 -48v346h-2l-48 -24l-17 70l81 37h66v-429h-80zM968 -48h-263v51l42 43q75 74 103 114.5t28 76.5q0 69 -59 69q-19 0 -38.5 -13.5t-32.5 -32.5l-30 63q49 57 126 57
q56 0 88.5 -36.5t32.5 -96.5q0 -49 -26 -91t-84 -95l-32 -30v-1h145v-78z" />
    <glyph glyph-name="Japan1.9823" 
d="M98 381v346h-2l-47 -24l-17 70l80 37h67v-429h-81zM785 810l-534 -860h-72l535 860h71zM329 381v346h-2l-48 -24l-17 70l80 37h67v-429h-80zM603 -48v346h-2l-48 -24l-17 70l80 37h67v-429h-80zM968 -48h-238v58l34 42q66 71 90 110.5t24 75.5q0 68 -53 68q-29 0 -58 -33
l-25 61q46 46 110 46q53 0 83 -35.5t30 -91.5q0 -51 -24 -95.5t-79 -96.5l-28 -30v-1h134v-78z" />
    <glyph glyph-name="Japan1.9824" 
d="M661 -50q-44 0 -67.5 49t-23.5 167q0 109 21.5 163t70.5 54t70.5 -52.5t21.5 -161.5t-20.5 -164t-72.5 -55zM662 18q16 0 23 31.5t7 118.5q0 82 -6 114.5t-24 32.5q-30 0 -30 -147q1 -84 7.5 -117t22.5 -33zM875 -50q-91 0 -91 216q0 109 22 163t71 54t70.5 -52.5
t21.5 -161.5q0 -108 -21 -163.5t-73 -55.5zM876 18q16 0 23 31.5t7 118.5q0 82 -6 114.5t-23 32.5q-16 0 -23 -33.5t-7 -113.5q0 -83 6.5 -116.5t22.5 -33.5zM647 810l-534 -860h-72l535 860h71zM125 381v347h-2l-61 -28l-17 69l94 41h67v-429h-81zM468 -48v346h-2l-47 -24
l-17 70l80 37h50v-429h-64z" />
    <glyph glyph-name="Japan1.9825" 
d="M499 463q-82 0 -127 53t-45 139q0 87 46 140t127 53q83 0 127.5 -51t44.5 -139q0 -87 -43 -141t-130 -54zM499 524q86 0 86 133q0 63 -22 96.5t-63 33.5q-38 0 -61.5 -34t-23.5 -96q0 -64 22.5 -98.5t61.5 -34.5zM948 401v-42h-896v42h896zM332 -58l22 62q52 -26 121 -26
q98 0 98 49q0 53 -106 53h-53v61h52q36 -1 64.5 11t28.5 36q0 43 -80 43q-62 0 -109 -27l-23 60q56 33 149 33q72 0 111.5 -27.5t39.5 -69.5q0 -70 -89 -89v-2q47 -2 77 -26t30 -62q0 -51 -50 -80t-138 -29q-94 0 -145 30z" />
    <glyph glyph-name="Japan1.9826" 
d="M468 464v313h-2l-88 -37l-16 58l119 49h71v-383h-84zM948 401v-42h-896v42h896zM662 -84h-325v46l57 41q100 73 134.5 105.5t34.5 61.5q0 60 -78 60q-53 0 -105 -42l-32 59q62 50 155 50q68 0 108 -32.5t40 -85.5q0 -43 -30.5 -78t-103.5 -89l-37 -25v-1h182v-70z" />
    <glyph glyph-name="Japan1.9827" 
d="M468 464v313h-2l-88 -37l-16 58l119 49h71v-383h-84zM948 401v-42h-896v42h896zM332 -58l22 62q52 -26 121 -26q98 0 98 49q0 53 -106 53h-53v61h52q36 -1 64.5 11t28.5 36q0 43 -80 43q-62 0 -109 -27l-23 60q56 33 149 33q72 0 111.5 -27.5t39.5 -69.5q0 -70 -89 -89
v-2q47 -2 77 -26t30 -62q0 -51 -50 -80t-138 -29q-94 0 -145 30z" />
    <glyph glyph-name="Japan1.9828" 
d="M662 468h-325v45l57 41q100 73 134.5 105.5t34.5 61.5q0 60 -78 60q-51 0 -105 -41l-32 58q62 50 155 50q68 0 108 -32t40 -86q0 -43 -30.5 -78t-103.5 -89l-37 -25v-1h182v-69zM948 401v-42h-896v42h896zM332 -58l22 62q52 -26 121 -26q98 0 98 49q0 53 -106 53h-53v61
h52q36 -1 64.5 11t28.5 36q0 43 -80 43q-62 0 -109 -27l-23 60q56 33 149 33q72 0 111.5 -27.5t39.5 -69.5q0 -70 -89 -89v-2q47 -2 77 -26t30 -62q0 -51 -50 -80t-138 -29q-94 0 -145 30z" />
    <glyph glyph-name="Japan1.9829" 
d="M617 -87h-85v94h-212v55l180 229h117v-221h59v-63h-59v-94zM406 70h126v91q0 28 2 78h-2q-1 -1 -62 -84l-64 -83v-2zM468 464v313h-2l-88 -37l-16 58l119 49h71v-383h-84zM948 401v-42h-896v42h896z" />
    <glyph glyph-name="Japan1.9830" 
d="M335 493l23 62q55 -26 120 -26q98 0 98 49q0 53 -106 53h-53v61h52q36 0 64.5 12t28.5 35q0 43 -80 43q-62 0 -109 -27l-23 60q56 33 149 33q72 0 112 -27t40 -69q0 -32 -22.5 -56.5t-67.5 -33.5v-2q47 -2 77 -25.5t30 -61.5q0 -52 -49.5 -81t-137.5 -29q-95 0 -146 30z
M948 401v-42h-896v42h896zM617 -87h-85v94h-212v55l180 229h117v-221h59v-63h-59v-94zM406 70h126v91q0 28 2 78h-2q-1 -1 -62 -84l-64 -83v-2z" />
    <glyph glyph-name="Japan1.9831" 
d="M468 464v313h-2l-88 -37l-16 58l119 49h71v-383h-84zM948 401v-42h-896v42h896zM644 290v-68h-192l-12 -61q16 3 38 3q76 0 129.5 -29.5t53.5 -94.5q0 -59 -49 -93.5t-140 -34.5q-88 0 -134 24l20 63q44 -20 112 -20q21 0 40.5 3.5t39.5 18.5t20 39q0 61 -135 61
q-32 0 -74 -6l30 195h253z" />
    <glyph glyph-name="Japan1.9832" 
d="M662 468h-325v45l57 41q100 73 134.5 105.5t34.5 61.5q0 60 -78 60q-51 0 -105 -41l-32 58q62 50 155 50q68 0 108 -32t40 -86q0 -43 -30.5 -78t-103.5 -89l-37 -25v-1h182v-69zM948 401v-42h-896v42h896zM644 290v-68h-192l-12 -61q16 3 38 3q76 0 129.5 -29.5
t53.5 -94.5q0 -59 -49 -93.5t-140 -34.5q-88 0 -134 24l20 63q44 -20 112 -20q21 0 40.5 3.5t39.5 18.5t20 39q0 61 -135 61q-32 0 -74 -6l30 195h253z" />
    <glyph glyph-name="Japan1.9833" 
d="M335 493l23 62q55 -26 120 -26q98 0 98 49q0 53 -106 53h-53v61h52q36 0 64.5 12t28.5 35q0 43 -80 43q-62 0 -109 -27l-23 60q56 33 149 33q72 0 112 -27t40 -69q0 -32 -22.5 -56.5t-67.5 -33.5v-2q47 -2 77 -25.5t30 -61.5q0 -52 -49.5 -81t-137.5 -29q-95 0 -146 30z
M948 401v-42h-896v42h896zM644 290v-68h-192l-12 -61q16 3 38 3q76 0 129.5 -29.5t53.5 -94.5q0 -59 -49 -93.5t-140 -34.5q-88 0 -134 24l20 63q44 -20 112 -20q21 0 40.5 3.5t39.5 18.5t20 39q0 61 -135 61q-32 0 -74 -6l30 195h253z" />
    <glyph glyph-name="Japan1.9834" 
d="M617 464h-85v94h-212v55l180 229h117v-221h59v-63h-59v-94zM406 621h126v91q0 28 2 78h-2q-1 -1 -62 -84l-64 -83v-2zM948 401v-42h-896v42h896zM644 290v-68h-192l-12 -61q16 3 38 3q76 0 129.5 -29.5t53.5 -94.5q0 -59 -49 -93.5t-140 -34.5q-88 0 -134 24l20 63
q44 -20 112 -20q21 0 40.5 3.5t39.5 18.5t20 39q0 61 -135 61q-32 0 -74 -6l30 195h253z" />
    <glyph glyph-name="Japan1.9835" 
d="M623 297v-66h-28q-15 0 -35 -2.5t-53.5 -10.5t-59 -29.5t-32.5 -52.5h1q42 35 108 35q64 0 107 -33t43 -93q0 -59 -48.5 -96t-121.5 -37q-85 0 -131.5 46.5t-46.5 117.5q0 105 77 163q70 58 220 58zM948 401v-42h-896v42h896zM505 -25q37 0 58.5 18.5t21.5 49.5
q0 32 -24 49.5t-63 17.5q-35 0 -61 -18.5t-26 -37.5q0 -32 24.5 -55.5t69.5 -23.5zM468 464v313h-2l-88 -37l-16 58l119 49h71v-383h-84z" />
    <glyph glyph-name="Japan1.9836" 
d="M948 401v-42h-896v42h896zM623 297v-66h-28q-15 0 -35 -2.5t-53.5 -10.5t-59 -29.5t-32.5 -52.5h1q42 35 108 35q64 0 107 -33t43 -93q0 -59 -48.5 -96t-121.5 -37q-85 0 -131.5 46.5t-46.5 117.5q0 105 77 163q70 58 220 58zM644 841v-68h-192l-12 -61q16 3 38 3
q76 0 129.5 -29.5t53.5 -94.5q0 -59 -49 -93.5t-140 -34.5q-86 0 -134 25l20 62q44 -20 112 -20q21 0 40.5 3.5t39.5 18t20 39.5q0 61 -135 61q-32 0 -74 -6l30 195h253zM506 -25q35 0 57 18t22 50t-24 49.5t-63 17.5q-35 0 -61 -18.5t-26 -37.5q0 -31 24 -55t71 -24z" />
    <glyph glyph-name="Japan1.9837" 
d="M468 464v313h-2l-88 -37l-16 58l119 49h71v-383h-84zM948 401v-42h-896v42h896zM336 289h327v-51l-191 -326h-99l192 306v2h-229v69z" />
    <glyph glyph-name="Japan1.9838" 
d="M662 468h-325v45l57 41q100 73 134.5 105.5t34.5 61.5q0 60 -78 60q-51 0 -105 -41l-32 58q62 50 155 50q68 0 108 -32t40 -86q0 -43 -30.5 -78t-103.5 -89l-37 -25v-1h182v-69zM948 401v-42h-896v42h896zM336 289h327v-51l-191 -326h-99l192 306v2h-229v69z" />
    <glyph glyph-name="Japan1.9839" 
d="M335 493l23 62q55 -26 120 -26q98 0 98 49q0 53 -106 53h-53v61h52q36 0 64.5 12t28.5 35q0 43 -80 43q-62 0 -109 -27l-23 60q56 33 149 33q72 0 112 -27t40 -69q0 -32 -22.5 -56.5t-67.5 -33.5v-2q47 -2 77 -25.5t30 -61.5q0 -52 -49.5 -81t-137.5 -29q-95 0 -146 30z
M948 401v-42h-896v42h896zM336 289h327v-51l-191 -326h-99l192 306v2h-229v69z" />
    <glyph glyph-name="Japan1.9840" 
d="M617 464h-85v94h-212v55l180 229h117v-221h59v-63h-59v-94zM406 621h126v91q0 28 2 78h-2q-1 -1 -62 -84l-64 -83v-2zM948 401v-42h-896v42h896zM336 289h327v-51l-191 -326h-99l192 306v2h-229v69z" />
    <glyph glyph-name="Japan1.9841" 
d="M644 841v-68h-192l-12 -61q16 3 38 3q76 0 129.5 -29.5t53.5 -94.5q0 -59 -49 -93.5t-140 -34.5q-86 0 -134 25l20 62q44 -20 112 -20q21 0 40.5 3.5t39.5 18t20 39.5q0 61 -135 61q-32 0 -74 -6l30 195h253zM948 401v-42h-896v42h896zM336 289h327v-51l-191 -326h-99
l192 306v2h-229v69z" />
    <glyph glyph-name="Japan1.9842" 
d="M623 848v-66q-22 2 -50 -0.5t-62.5 -10.5t-61 -29.5t-34.5 -53.5h1q43 34 108 34q64 0 107 -33t43 -93q0 -58 -48.5 -95.5t-121.5 -37.5q-85 0 -131.5 46.5t-46.5 117.5q0 105 77 163q37 31 87.5 44.5t132.5 13.5zM505 526q37 0 58.5 18.5t21.5 49.5q0 33 -23.5 50
t-63.5 17q-35 0 -61 -18.5t-26 -37.5q0 -32 25 -55.5t69 -23.5zM948 401v-42h-896v42h896zM336 289h327v-51l-191 -326h-99l192 306v2h-229v69z" />
    <glyph glyph-name="Japan1.9843" 
d="M585 117v-1q40 -9 65 -32.5t25 -58.5q0 -50 -49 -81.5t-129 -31.5q-82 0 -127 31.5t-45 71.5q0 68 88 94v1q-71 22 -71 83q0 46 45.5 75t115.5 29q77 0 115 -29.5t38 -65.5q0 -28 -18 -52t-53 -33zM501 238q-38 0 -57 -12t-19 -30q0 -38 84 -52q64 9 64 48q0 19 -18 32.5
t-54 13.5zM500 -28q39 0 61.5 12.5t22.5 31.5q0 48 -93 62q-35 -4 -54.5 -19.5t-19.5 -36.5t23 -35.5t60 -14.5zM468 464v313h-2l-88 -37l-16 58l119 49h71v-383h-84zM948 401v-42h-896v42h896z" />
    <glyph glyph-name="Japan1.9844" 
d="M585 117v-1q40 -9 65 -32.5t25 -58.5q0 -50 -49 -81.5t-129 -31.5q-82 0 -127 31.5t-45 71.5q0 68 88 94v1q-71 22 -71 83q0 46 45.5 75t115.5 29q77 0 115 -29.5t38 -65.5q0 -28 -18 -52t-53 -33zM501 238q-38 0 -57 -12t-19 -30q0 -38 84 -52q64 9 64 48q0 19 -18 32.5
t-54 13.5zM500 -28q39 0 61.5 12.5t22.5 31.5q0 48 -93 62q-35 -4 -54.5 -19.5t-19.5 -36.5t23 -35.5t60 -14.5zM561 662v-2q47 -2 77 -25.5t30 -61.5q0 -52 -49.5 -81t-137.5 -29q-95 0 -146 30l23 62q55 -26 120 -26q98 0 98 49q0 53 -106 53h-53v61h52q36 0 64.5 12
t28.5 35q0 43 -80 43q-62 0 -109 -27l-23 60q56 33 149 33q72 0 112 -27t40 -69q0 -32 -22.5 -56.5t-67.5 -33.5zM948 401v-42h-896v42h896z" />
    <glyph glyph-name="Japan1.9845" 
d="M585 117v-1q40 -9 65 -32.5t25 -58.5q0 -50 -49 -81.5t-129 -31.5q-82 0 -127 31.5t-45 71.5q0 68 88 94v1q-71 22 -71 83q0 46 45.5 75t115.5 29q77 0 115 -29.5t38 -65.5q0 -28 -18 -52t-53 -33zM501 238q-38 0 -57 -12t-19 -30q0 -38 84 -52q64 9 64 48q0 19 -18 32.5
t-54 13.5zM500 -28q39 0 61.5 12.5t22.5 31.5q0 48 -93 62q-35 -4 -54.5 -19.5t-19.5 -36.5t23 -35.5t60 -14.5zM644 841v-68h-192l-12 -61q16 3 38 3q76 0 129.5 -29.5t53.5 -94.5q0 -59 -49 -93.5t-140 -34.5q-86 0 -134 25l20 62q44 -20 112 -20q21 0 40.5 3.5t39.5 18
t20 39.5q0 61 -135 61q-32 0 -74 -6l30 195h253zM948 401v-42h-896v42h896z" />
    <glyph glyph-name="Japan1.9846" 
d="M585 117v-1q40 -9 65 -32.5t25 -58.5q0 -50 -49 -81.5t-129 -31.5q-82 0 -127 31.5t-45 71.5q0 68 88 94v1q-71 22 -71 83q0 46 45.5 75t115.5 29q77 0 115 -29.5t38 -65.5q0 -28 -18 -52t-53 -33zM501 238q-38 0 -57 -12t-19 -30q0 -38 84 -52q64 9 64 48q0 19 -18 32.5
t-54 13.5zM500 -28q39 0 61.5 12.5t22.5 31.5q0 48 -93 62q-35 -4 -54.5 -19.5t-19.5 -36.5t23 -35.5t60 -14.5zM336 841h327v-51l-191 -326h-99l192 307v2h-229v68zM948 401v-42h-896v42h896z" />
    <glyph glyph-name="Japan1.9847" 
d="M377 -88v66q21 -2 49.5 0.5t63 11t61 30t33.5 52.5h-1q-43 -34 -108 -34q-63 0 -106 33t-43 93q0 58 48 95.5t121 37.5q85 0 132 -46.5t47 -117.5q0 -104 -77 -163q-36 -31 -86 -44.5t-134 -13.5zM494 234q-37 0 -58 -18.5t-21 -49.5q0 -33 23.5 -50t63.5 -17q36 0 61 19
t25 37q0 32 -25 55.5t-69 23.5zM468 464v313h-2l-88 -37l-16 58l119 49h71v-383h-84zM948 401v-42h-896v42h896z" />
    <glyph glyph-name="Japan1.9848" 
d="M377 -88v66q21 -2 49.5 0.5t63 11t61 30t33.5 52.5h-1q-43 -34 -108 -34q-63 0 -106 33t-43 93q0 58 48 95.5t121 37.5q85 0 132 -46.5t47 -117.5q0 -104 -77 -163q-36 -31 -86 -44.5t-134 -13.5zM494 234q-37 0 -58 -18.5t-21 -49.5q0 -33 23.5 -50t63.5 -17q36 0 61 19
t25 37q0 32 -25 55.5t-69 23.5zM662 468h-325v45l57 41q100 73 134.5 105.5t34.5 61.5q0 60 -78 60q-51 0 -105 -41l-32 58q62 50 155 50q68 0 108 -32t40 -86q0 -43 -30.5 -78t-103.5 -89l-37 -25v-1h182v-69zM948 401v-42h-896v42h896z" />
    <glyph glyph-name="Japan1.9849" 
d="M617 464h-85v94h-212v55l180 229h117v-221h59v-63h-59v-94zM406 621h126v91q0 28 2 78h-2q-1 -1 -62 -84l-64 -83v-2zM377 -88v66q21 -2 49.5 0.5t63 11t61 30t33.5 52.5h-1q-43 -34 -108 -34q-63 0 -106 33t-43 93q0 58 48 95.5t121 37.5q85 0 132 -46.5t47 -117.5
q0 -104 -77 -163q-36 -31 -86 -44.5t-134 -13.5zM494 234q-37 0 -58 -18.5t-21 -49.5q0 -33 23.5 -50t63.5 -17q36 0 61 19t25 37q0 32 -25 55.5t-69 23.5zM948 401v-42h-896v42h896z" />
    <glyph glyph-name="Japan1.9850" 
d="M644 841v-68h-192l-12 -61q16 3 38 3q76 0 129.5 -29.5t53.5 -94.5q0 -59 -49 -93.5t-140 -34.5q-86 0 -134 25l20 62q44 -20 112 -20q21 0 40.5 3.5t39.5 18t20 39.5q0 61 -135 61q-32 0 -74 -6l30 195h253zM948 401v-42h-896v42h896zM377 -88v66q21 -2 49.5 0.5t63 11
t61 30t33.5 52.5h-1q-43 -34 -108 -34q-63 0 -106 33t-43 93q0 58 48 95.5t121 37.5q85 0 132 -46.5t47 -117.5q0 -104 -77 -163q-36 -31 -86 -44.5t-134 -13.5zM493 234q-34 0 -56 -18t-22 -50q0 -33 23.5 -50t63.5 -17q36 0 61 19t25 37q0 31 -24 55t-71 24z" />
    <glyph glyph-name="Japan1.9851" 
d="M377 -88v66q21 -2 49.5 0.5t63 11t61 30t33.5 52.5h-1q-43 -34 -108 -34q-63 0 -106 33t-43 93q0 58 48 95.5t121 37.5q85 0 132 -46.5t47 -117.5q0 -104 -77 -163q-36 -31 -86 -44.5t-134 -13.5zM494 234q-37 0 -58 -18.5t-21 -49.5q0 -33 23.5 -50t63.5 -17q36 0 61 19
t25 37q0 32 -25 55.5t-69 23.5zM336 841h327v-51l-191 -326h-99l192 307v2h-229v68zM948 401v-42h-896v42h896z" />
    <glyph glyph-name="Japan1.9852" 
d="M585 668v-1q40 -9 65 -32.5t25 -58.5q0 -50 -49 -81.5t-129 -31.5q-82 0 -127 32t-45 71q0 68 88 94v1q-71 22 -71 83q0 46 45.5 75t115.5 29q77 0 115 -29.5t38 -65.5q0 -28 -18 -52t-53 -33zM501 789q-38 0 -57 -12t-19 -30q0 -38 84 -52q64 9 64 48q0 19 -18 32.5
t-54 13.5zM500 524q40 0 62 12t22 31q0 48 -93 62q-35 -4 -54.5 -19.5t-19.5 -36.5q0 -20 23.5 -34.5t59.5 -14.5zM584 72h-1q-43 -34 -108 -34q-63 0 -106 33t-43 93q0 58 48 95.5t121 37.5q85 0 132 -46.5t47 -117.5q0 -104 -77 -163q-36 -31 -86 -44.5t-134 -13.5v66
q21 -2 49.5 0.5t63 11t61 30t33.5 52.5zM494 234q-37 0 -58 -18.5t-21 -49.5q0 -33 23.5 -50t63.5 -17q36 0 61 19t25 37q0 32 -25 55.5t-69 23.5zM948 401v-42h-896v42h896z" />
    <glyph glyph-name="Japan1.9853" 
d="M604 -88q-80 0 -125.5 52t-45.5 140q0 87 46 140t127 53q82 0 127 -51.5t45 -138.5t-43.5 -141t-130.5 -54zM604 -27q87 0 87 133q0 63 -22 96.5t-63 33.5q-39 0 -62.5 -34t-23.5 -96q0 -64 22.5 -98.5t61.5 -34.5zM468 464v313h-2l-88 -37l-16 58l119 49h71v-383h-84z
M948 401v-42h-896v42h896zM297 -87v313h-2l-88 -37l-16 58l119 49h71v-383h-84z" />
    <glyph glyph-name="Japan1.9854" 
d="M561 662v-2q47 -2 77 -25.5t30 -61.5q0 -52 -49.5 -81t-137.5 -29q-95 0 -146 30l23 62q55 -26 120 -26q98 0 98 49q0 53 -106 53h-53v61h52q36 0 64.5 12t28.5 35q0 43 -80 43q-62 0 -109 -27l-23 60q56 33 149 33q72 0 112 -27t40 -69q0 -32 -22.5 -56.5t-67.5 -33.5z
M948 401v-42h-896v42h896zM604 -88q-80 0 -125.5 52t-45.5 140q0 87 46 140t127 53q82 0 127 -51.5t45 -138.5t-43.5 -141t-130.5 -54zM604 -27q87 0 87 133q0 63 -22 96.5t-63 33.5q-39 0 -62.5 -34t-23.5 -96q0 -64 22.5 -98.5t61.5 -34.5zM297 -87v313h-2l-88 -37l-16 58
l119 49h71v-383h-84z" />
    <glyph glyph-name="Japan1.9855" 
d="M604 -88q-80 0 -125.5 52t-45.5 140q0 87 46 140t127 53q82 0 127 -51.5t45 -138.5t-43.5 -141t-130.5 -54zM604 -27q87 0 87 133q0 63 -22 96.5t-63 33.5q-39 0 -62.5 -34t-23.5 -96q0 -64 22.5 -98.5t61.5 -34.5zM336 841h327v-51l-191 -326h-99l192 307v2h-229v68z
M948 401v-42h-896v42h896zM297 -87v313h-2l-88 -37l-16 58l119 49h71v-383h-84z" />
    <glyph glyph-name="Japan1.9856" 
d="M584 624h-1q-42 -35 -108 -35q-63 0 -106 33t-43 93q0 59 48 96t121 37q85 0 132 -47t47 -117q0 -104 -77 -163q-69 -58 -220 -58v66h27q18 0 39.5 3t53.5 11t56 29t31 52zM494 785q-37 0 -58 -18.5t-21 -49.5q0 -32 23.5 -49.5t63.5 -17.5q36 0 61 19t25 37
q0 32 -24.5 55.5t-69.5 23.5zM948 401v-42h-896v42h896zM604 -88q-80 0 -125.5 52t-45.5 140q0 87 46 140t127 53q82 0 127 -51.5t45 -138.5t-43.5 -141t-130.5 -54zM604 -27q87 0 87 133q0 63 -22 96.5t-63 33.5q-39 0 -62.5 -34t-23.5 -96q0 -64 22.5 -98.5t61.5 -34.5z
M297 -87v313h-2l-88 -37l-16 58l119 49h71v-383h-84z" />
    <glyph glyph-name="Japan1.9857" 
d="M468 464v313h-2l-88 -37l-16 58l119 49h71v-383h-84zM948 401v-42h-896v42h896zM305 -87v313h-2l-89 -37l-16 58l119 49h72v-383h-84zM659 -87v313h-2l-88 -37l-16 58l119 49h71v-383h-84z" />
    <glyph glyph-name="Japan1.9858" 
d="M662 468h-325v45l57 41q100 73 134.5 105.5t34.5 61.5q0 60 -78 60q-51 0 -105 -41l-32 58q62 50 155 50q68 0 108 -32t40 -86q0 -43 -30.5 -78t-103.5 -89l-37 -25v-1h182v-69zM948 401v-42h-896v42h896zM305 -87v313h-2l-89 -37l-16 58l119 49h72v-383h-84zM659 -87
v313h-2l-88 -37l-16 58l119 49h71v-383h-84z" />
    <glyph glyph-name="Japan1.9859" 
d="M335 493l23 62q55 -26 120 -26q98 0 98 49q0 53 -106 53h-53v61h52q36 0 64.5 12t28.5 35q0 43 -80 43q-62 0 -109 -27l-23 60q56 33 149 33q72 0 112 -27t40 -69q0 -32 -22.5 -56.5t-67.5 -33.5v-2q47 -2 77 -25.5t30 -61.5q0 -52 -49.5 -81t-137.5 -29q-95 0 -146 30z
M948 401v-42h-896v42h896zM305 -87v313h-2l-89 -37l-16 58l119 49h72v-383h-84zM659 -87v313h-2l-88 -37l-16 58l119 49h71v-383h-84z" />
    <glyph glyph-name="Japan1.9860" 
d="M617 464h-85v94h-212v55l180 229h117v-221h59v-63h-59v-94zM406 621h126v91q0 28 2 78h-2q-1 -1 -62 -84l-64 -83v-2zM948 401v-42h-896v42h896zM305 -87v313h-2l-89 -37l-16 58l119 49h72v-383h-84zM659 -87v313h-2l-88 -37l-16 58l119 49h71v-383h-84z" />
    <glyph glyph-name="Japan1.9861" 
d="M644 841v-68h-192l-12 -61q16 3 38 3q76 0 129.5 -29.5t53.5 -94.5q0 -59 -49 -93.5t-140 -34.5q-86 0 -134 25l20 62q44 -20 112 -20q21 0 40.5 3.5t39.5 18t20 39.5q0 61 -135 61q-32 0 -74 -6l30 195h253zM948 401v-42h-896v42h896zM305 -87v313h-2l-89 -37l-16 58
l119 49h72v-383h-84zM659 -87v313h-2l-88 -37l-16 58l119 49h71v-383h-84z" />
    <glyph glyph-name="Japan1.9862" 
d="M623 848v-66q-22 2 -50 -0.5t-62.5 -10.5t-61 -29.5t-34.5 -53.5h1q43 34 108 34q64 0 107 -33t43 -93q0 -58 -48.5 -95.5t-121.5 -37.5q-85 0 -131.5 46.5t-46.5 117.5q0 105 77 163q37 31 87.5 44.5t132.5 13.5zM505 526q37 0 58.5 18.5t21.5 49.5q0 33 -23.5 50
t-63.5 17q-35 0 -61 -18.5t-26 -37.5q0 -32 25 -55.5t69 -23.5zM948 401v-42h-896v42h896zM305 -87v313h-2l-89 -37l-16 58l119 49h72v-383h-84zM659 -87v313h-2l-88 -37l-16 58l119 49h71v-383h-84z" />
    <glyph glyph-name="Japan1.9863" 
d="M336 841h327v-51l-191 -326h-99l192 307v2h-229v68zM948 401v-42h-896v42h896zM305 -87v313h-2l-89 -37l-16 58l119 49h72v-383h-84zM659 -87v313h-2l-88 -37l-16 58l119 49h71v-383h-84z" />
    <glyph glyph-name="Japan1.9864" 
d="M585 668v-1q40 -9 65 -32.5t25 -58.5q0 -50 -49 -81.5t-129 -31.5q-82 0 -127 32t-45 71q0 68 88 94v1q-71 22 -71 83q0 46 45.5 75t115.5 29q77 0 115 -29.5t38 -65.5q0 -28 -18 -52t-53 -33zM501 789q-38 0 -57 -12t-19 -30q0 -38 84 -52q64 9 64 48q0 19 -18 32.5
t-54 13.5zM500 524q40 0 62 12t22 31q0 48 -93 62q-35 -4 -54.5 -19.5t-19.5 -36.5q0 -20 23.5 -34.5t59.5 -14.5zM948 401v-42h-896v42h896zM305 -87v313h-2l-89 -37l-16 58l119 49h72v-383h-84zM659 -87v313h-2l-88 -37l-16 58l119 49h71v-383h-84z" />
    <glyph glyph-name="Japan1.9865" 
d="M377 463v66h27q18 0 39.5 3t53.5 11t56 29t31 52h-1q-42 -35 -108 -35q-63 0 -106 33t-43 93q0 59 48 96t121 37q85 0 132 -47t47 -117q0 -104 -77 -163q-69 -58 -220 -58zM494 785q-37 0 -58 -18.5t-21 -49.5q0 -32 23.5 -49.5t63.5 -17.5q36 0 61 19t25 37
q0 32 -24.5 55.5t-69.5 23.5zM948 401v-42h-896v42h896zM305 -87v313h-2l-89 -37l-16 58l119 49h72v-383h-84zM659 -87v313h-2l-88 -37l-16 58l119 49h71v-383h-84z" />
    <glyph glyph-name="Japan1.9866" 
d="M604 463q-80 0 -125.5 52t-45.5 140q0 87 46 140t127 53q83 0 127.5 -51t44.5 -139q0 -87 -43.5 -141t-130.5 -54zM604 524q87 0 87 133q0 63 -22 96.5t-63 33.5q-39 0 -62.5 -34t-23.5 -96q0 -64 22.5 -98.5t61.5 -34.5zM297 464v313h-2l-88 -37l-16 58l119 49h71v-383
h-84zM948 401v-42h-896v42h896zM305 -87v313h-2l-89 -37l-16 58l119 49h72v-383h-84zM659 -87v313h-2l-88 -37l-16 58l119 49h71v-383h-84z" />
    <glyph glyph-name="Japan1.9867" 
d="M948 401v-42h-896v42h896zM786 -84h-325v46l58 41q99 72 133.5 104.5t34.5 62.5q0 60 -78 60q-54 0 -104 -42l-33 59q63 50 156 50q68 0 107.5 -32.5t39.5 -85.5q0 -43 -30 -78t-103 -89l-37 -25v-1h181v-70zM468 464v313h-2l-88 -37l-16 58l119 49h71v-383h-84zM312 -87
v313h-2l-89 -37l-16 58l119 49h72v-383h-84z" />
    <glyph glyph-name="Japan1.9868" 
d="M948 401v-42h-896v42h896zM644 841v-68h-192l-12 -61q16 3 38 3q76 0 129.5 -29.5t53.5 -94.5q0 -59 -49 -93.5t-140 -34.5q-86 0 -134 25l20 62q44 -20 112 -20q21 0 40.5 3.5t39.5 18t20 39.5q0 61 -135 61q-32 0 -74 -6l30 195h253zM786 -84h-325v46l58 41
q99 72 133.5 104.5t34.5 62.5q0 60 -78 60q-54 0 -104 -42l-33 59q63 50 156 50q68 0 107.5 -32.5t39.5 -85.5q0 -43 -30 -78t-103 -89l-37 -25v-1h181v-70zM312 -87v313h-2l-89 -37l-16 58l119 49h72v-383h-84z" />
    <glyph glyph-name="Japan1.9869" 
d="M948 401v-42h-896v42h896zM786 -84h-325v46l58 41q99 72 133.5 104.5t34.5 62.5q0 60 -78 60q-54 0 -104 -42l-33 59q63 50 156 50q68 0 107.5 -32.5t39.5 -85.5q0 -43 -30 -78t-103 -89l-37 -25v-1h181v-70zM336 841h327v-51l-191 -326h-99l192 307v2h-229v68zM312 -87
v313h-2l-89 -37l-16 58l119 49h72v-383h-84z" />
    <glyph glyph-name="Japan1.9870" 
d="M948 401v-42h-896v42h896zM786 -84h-325v46l58 41q99 72 133.5 104.5t34.5 62.5q0 60 -78 60q-54 0 -104 -42l-33 59q63 50 156 50q68 0 107.5 -32.5t39.5 -85.5q0 -43 -30 -78t-103 -89l-37 -25v-1h181v-70zM301 464v313h-2l-89 -37l-16 58l119 49h71v-383h-83zM655 464
v313h-2l-89 -37l-16 58l119 49h72v-383h-84zM312 -87v313h-2l-89 -37l-16 58l119 49h72v-383h-84z" />
    <glyph glyph-name="Japan1.9871" 
d="M455 -88q-128 0 -128 192q0 193 130 193q128 0 128 -190q0 -195 -130 -195zM455 -27q26 0 37.5 30.5t11.5 102.5q0 67 -10.5 98.5t-37.5 31.5q-48 0 -48 -130q0 -133 47 -133zM752 -88q-128 0 -128 192q0 193 130 193q128 0 128 -190q0 -195 -130 -195zM752 -27
q26 0 37.5 30.5t11.5 102.5q0 67 -10.5 98.5t-37.5 31.5q-48 0 -48 -130q0 -133 47 -133zM468 464v313h-2l-88 -37l-16 58l119 49h71v-383h-84zM948 401v-42h-896v42h896zM194 -87v313h-2l-72 -31l-17 58l103 43h66v-383h-78z" />
    <glyph glyph-name="Japan1.9872" 
d="M501 -11q-107 0 -163 106.5t-56 277.5q0 181 60.5 286.5t161.5 105.5q110 0 162 -104t52 -279q0 -193 -60 -293t-157 -100zM388 385v-25q0 -127 27.5 -203t85.5 -76q111 0 111 295q0 297 -110 297q-52 0 -83 -76t-31 -212z" />
    <glyph glyph-name="Japan1.9873" 
d="M502 -6v661h-2l-135 -76l-31 80l178 101h95v-766h-105z" />
    <glyph glyph-name="Japan1.9874" 
d="M710 0h-421v71l70 88q131 162 182 245t51 150q0 53 -27 86t-80 33q-72 0 -128 -78l-50 70q75 100 195 100q95 0 145 -56t50 -133q0 -99 -49.5 -182.5t-179.5 -240.5l-45 -55v-3h287v-95z" />
    <glyph glyph-name="Japan1.9875" 
d="M346 631l-31 75q81 59 173 59q98 0 148.5 -54t50.5 -131q0 -132 -129 -180v-2q70 -15 112.5 -64t42.5 -122q0 -94 -60.5 -158.5t-177.5 -64.5q-116 0 -188 65l37 80q65 -53 144 -53q71 0 105 40.5t34 95.5q0 67 -50 100t-136 33h-34v83h32q65 0 114 33t49 96
q0 49 -27.5 82t-81.5 33q-67 0 -127 -46z" />
    <glyph glyph-name="Japan1.9876" 
d="M652 -6h-95v181h-291v70l281 515h105v-497h82v-88h-82v-181zM362 263h195v248q0 29 5 119h-2q-37 -77 -55 -110l-143 -254v-3z" />
    <glyph glyph-name="Japan1.9877" 
d="M693 754v-95h-232l-26 -182q18 3 44 3q29 0 59 -8t59.5 -26t53 -44t38 -66t14.5 -87q0 -112 -71 -186t-183 -74q-93 0 -152 39l22 85q56 -35 126 -35q68 0 110.5 44t42.5 114q-1 80 -49.5 122t-134.5 42q-44 0 -77 -5l44 359h312z" />
    <glyph glyph-name="Japan1.9878" 
d="M653 765l6 -91q-39 -2 -68 -8q-79 -19 -130 -88.5t-65 -159.5h3q52 74 135 74t133.5 -66t50.5 -172q0 -68 -22.5 -126.5t-72 -98.5t-117.5 -40q-100 0 -162 83.5t-62 229.5q0 114 33 205t87 146t118.5 83.5t132.5 28.5zM507 69q50 0 78 51t28 133q-1 72 -31 115.5
t-81 43.5q-31 0 -59 -20.5t-44 -56.5q-9 -18 -9 -58q0 -91 30.5 -149.5t87.5 -58.5z" />
    <glyph glyph-name="Japan1.9879" 
d="M292 754h415v-74l-247 -686h-105l246 663v2h-309v95z" />
    <glyph glyph-name="Japan1.9880" 
d="M403 400v3q-54 28 -80.5 73t-26.5 92q0 88 60.5 142.5t152.5 54.5q87 0 142 -52.5t55 -130.5q0 -118 -112 -177v-3q134 -61 134 -195q0 -101 -66 -159.5t-164 -58.5q-100 0 -163 55.5t-63 148.5q0 140 131 207zM507 690q-53 0 -82 -34.5t-29 -80.5q0 -95 119 -135
q43 17 69 52t26 81q0 48 -25.5 82.5t-77.5 34.5zM501 65q57 0 90.5 38t33.5 95q0 115 -136 161q-53 -20 -83 -60.5t-30 -92.5q0 -59 32.5 -100t92.5 -41z" />
    <glyph glyph-name="Japan1.9881" 
d="M347 -11l-6 91q39 2 68 8q79 19 130 88.5t65 159.5h-3q-52 -74 -135 -74t-133.5 66t-50.5 172q0 68 22.5 126.5t72 98.5t117.5 40q100 0 162 -83.5t62 -229.5q0 -112 -33 -203t-86.5 -146.5t-118.5 -84.5t-133 -29zM493 685q-50 0 -78 -51t-28 -133q1 -72 31 -115.5
t81 -43.5q31 0 59 20.5t44 56.5q9 18 9 58q0 91 -30.5 149.5t-87.5 58.5z" />
    <glyph glyph-name="Japan1.9882" 
d="M680 765l38 -20l-47 -91q47 -100 47 -272q0 -193 -60 -293t-157 -100q-87 0 -142 73l-39 -74l-38 21l50 95q-50 101 -50 269q0 181 60.5 286.5t161.5 105.5q87 0 140 -68zM403 238l182 349q-27 86 -83 86q-53 0 -84 -77.5t-30 -216.5v-13q0 -68 15 -128zM500 81h1
q111 0 111 295q0 89 -15 141l-181 -348q27 -88 84 -88z" />
    <glyph glyph-name="Japan1.9883" 
d="M101 772h109v-777h-109v777zM330 772h109v-777h-109v777zM559 772h109v-777h-109v777zM789 772h109v-777h-109v777z" />
    <glyph glyph-name="Japan1.9884" 
d="M324 46q-150 0 -150 334q0 170 40 251.5t109 81.5q145 0 145 -334q0 -333 -144 -333zM322 133q9 0 16 4t15 19t13.5 41t9 72.5t3.5 110.5q0 246 -56 246q-60 0 -60 -246q0 -247 59 -247zM681 46h-2q-69 0 -108 81.5t-39 252.5q0 170 39.5 251.5t108.5 81.5
q146 0 146 -334q0 -333 -145 -333zM679 133q58 0 58 247q0 246 -57 246q-59 0 -59 -246q0 -247 58 -247zM202 848v-5q-108 -143 -108 -463t108 -463v-5h-63q-107 141 -107 468t107 468h63zM798 -88v5q108 143 108 463t-108 463v5h63q107 -141 107 -468t-107 -468h-63z" />
    <glyph glyph-name="Japan1.9885" 
d="M324 46q-150 0 -150 334q0 170 40 251.5t109 81.5q145 0 145 -334q0 -333 -144 -333zM322 133q9 0 16 4t15 19t13.5 41t9 72.5t3.5 110.5q0 246 -56 246q-60 0 -60 -246q0 -247 59 -247zM202 848v-5q-108 -143 -108 -463t108 -463v-5h-63q-107 141 -107 468t107 468h63z
M798 -88v5q108 143 108 463t-108 463v5h63q107 -141 107 -468t-107 -468h-63zM665 48v575h-2l-74 -42l-11 74l96 57h80v-664h-89z" />
    <glyph glyph-name="Japan1.9886" 
d="M324 46q-150 0 -150 334q0 170 40 251.5t109 81.5q145 0 145 -334q0 -333 -144 -333zM322 133q9 0 16 4t15 19t13.5 41t9 72.5t3.5 110.5q0 246 -56 246q-60 0 -60 -246q0 -247 59 -247zM202 848v-5q-108 -143 -108 -463t108 -463v-5h-63q-107 141 -107 468t107 468h63z
M798 -88v5q108 143 108 463t-108 463v5h63q107 -141 107 -468t-107 -468h-63zM806 55h-276v65l47 82q3 6 23.5 43l26.5 48.5l22.5 43.5t22.5 50l15 45.5t12.5 51.5t3.5 48q0 47 -19.5 74t-54.5 27t-67 -36l-22 73q18 18 47.5 30.5t60.5 12.5q72 0 111.5 -47t39.5 -129
q0 -59 -21.5 -122.5t-45 -106t-70.5 -116.5l-31 -50v-2h175v-85z" />
    </font>
</defs>
</svg>
