<?xml version="1.0" standalone="no"?>
<!DOCTYPE svg PUBLIC "-//W3C//DTD SVG 1.1//EN" "http://www.w3.org/Graphics/SVG/1.1/DTD/svg11.dtd" >
<svg>
<metadata>
Created by FontForge 20090622 at Wed Apr  4 12:35:53 2018
 By deploy user
</metadata>
<defs>
<font id="KozGoPro-ExtraLight-AlphaNum" horiz-adv-x="1000" vert-adv-y="1000" >
  <font-face 
    font-family="KozGoPro-ExtraLight-AlphaNum"
    font-weight="200"
    font-stretch="normal"
    units-per-em="1000"
    panose-1="2 0 3 3 0 0 0 0 0 0"
    ascent="800"
    descent="-200"
    bbox="18 -81 970 840"
    underline-thickness="50"
    underline-position="-100"
  />
<missing-glyph horiz-adv-x="364" 
d="M33 0v666h265v-666h-265zM66 33h199v600h-199v-600z" />
    <glyph glyph-name=".notdef" horiz-adv-x="364" 
d="M33 0v666h265v-666h-265zM66 33h199v600h-199v-600z" />
    <glyph glyph-name=".null" horiz-adv-x="0" vert-adv-y="0" 
 />
    <glyph glyph-name="nonmarkingreturn" horiz-adv-x="333" 
 />
    <glyph glyph-name="Japan1.7555" 
d="M960 380q0 -191 -135 -325.5t-325 -134.5t-325 135t-135 325t135 325t325 135t325 -135t135 -325zM500 814q-181 0 -307.5 -127.5t-126.5 -306.5q0 -180 127 -307t307 -127t307 127t127 307t-127 307t-307 127zM493 124v484h-2l-78 -46l-8 25l84 49h34v-512h-30z" />
    <glyph glyph-name="Japan1.7556" 
d="M960 380q0 -191 -135 -325.5t-325 -134.5t-325 135t-135 325t135 325t325 135t325 -135t135 -325zM500 814q-181 0 -307.5 -127.5t-126.5 -306.5q0 -180 127 -307t307 -127t307 127t127 307t-127 307t-307 127zM669 132h-338v19l49 42q153 134 197.5 187t44.5 106
q0 49 -30 86t-102 37q-71 0 -128 -51l-13 19q65 59 147 59q45 0 78 -15.5t49 -39t23 -44.5t7 -39q0 -68 -45 -123.5t-180 -174.5l-20 -18l-28 -23v-2h289v-25z" />
    <glyph glyph-name="Japan1.7557" 
d="M960 380q0 -191 -135 -325.5t-325 -134.5t-325 135t-135 325t135 325t325 135t325 -135t135 -325zM500 814q-181 0 -307.5 -127.5t-126.5 -306.5q0 -180 127 -307t307 -127t307 127t127 307t-127 307t-307 127zM337 163l14 25q20 -14 55.5 -26t73.5 -12q47 0 80 14t47 35
t19 37.5t5 30.5q0 63 -51.5 92.5t-127.5 29.5h-40v26h44q60 0 105 26t45 76q0 36 -26.5 64t-88.5 28q-68 0 -117 -40l-14 23q22 18 59 31t73 13q78 0 111.5 -35t33.5 -81q0 -39 -27 -69.5t-75 -46.5v-2q57 -10 92 -47t35 -84q0 -57 -47 -102t-142 -45q-85 0 -136 39z" />
    <glyph glyph-name="Japan1.7558" 
d="M960 380q0 -191 -135 -325.5t-325 -134.5t-325 135t-135 325t135 325t325 135t325 -135t135 -325zM500 814q-181 0 -307.5 -127.5t-126.5 -306.5q0 -180 127 -307t307 -127t307 127t127 307t-127 307t-307 127zM590 124h-31v146h-289v20l305 346h15v-341h87v-25h-87v-146
zM306 295h253v252l1 39l-2 1q-12 -17 -27 -34l-225 -256v-2z" />
    <glyph glyph-name="Japan1.7559" 
d="M960 380q0 -191 -135 -325.5t-325 -134.5t-325 135t-135 325t135 325t325 135t325 -135t135 -325zM500 814q-181 0 -307.5 -127.5t-126.5 -306.5q0 -180 127 -307t307 -127t307 127t127 307t-127 307t-307 127zM653 628v-25h-216l-25 -166q34 6 62 6q52 0 90.5 -14.5
t58.5 -38.5t29 -49t9 -52q0 -73 -53 -119t-127 -46q-83 0 -135 38l15 24q50 -35 124 -35q62 0 103.5 39t41.5 89q0 62 -38 99.5t-121 37.5q-24 0 -90 -9l30 221h242z" />
    <glyph glyph-name="Japan1.7560" 
d="M960 380q0 -191 -135 -325.5t-325 -134.5t-325 135t-135 325t135 325t325 135t325 -135t135 -325zM500 814q-181 0 -307.5 -127.5t-126.5 -306.5q0 -180 127 -307t307 -127t307 127t127 307t-127 307t-307 127zM624 637v-31q-6 1 -20 1q-109 0 -171 -60t-80 -166l3 2
q55 72 155 72q79 0 122 -47t43 -105q0 -70 -51.5 -124.5t-135.5 -54.5q-69 0 -118 50.5t-49 160.5q0 116 58 196t155 98q64 9 89 8zM501 151q65 0 104.5 47t39.5 105q0 51 -38 88t-97 37q-63 0 -110 -33.5t-47 -63.5q0 -75 35.5 -127.5t112.5 -52.5z" />
    <glyph glyph-name="Japan1.7561" 
d="M960 380q0 -191 -135 -325.5t-325 -134.5t-325 135t-135 325t135 325t325 135t325 -135t135 -325zM500 814q-181 0 -307.5 -127.5t-126.5 -306.5q0 -180 127 -307t307 -127t307 127t127 307t-127 307t-307 127zM336 628h327v-28l-268 -476h-29l268 477v2h-298v25z" />
    <glyph glyph-name="Japan1.7562" 
d="M438 394v3q-96 32 -96 110q0 55 46.5 92t117.5 37q67 0 110 -32.5t43 -87.5q0 -82 -102 -119v-3q122 -33 122 -126q0 -67 -54.5 -105.5t-123.5 -38.5q-73 0 -127 34.5t-54 102.5q0 93 118 133zM505 609q-62 0 -97 -29t-35 -71q0 -44 34.5 -69t105.5 -36q115 28 115 111
q0 34 -30 64t-93 30zM351 267v-7q0 -44 40 -76.5t107 -32.5q72 0 111.5 34t39.5 76q0 55 -40 83t-126 41q-132 -27 -132 -118zM960 380q0 -191 -135 -325.5t-325 -134.5t-325 135t-135 325t135 325t325 135t325 -135t135 -325zM500 814q-181 0 -307.5 -127.5t-126.5 -306.5
q0 -180 127 -307t307 -127t307 127t127 307t-127 307t-307 127z" />
    <glyph glyph-name="Japan1.7563" 
d="M960 380q0 -191 -135 -325.5t-325 -134.5t-325 135t-135 325t135 325t325 135t325 -135t135 -325zM500 814q-181 0 -307.5 -127.5t-126.5 -306.5q0 -180 127 -307t307 -127t307 127t127 307t-127 307t-307 127zM375 123v31q6 -1 19 -1q108 0 171.5 60t79.5 166l-3 -2
q-54 -72 -155 -72q-79 0 -122 47t-43 105q0 70 52 124.5t136 54.5q69 0 117.5 -50.5t48.5 -160.5q0 -121 -61.5 -200.5t-150.5 -93.5q-65 -9 -89 -8zM497 609q-66 0 -105 -47t-39 -105q0 -51 38 -88t97 -37q61 0 109 32t48 65q0 75 -35.5 127.5t-112.5 52.5z" />
    <glyph glyph-name="Japan1.7564" 
d="M960 379q0 -191 -135 -325.5t-325 -134.5q-125 0 -231 61.5t-167.5 167.5t-61.5 231t61.5 231t167.5 167.5t231 61.5t231 -61.5t167.5 -167.5t61.5 -231zM500 813q-181 0 -307.5 -127.5t-126.5 -306.5q0 -180 127 -307t307 -127t307 127t127 307t-127 307t-307 127z
M609 140q-57 0 -97.5 59t-41.5 178q0 120 44 180.5t106 60.5t100.5 -58t38.5 -174q0 -122 -40 -184t-110 -62zM612 164q60 0 87.5 61.5t27.5 156.5q0 97 -28 154.5t-85 57.5q-46 0 -79.5 -54.5t-33.5 -165.5q0 -95 30.5 -152.5t80.5 -57.5zM311 140v448h-1l-75 -44l-8 23
l86 51h28v-478h-30z" />
    <glyph glyph-name="Japan1.7565" 
d="M960 380q0 -191 -135 -325.5t-325 -134.5t-325 135t-135 325t135 325t325 135t325 -135t135 -325zM500 814q-181 0 -307.5 -127.5t-126.5 -306.5q0 -180 127 -307t307 -127t307 127t127 307t-127 307t-307 127zM322 141v448h-2l-74 -44l-8 23l85 51h29v-478h-30zM669 141
v448h-2l-75 -44l-7 23l85 51h29v-478h-30z" />
    <glyph glyph-name="Japan1.7566" 
d="M960 380q0 -191 -135 -325.5t-325 -134.5t-325 135t-135 325t135 325t325 135t325 -135t135 -325zM500 814q-181 0 -307.5 -127.5t-126.5 -306.5q0 -180 127 -307t307 -127t307 127t127 307t-127 307t-307 127zM311 141v448h-1l-75 -44l-8 23l86 51h28v-478h-30zM747 148
h-272v18l42 43l84.5 91t53.5 65t39 65t9 56q0 46 -24 76t-77 30t-98 -40l-13 21q51 46 117 46q65 0 95.5 -39t30.5 -87q0 -63 -41 -121.5t-143 -163.5l-32 -33v-2h229v-25z" />
    <glyph glyph-name="Japan1.7567" 
d="M960 380q0 -191 -135 -325.5t-325 -134.5t-325 135t-135 325t135 325t325 135t325 -135t135 -325zM500 814q-181 0 -307.5 -127.5t-126.5 -306.5q0 -180 127 -307t307 -127t307 127t127 307t-127 307t-307 127zM311 141v448h-1l-75 -44l-8 23l86 51h28v-478h-30zM471 172
l13 25q44 -29 105 -29q66 0 95.5 33t29.5 72q0 57 -41.5 84.5t-103.5 27.5h-31v27h32q48 0 86.5 25.5t38.5 71.5q0 36 -23 59.5t-72 23.5q-51 0 -95 -32l-14 23q46 36 111 36q63 0 93.5 -31.5t30.5 -75.5q0 -37 -23.5 -67t-67.5 -43v-1q48 -9 79 -42t31 -81q0 -57 -41.5 -97
t-120.5 -40q-71 0 -112 31z" />
    <glyph glyph-name="Japan1.7568" 
d="M960 380q0 -191 -135 -325.5t-325 -134.5t-325 135t-135 325t135 325t325 135t325 -135t135 -325zM500 814q-181 0 -307.5 -127.5t-126.5 -306.5q0 -180 127 -307t307 -127t307 127t127 307t-127 307t-307 127zM694 141h-29v137h-222v20l229 321h22v-316h71v-25h-71v-137
zM474 303h191v212q0 22 2 62l-2 1q-15 -27 -35 -57l-156 -216v-2zM311 141v448h-1l-75 -44l-8 23l86 51h28v-478h-30z" />
    <glyph glyph-name="Japan1.7569" 
d="M960 380q0 -191 -135 -325.5t-325 -134.5t-325 135t-135 325t135 325t325 135t325 -135t135 -325zM500 814q-181 0 -307.5 -127.5t-126.5 -306.5q0 -180 127 -307t307 -127t307 127t127 307t-127 307t-307 127zM311 141v448h-1l-75 -44l-8 23l86 51h28v-478h-30zM728 612
v-25h-172l-23 -152q33 3 41 3q67 0 112 -38t45 -105q0 -68 -44.5 -111t-108.5 -43q-66 0 -106 30l13 24q41 -27 95 -27q51 0 85.5 34.5t34.5 86.5q-1 56 -34 89t-98 33q-28 0 -66 -5l30 206h196z" />
    <glyph glyph-name="Japan1.7570" 
d="M960 380q0 -191 -135 -325.5t-325 -134.5t-325 135t-135 325t135 325t325 135t325 -135t135 -325zM500 814q-181 0 -307.5 -127.5t-126.5 -306.5q0 -180 127 -307t307 -127t307 127t127 307t-127 307t-307 127zM722 620v-31q-74 6 -136.5 -43t-77.5 -162l2 1
q44 58 118 58q62 0 96.5 -41t34.5 -99q0 -66 -40.5 -114t-105.5 -48q-60 0 -98.5 50.5t-38.5 141.5q0 125 64.5 206t181.5 81zM620 168q48 0 78 37t30 99q0 51 -29 81.5t-75 30.5q-50 0 -83.5 -28.5t-33.5 -52.5q0 -77 28.5 -122t84.5 -45zM311 141v448h-1l-75 -44l-8 23
l86 51h28v-478h-30z" />
    <glyph glyph-name="Japan1.7571" 
d="M960 380q0 -191 -135 -325.5t-325 -134.5t-325 135t-135 325t135 325t325 135t325 -135t135 -325zM500 814q-181 0 -307.5 -127.5t-126.5 -306.5q0 -180 127 -307t307 -127t307 127t127 307t-127 307t-307 127zM311 141v448h-1l-75 -44l-8 23l86 51h28v-478h-30zM487 612
h267v-22l-213 -449h-29l211 444v2h-236v25z" />
    <glyph glyph-name="Japan1.7572" 
d="M570 394l-1 2q-79 34 -79 105q0 51 37 84.5t92 33.5q57 0 89.5 -32.5t32.5 -77.5q0 -74 -83 -112v-3q99 -38 99 -123q0 -57 -42.5 -93.5t-100.5 -36.5q-61 0 -101.5 34.5t-40.5 87.5q0 88 98 131zM618 592q-47 0 -72 -25.5t-25 -61.5q0 -75 103 -101q86 31 86 102
q0 35 -23 60.5t-69 25.5zM503 271v-6q0 -41 30 -69t80 -28q51 0 82 27.5t31 71.5q0 48 -29.5 74t-91.5 44q-49 -14 -75.5 -44.5t-26.5 -69.5zM960 380q0 -191 -135 -325.5t-325 -134.5t-325 135t-135 325t135 325t325 135t325 -135t135 -325zM500 814q-181 0 -307.5 -127.5
t-126.5 -306.5q0 -180 127 -307t307 -127t307 127t127 307t-127 307t-307 127zM311 141v448h-1l-75 -44l-8 23l86 51h28v-478h-30z" />
    <glyph glyph-name="Japan1.7573" 
d="M960 380q0 -191 -135 -325.5t-325 -134.5t-325 135t-135 325t135 325t325 135t325 -135t135 -325zM500 814q-181 0 -307.5 -127.5t-126.5 -306.5q0 -180 127 -307t307 -127t307 127t127 307t-127 307t-307 127zM514 140v31q77 -6 138.5 44t76.5 161l-2 -1
q-46 -58 -119 -58q-62 0 -96.5 41t-34.5 99q0 66 40.5 114t105.5 48q60 0 98.5 -50.5t38.5 -141.5q0 -124 -64 -205.5t-182 -81.5zM617 592q-50 0 -79.5 -38t-29.5 -96q0 -52 29 -83t75 -31q52 0 84.5 29t32.5 52q0 77 -28.5 122t-83.5 45zM311 141v448h-1l-75 -44l-8 23
l86 51h28v-478h-30z" />
    <glyph glyph-name="Japan1.7574" 
d="M960 380q0 -191 -135 -325.5t-325 -134.5t-325 135t-135 325t135 325t325 135t325 -135t135 -325zM500 814q-181 0 -307.5 -127.5t-126.5 -306.5q0 -180 127 -307t307 -127t307 127t127 307t-127 307t-307 127zM671 141q-56 0 -89.5 64t-33.5 174q0 121 37.5 180.5
t94.5 59.5q54 0 88 -58.5t34 -177.5q0 -121 -35.5 -181.5t-95.5 -60.5zM674 166q35 0 57.5 33t30.5 78.5t8 103.5q0 95 -23.5 154t-71.5 59q-42 0 -68.5 -57t-26.5 -161q0 -93 25 -151.5t69 -58.5zM467 148h-240v18l40 46q45 54 63.5 78t45.5 64.5t37.5 72.5t10.5 64
q0 101 -86 101q-43 0 -83 -34l-12 21q42 40 100 40q55 0 83.5 -36.5t28.5 -87.5q0 -34 -10.5 -67t-35.5 -71.5t-45 -65.5t-60 -75l-34 -41v-2h197v-25z" />
    <glyph glyph-name="Japan1.7575" 
d="M482 768h35v-780h-35v780z" />
    <glyph glyph-name="Japan1.7576" 
d="M339 768h35v-780h-35v780zM626 768h35v-780h-35v780z" />
    <glyph glyph-name="Japan1.7577" 
d="M242 768h35v-780h-35v780zM482 768h35v-780h-35v780zM722 768h35v-780h-35v780z" />
    <glyph glyph-name="Japan1.7578" 
d="M165 768h35v-780h-35v780zM608 -12h-34l-261 780h37l148 -448l94 -291h2l106 290l169 449h38z" />
    <glyph glyph-name="Japan1.7579" 
d="M496 -12h-34l-281 780h37l160 -448l102 -293h2q40 109 116 292l183 449h38z" />
    <glyph glyph-name="Japan1.7580" 
d="M388 -12h-34l-261 780h37l148 -448l94 -291h1q40 115 107 290l169 449h38zM801 768h35v-780h-35v780z" />
    <glyph glyph-name="Japan1.7581" 
d="M367 -12h-34l-272 780h37l154 -449l97 -287h2l84 288l133 448h37zM680 768h35v-780h-35v780zM867 768h35v-780h-35v780z" />
    <glyph glyph-name="Japan1.7582" 
d="M311 -12h-34l-237 780h37l134 -449l82 -282h2q36 151 71 283l115 448h36zM573 768h35v-780h-35v780zM726 768h35v-780h-35v780zM880 768h35v-780h-35v780z" />
    <glyph glyph-name="Japan1.7583" 
d="M158 768h35v-780h-35v780zM880 -12h-42l-123 189l-51 79.5l-44.5 68t-26.5 42.5h-2l-113 -189l-116 -190h-41l254 403l-230 377h40l133 -219l81 -134h1l81 133l134 220h41l-241 -378z" />
    <glyph glyph-name="Japan1.7584" 
d="M815 -12h-43l-146 190l-137 191h-2l-129 -190l-137 -191h-41l290 403l-263 377h42l151 -220l95 -135h2l94 134l153 221h44l-275 -378z" />
    <glyph glyph-name="Japan1.8061" 
d="M501 -13q-113 0 -181.5 97.5t-68.5 294.5q0 186 75.5 282t173.5 96q112 0 180.5 -91.5t68.5 -285.5q0 -196 -69 -294.5t-179 -98.5zM497 17q58 0 101 30t67 82t35.5 113.5t11.5 132.5q0 157 -53 254.5t-159 97.5q-91 0 -151.5 -93.5t-60.5 -269.5q0 -153 56.5 -250
t152.5 -97zM931 -7q-28 0 -28 34t28 34q29 0 29 -34t-29 -34z" />
    <glyph glyph-name="Japan1.8062" 
d="M508 -13v729h-2l-143 -87l-15 25l164 103h31v-770h-35zM931 -7q-28 0 -28 34t28 34q29 0 29 -34t-29 -34z" />
    <glyph glyph-name="Japan1.8063" 
d="M322 622l-27 20q46 58 99.5 86.5t129.5 28.5q92 0 145.5 -56.5t53.5 -132.5q0 -26 -4.5 -51t-10 -45.5t-20 -45.5l-24 -42t-33.5 -44.5l-37 -42.5t-46 -47l-49 -47l-57.5 -53l-60.5 -56l-68 -62v-2h433v-30h-486v25l75 69q178 164 224 213q106 113 123 206q4 23 4 48
q0 71 -45.5 118.5t-120.5 47.5q-108 0 -198 -105zM931 -7q-28 0 -28 34t28 34q29 0 29 -34t-29 -34z" />
    <glyph glyph-name="Japan1.8064" 
d="M320 653l-21 24q33 34 89 57t115 23q98 0 147 -50.5t49 -120.5t-41 -119.5t-122 -67.5v-2q87 -12 141 -60.5t54 -139.5q0 -33 -12.5 -66.5t-39 -67.5t-78.5 -55t-122 -21q-127 0 -210 72l24 26q75 -68 192 -68q56 0 98.5 18t65.5 46.5t34 58.5t11 59q0 177 -256 177h-54
v30h55q91 0 158 48t67 127q0 62 -41.5 104t-119.5 42q-53 0 -103 -21.5t-80 -52.5zM931 -7q-28 0 -28 34t28 34q29 0 29 -34t-29 -34z" />
    <glyph glyph-name="Japan1.8065" 
d="M642 -13h-35v193h-386v23l397 554h24v-547h137v-30h-137v-193zM273 210h334v362q2 76 4 120h-4q-35 -59 -74 -111l-260 -368v-3zM931 -7q-28 0 -28 34t28 34q29 0 29 -34t-29 -34z" />
    <glyph glyph-name="Japan1.8066" 
d="M330 420l45 324h337v-30h-308l-37 -258q48 8 89 8q67 0 117 -17.5t77 -43t44 -59.5t21.5 -59.5t4.5 -50.5q0 -110 -72 -178.5t-193 -68.5q-51 0 -100.5 17t-75.5 38l21 29q77 -54 162 -54q96 0 158.5 56.5t62.5 154.5q0 96 -58.5 151t-171.5 55q-60 0 -123 -14zM931 -7
q-28 0 -28 34t28 34q29 0 29 -34t-29 -34z" />
    <glyph glyph-name="Japan1.8067" 
d="M297 367h2q31 50 86.5 82.5t124.5 32.5q100 0 164 -66.5t64 -174.5q0 -107 -61.5 -180.5t-170.5 -73.5q-108 0 -176 83t-68 224q0 89 25 168.5t73.5 144t126.5 105t177 45.5l2 -36q-104 0 -186 -52.5t-127 -131t-56 -170.5zM503 452q-86 0 -145 -57t-59 -98
q0 -133 56.5 -206.5t154.5 -73.5q86 0 138.5 58t52.5 162q0 105 -54.5 160t-143.5 55zM931 -7q-28 0 -28 34t28 34q29 0 29 -34t-29 -34z" />
    <glyph glyph-name="Japan1.8068" 
d="M272 744h462v-30l-342 -714h-41l342 711v3h-421v30zM931 -7q-28 0 -28 34t28 34q29 0 29 -34t-29 -34z" />
    <glyph glyph-name="Japan1.8069" 
d="M418 395v3q-140 50 -140 166q0 83 65.5 138t165.5 55q93 0 153 -50t60 -130q0 -126 -146 -181v-3q91 -27 134 -77.5t43 -114.5q0 -66 -38.5 -116t-95 -74t-118.5 -24q-103 0 -178.5 53t-75.5 150q0 68 43 121t128 84zM506 727q-93 0 -143 -45.5t-50 -106.5
q0 -69 47.5 -108.5t150.5 -58.5q79 18 127.5 62t48.5 109q0 56 -44.5 102t-136.5 46zM496 17q104 0 162 52t58 119q0 84 -55.5 127.5t-172.5 65.5q-97 -19 -150.5 -69t-53.5 -116q0 -73 56.5 -126t155.5 -53zM931 -7q-28 0 -28 34t28 34q29 0 29 -34t-29 -34z" />
    <glyph glyph-name="Japan1.8070" 
d="M703 377h-2q-31 -50 -86.5 -82.5t-124.5 -32.5q-100 0 -164 66.5t-64 174.5q0 107 61.5 180.5t170.5 73.5t176.5 -83.5t67.5 -223.5q0 -89 -25 -168.5t-73.5 -144t-126.5 -105t-177 -45.5l-2 36q104 0 186 52.5t127 131t56 170.5zM490 727q-86 0 -138.5 -58t-52.5 -162
q0 -105 54.5 -160t143.5 -55q87 0 145.5 57t58.5 98q0 133 -56.5 206.5t-154.5 73.5zM931 -7q-28 0 -28 34t28 34q29 0 29 -34t-29 -34z" />
    <glyph glyph-name="Japan1.8071" 
d="M170 840v-5q-102 -134 -102 -455q0 -322 102 -455v-5h-28q-102 140 -102 460t102 460h28zM830 -80v5q102 134 102 455q0 322 -102 455v5h28q102 -140 102 -460t-102 -460h-28zM502 27v656h-3l-109 -67l-10 27l124 78h30v-694h-32z" />
    <glyph glyph-name="Japan1.8072" 
d="M170 840v-5q-102 -134 -102 -455q0 -322 102 -455v-5h-28q-102 140 -102 460t102 460h28zM830 -80v5q102 134 102 455q0 322 -102 455v5h28q102 -140 102 -460t-102 -460h-28zM688 39h-379v20l62 66q74 78 115.5 125.5t79.5 101.5t53.5 98.5t15.5 91.5q0 71 -34 116
t-112 45q-71 0 -136 -57l-16 22q69 65 158 65t131.5 -55.5t42.5 -127.5q0 -66 -32 -134.5t-83 -132t-144 -161.5l-50 -52v-2h328v-29z" />
    <glyph glyph-name="Japan1.8073" 
d="M170 840v-5q-102 -134 -102 -455q0 -322 102 -455v-5h-28q-102 140 -102 460t102 460h28zM830 -80v5q102 134 102 455q0 322 -102 455v5h28q102 -140 102 -460t-102 -460h-28zM314 71l18 28q59 -42 142 -42q51 0 88 16.5t55.5 43t26.5 53.5t8 55q0 84 -60.5 127
t-146.5 42h-39v30h41q66 0 120.5 39t54.5 109q0 56 -32.5 93.5t-101.5 37.5q-67 0 -127 -48l-18 25q26 22 66 37.5t81 15.5q85 0 125.5 -46.5t40.5 -110.5q0 -54 -32 -97t-92 -66v-3q66 -13 110 -61t44 -121q0 -82 -57 -141.5t-164 -59.5q-89 0 -151 44z" />
    <glyph glyph-name="Japan1.8074" 
d="M615 27h-32v219h-311v21l323 466h20v-458h103v-29h-103v-219zM319 275h264v295q0 50 3 100h-2q-22 -40 -55 -90l-210 -303v-2zM170 840v-5q-102 -134 -102 -455q0 -322 102 -455v-5h-28q-102 140 -102 460t102 460h28zM830 -80v5q102 134 102 455q0 322 -102 455v5h28
q102 -140 102 -460t-102 -460h-28z" />
    <glyph glyph-name="Japan1.8075" 
d="M170 840v-5q-102 -134 -102 -455q0 -322 102 -455v-5h-28q-102 140 -102 460t102 460h28zM830 -80v5q102 134 102 455q0 322 -102 455v5h28q102 -140 102 -460t-102 -460h-28zM678 721v-29h-244l-36 -234q30 4 59 4q93 0 158 -56t65 -152q0 -100 -63 -163.5t-152 -63.5
q-90 0 -145 43l18 27q59 -40 132 -40q75 0 126 53t50 136q-1 85 -49.5 135.5t-142.5 50.5q-54 0 -91 -7l44 296h271z" />
    <glyph glyph-name="Japan1.8076" 
d="M646 733v-33q-120 7 -204.5 -79.5t-103.5 -239.5l2 1q68 88 173 88q86 0 134.5 -60t48.5 -145q0 -98 -56 -168t-146 -70q-83 0 -136.5 75t-53.5 207q0 80 18 148.5t45.5 113t63 78t67 50.5t60.5 24q52 12 88 10zM503 57q70 0 114.5 58t44.5 149q0 83 -42.5 130t-111.5 47
q-70 0 -120 -45t-50 -78q0 -123 42 -192t123 -69zM170 840v-5q-102 -134 -102 -455q0 -322 102 -455v-5h-28q-102 140 -102 460t102 460h28zM830 -80v5q102 134 102 455q0 322 -102 455v5h28q102 -140 102 -460t-102 -460h-28z" />
    <glyph glyph-name="Japan1.8077" 
d="M170 840v-5q-102 -134 -102 -455q0 -322 102 -455v-5h-28q-102 140 -102 460t102 460h28zM830 -80v5q102 134 102 455q0 322 -102 455v5h28q102 -140 102 -460t-102 -460h-28zM329 721h372v-25l-301 -669h-35l298 662v3h-334v29z" />
    <glyph glyph-name="Japan1.8078" 
d="M439 401v3q-60 26 -89 67t-29 89q0 75 53.5 124t132.5 49q80 0 127.5 -47t47.5 -115q0 -111 -123 -167v-4q148 -59 148 -182q0 -84 -62 -137.5t-145 -53.5q-87 0 -147 51t-60 129q0 130 146 194zM506 703q-71 0 -111 -39.5t-40 -95.5q-1 -63 40 -99.5t120 -55.5
q133 46 133 156q0 55 -35.5 94.5t-106.5 39.5zM327 216v-7q0 -64 47 -108t124 -44q81 0 128 43.5t47 110.5q0 73 -45.5 113t-140.5 67q-76 -22 -118 -68.5t-42 -106.5zM170 840v-5q-102 -134 -102 -455q0 -322 102 -455v-5h-28q-102 140 -102 460t102 460h28zM830 -80v5
q102 134 102 455q0 322 -102 455v5h28q102 -140 102 -460t-102 -460h-28z" />
    <glyph glyph-name="Japan1.8079" 
d="M354 27v33q120 -7 204.5 79.5t103.5 239.5l-2 -1q-68 -88 -173 -88q-86 0 -134.5 60t-48.5 145q0 98 56 168t146 70q83 0 136.5 -75t53.5 -207q0 -80 -18 -148.5t-45.5 -113t-63 -78t-67 -50.5t-60.5 -24q-52 -12 -88 -10zM497 703q-70 0 -114.5 -58t-44.5 -149
q0 -83 42.5 -130t111.5 -47q70 0 120 45t50 78q0 123 -42 192t-123 69zM170 840v-5q-102 -134 -102 -455q0 -322 102 -455v-5h-28q-102 140 -102 460t102 460h28zM830 -80v5q102 134 102 455q0 322 -102 455v5h28q102 -140 102 -460t-102 -460h-28z" />
    <glyph glyph-name="Japan1.8080" 
d="M636 715q62 0 104 -82.5t42 -251.5q0 -172 -43.5 -254t-115.5 -82q-62 0 -104 82.5t-42 252.5q0 174 44.5 254.5t114.5 80.5zM629 75q61 0 90 89t29 217q0 132 -30 218t-89 86q-58 0 -88 -87t-30 -217q0 -132 30 -219t88 -87zM170 840v-5q-102 -134 -102 -455
q0 -322 102 -455v-5h-28q-102 140 -102 460t102 460h28zM830 -80v5q102 134 102 455q0 322 -102 455v5h28q102 -140 102 -460t-102 -460h-28zM306 45v632h-2l-107 -67l-9 24l126 81h24v-670h-32z" />
    <glyph glyph-name="Japan1.8081" 
d="M170 840v-5q-102 -134 -102 -455q0 -322 102 -455v-5h-28q-102 140 -102 460t102 460h28zM830 -80v5q102 134 102 455q0 322 -102 455v5h28q102 -140 102 -460t-102 -460h-28zM342 45v632h-2l-107 -67l-9 24l126 81h24v-670h-32zM700 45v632h-2l-106 -67l-9 24l125 81h24
v-670h-32z" />
    <glyph glyph-name="Japan1.8082" 
d="M170 840v-5q-102 -134 -102 -455q0 -322 102 -455v-5h-28q-102 140 -102 460t102 460h28zM830 -80v5q102 134 102 455q0 322 -102 455v5h28q102 -140 102 -460t-102 -460h-28zM306 45v632h-2l-107 -67l-9 24l126 81h24v-670h-32zM774 55h-291v17l47 67l31.5 45l35 50
l31 47t32 52.5l24.5 49t22.5 55t12 51t5.5 54.5q0 142 -104 142q-13 0 -25 -2.5t-20.5 -5.5t-18 -9l-14 -9t-12.5 -9l-7 -6l-15 22q49 49 118 49q63 0 97.5 -47.5t34.5 -123.5q0 -84 -47.5 -177.5t-134.5 -214.5l-46 -66v-2h244v-29z" />
    <glyph glyph-name="Japan1.8083" 
d="M170 840v-5q-102 -134 -102 -455q0 -322 102 -455v-5h-28q-102 140 -102 460t102 460h28zM830 -80v5q102 134 102 455q0 322 -102 455v5h28q102 -140 102 -460t-102 -460h-28zM306 45v632h-2l-107 -67l-9 24l126 81h24v-670h-32zM472 80l16 27q48 -32 104 -32
q65 0 99.5 43.5t34.5 115.5q0 75 -41.5 116.5t-111.5 41.5h-23v30h23q47 0 90.5 38.5t43.5 103.5q0 58 -26.5 89.5t-75.5 31.5q-45 0 -92 -38l-16 25q45 43 112 43q62 0 97 -41.5t35 -104.5q0 -50 -27.5 -92t-78.5 -65v-2q52 -11 88.5 -55t36.5 -120q0 -82 -46.5 -136
t-126.5 -54q-71 0 -115 35z" />
    <glyph glyph-name="Japan1.8084" 
d="M724 55h-32v197h-225v22l222 441h35v-434h77v-29h-77v-197zM508 281h184v245q0 75 4 138h-4l-60 -132l-124 -249v-2zM170 840v-5q-102 -134 -102 -455q0 -322 102 -455v-5h-28q-102 140 -102 460t102 460h28zM830 -80v5q102 134 102 455q0 322 -102 455v5h28
q102 -140 102 -460t-102 -460h-28zM306 45v632h-2l-107 -67l-9 24l126 81h24v-670h-32z" />
    <glyph glyph-name="Japan1.8085" 
d="M170 840v-5q-102 -134 -102 -455q0 -322 102 -455v-5h-28q-102 140 -102 460t102 460h28zM830 -80v5q102 134 102 455q0 322 -102 455v5h28q102 -140 102 -460t-102 -460h-28zM306 45v632h-2l-107 -67l-9 24l126 81h24v-670h-32zM507 425l46 280h210v-29h-186l-35 -219
q8 2 30 2q45 0 85 -18t69.5 -64.5t29.5 -114.5q0 -99 -50 -158t-127 -59q-67 0 -107 32l15 26q43 -28 94 -28q57 0 99 48t42 134q0 84 -41.5 128t-114.5 44q-33 0 -59 -4z" />
    <glyph glyph-name="Japan1.8086" 
d="M747 715v-33q-93 0 -156 -83t-77 -215h2q49 70 122 70q63 0 101 -53t38 -139q0 -93 -42 -155t-105 -62q-73 0 -111.5 74t-38.5 185q0 90 18 163t46.5 118t65 75.5t70.5 42.5t67 12zM633 75q45 0 77.5 46t32.5 138q1 85 -30 125t-82 40q-37 0 -66 -23.5t-40 -45t-11 -30.5
q0 -127 32 -188.5t87 -61.5zM170 840v-5q-102 -134 -102 -455q0 -322 102 -455v-5h-28q-102 140 -102 460t102 460h28zM830 -80v5q102 134 102 455q0 322 -102 455v5h28q102 -140 102 -460t-102 -460h-28zM306 45v632h-2l-107 -67l-9 24l126 81h24v-670h-32z" />
    <glyph glyph-name="Japan1.8087" 
d="M170 840v-5q-102 -134 -102 -455q0 -322 102 -455v-5h-28q-102 140 -102 460t102 460h28zM830 -80v5q102 134 102 455q0 322 -102 455v5h28q102 -140 102 -460t-102 -460h-28zM306 45v632h-2l-107 -67l-9 24l126 81h24v-670h-32zM485 705h290v-14l-223 -636h-33l217 619
v2h-251v29z" />
    <glyph glyph-name="Japan1.8088" 
d="M592 403v2q-47 28 -73.5 68.5t-26.5 83.5q0 70 42 114t100 44q48 0 80 -26t43.5 -57.5t11.5 -65.5q0 -100 -101 -163v-3q120 -75 120 -181q0 -71 -45 -122.5t-117 -51.5q-76 0 -117 50.5t-41 111.5q0 119 124 196zM632 685q-48 0 -77 -34t-29 -87q0 -39 18 -70t39 -46
t55 -33q97 60 97 146q0 56 -27 90t-76 34zM626 75q57 0 92.5 35.5t35.5 103.5q0 62 -32.5 100.5t-97.5 74.5q-53 -26 -87.5 -71.5t-34.5 -103.5q0 -63 33.5 -101t90.5 -38zM170 840v-5q-102 -134 -102 -455q0 -322 102 -455v-5h-28q-102 140 -102 460t102 460h28zM830 -80v5
q102 134 102 455q0 322 -102 455v5h28q102 -140 102 -460t-102 -460h-28zM306 45v632h-2l-107 -67l-9 24l126 81h24v-670h-32z" />
    <glyph glyph-name="Japan1.8089" 
d="M513 45v33q90 0 155 82t78 216h-2q-51 -70 -123 -70q-63 0 -101 53t-38 139q0 93 42.5 155t105.5 62q73 0 111.5 -74t38.5 -185q0 -109 -26.5 -192.5t-68 -129t-85.5 -67.5t-87 -22zM627 685q-48 0 -79.5 -48.5t-31.5 -135.5q0 -85 31 -125t82 -40q36 0 64.5 23t40.5 45
t12 31q0 127 -32 188.5t-87 61.5zM170 840v-5q-102 -134 -102 -455q0 -322 102 -455v-5h-28q-102 140 -102 460t102 460h28zM830 -80v5q102 134 102 455q0 322 -102 455v5h28q102 -140 102 -460t-102 -460h-28zM306 45v632h-2l-107 -67l-9 24l126 81h24v-670h-32z" />
    <glyph glyph-name="Japan1.8090" 
d="M654 45q-58 0 -96.5 82.5t-38.5 253.5q0 175 41 254.5t106 79.5q55 0 95.5 -80.5t40.5 -255.5q0 -172 -41 -253t-107 -81zM660 75q28 0 50 26.5t34 71t18 97t6 110.5q0 130 -27.5 217.5t-80.5 87.5q-54 0 -80.5 -86.5t-26.5 -218.5q0 -130 26.5 -217.5t80.5 -87.5z
M170 840v-5q-102 -134 -102 -455q0 -322 102 -455v-5h-28q-102 140 -102 460t102 460h28zM830 -80v5q102 134 102 455q0 322 -102 455v5h28q102 -140 102 -460t-102 -460h-28zM452 55h-262v16l44 69l28 44q27 43 33.5 55l30 53t32.5 64l23 59.5t19 68.5t5 63
q0 67 -24.5 102.5t-69.5 35.5q-14 0 -27 -3t-23 -8.5t-16 -10t-12 -10t-7 -5.5l-15 23q38 44 106 44q57 0 89.5 -45t32.5 -125q0 -83 -40 -173.5t-117 -213.5l-45 -72v-2h215v-29z" />
    <glyph glyph-name="Japan1.8091" 
d="M960 380q0 -191 -135 -325.5t-325 -134.5t-325 135t-135 325t135 325t325 135t325 -135t135 -325zM500 814q-181 0 -307.5 -127.5t-126.5 -306.5q0 -180 127 -307t307 -127t307 127t127 307t-127 307t-307 127zM467 148h-240v18l40 46q45 54 63.5 78t45.5 64.5t37.5 72.5
t10.5 64q0 101 -86 101q-43 0 -83 -34l-12 21q42 40 100 40q55 0 83.5 -36.5t28.5 -87.5q0 -34 -10.5 -67t-35.5 -71.5t-45 -65.5t-60 -75l-34 -41v-2h197v-25zM684 141v446h-1l-76 -46l-8 23l89 55h26v-478h-30z" />
    <glyph glyph-name="Japan1.8092" 
d="M499 668q-16 0 -26.5 13.5t-10.5 28.5q0 16 12 29.5t27 13.5t26 -13t11 -30q0 -16 -11 -29t-28 -13zM517 -12h-35v560h35v-560z" />
    <glyph glyph-name="Japan1.8093" 
d="M354 668q-16 0 -26.5 13.5t-10.5 28.5q0 16 12 29.5t27 13.5t26 -13t11 -30q0 -16 -11 -29t-28 -13zM645 668q-16 0 -26.5 13.5t-10.5 28.5q0 16 12 29.5t27 13.5t26 -13t11 -30q0 -16 -11 -29t-28 -13zM372 -12h-35v560h35v-560zM663 -12h-35v560h35v-560z" />
    <glyph glyph-name="Japan1.8094" 
d="M299 668q-16 0 -26.5 13.5t-10.5 28.5q0 16 12 29.5t27 13.5t26 -13t11 -30q0 -16 -11 -29t-28 -13zM499 668q-16 0 -26.5 13.5t-10.5 28.5q0 16 12 29.5t27 13.5t26 -13t11 -30q0 -16 -11 -29t-28 -13zM699 668q-16 0 -26.5 13.5t-10.5 28.5q0 16 12 29.5t27 13.5
t26 -13t11 -30q0 -16 -11 -29t-28 -13zM317 -12h-35v560h35v-560zM517 -12h-35v560h35v-560zM717 -12h-35v560h35v-560z" />
    <glyph glyph-name="Japan1.8095" 
d="M230 668q-18 0 -28 14t-10 28q0 16 12 29.5t27 13.5t26 -13t11 -30q0 -16 -11 -29t-27 -13zM247 -12h-35v560h35v-560zM358 548h39l142 -352l64 -166h1l69 166l146 352h38l-241 -560h-27z" />
    <glyph glyph-name="Japan1.8096" 
d="M232 548h39l154 -357l70 -168h2l74 168l160 357h38l-260 -560h-29z" />
    <glyph glyph-name="Japan1.8097" 
d="M772 668q-19 0 -29.5 13.5t-10.5 28.5q0 17 11 30t26 13t27 -13.5t12 -29.5t-10.5 -29t-25.5 -13zM143 548h39l141 -352q36 -89 64 -166h2q28 72 69 166l146 352h38l-241 -560h-27zM788 -12h-35v560h35v-560z" />
    <glyph glyph-name="Japan1.8098" 
d="M680 668q-20 0 -30 13.5t-10 28.5q0 17 11 29.5t26 12.5t27 -13t12 -29t-10.5 -29t-25.5 -13zM850 668q-20 0 -30 13.5t-10 28.5q0 17 11 29.5t26 12.5t27 -13t12 -29t-10.5 -29t-25.5 -13zM110 548h39l134 -352q44 -116 62 -167h1l66 167l141 352h37l-231 -560h-29z
M695 -12h-35v560h35v-560zM865 -12h-35v560h35v-560z" />
    <glyph glyph-name="Japan1.8099" 
d="M599 668q-18 0 -29 13.5t-11 28.5q0 17 11 30t26 13t27 -13.5t12 -29.5t-10.5 -29t-25.5 -13zM739 668q-18 0 -29 13.5t-11 28.5q0 17 11 30t26 13t27 -13.5t12 -29.5t-10.5 -29t-25.5 -13zM879 668q-18 0 -29 13.5t-11 28.5q0 17 11 30t26 13t27 -13.5t12 -29.5
t-10.5 -29t-25.5 -13zM91 548h34l119 -352l54 -167h1q24 73 58 167l124 352h33l-204 -560h-25zM615 -12h-35v560h35v-560zM755 -12h-35v560h35v-560zM895 -12h-35v560h35v-560z" />
    <glyph glyph-name="Japan1.8100" 
d="M241 668q-18 0 -29 13.5t-11 28.5q0 17 11 30t26 13t27 -13.5t12 -29.5t-10.5 -29t-25.5 -13zM257 -12h-35v560h35v-560zM387 548h38l108 -148l67 -94h4l70 98l105 144h36l-195 -269l214 -291h-39l-112 152l-83 114h-2l-82 -110l-118 -156h-38l222 291z" />
    <glyph glyph-name="Japan1.8101" 
d="M267 548h42l119 -148l75 -94h2l78 98l117 144h41l-220 -268l240 -292h-42l-125 152l-91 114h-3l-90 -110l-130 -156h-43l248 291z" />
    <glyph glyph-name="Japan1.8102" 
d="M960 380q0 -191 -135 -325.5t-325 -134.5t-325 135t-135 325t135 325t325 135t325 -135t135 -325zM500 814q-181 0 -307.5 -127.5t-126.5 -306.5q0 -180 127 -307t307 -127t307 127t127 307t-127 307t-307 127zM466 148h-239v18l40 46q57 69 82.5 103t49.5 84t24 92
q0 101 -86 101q-41 0 -83 -34l-12 21q42 40 101 40q55 0 83 -36t28 -88q0 -63 -36 -124t-114 -155l-35 -41v-2h197v-25zM793 148h-239v18l40 46q57 69 82.5 103t49.5 84t24 92q0 101 -86 101q-42 0 -82 -34l-12 21q40 40 100 40q55 0 83 -36t28 -88q0 -63 -36 -124
t-114 -155l-34 -41v-2h196v-25z" />
    <glyph glyph-name="Japan1.8103" 
d="M960 380q0 -191 -135 -325.5t-325 -134.5t-325 135t-135 325t135 325t325 135t325 -135t135 -325zM500 814q-181 0 -307.5 -127.5t-126.5 -306.5q0 -180 127 -307t307 -127t307 127t127 307t-127 307t-307 127zM466 148h-239v18l40 46q57 69 82.5 103t49.5 84t24 92
q0 101 -86 101q-41 0 -83 -34l-12 21q42 40 101 40q55 0 83 -36t28 -88q0 -63 -36 -124t-114 -155l-35 -41v-2h197v-25zM544 168l14 24q36 -24 90 -24q56 0 84 30t28 75q0 31 -12.5 53.5t-28 33.5t-40.5 17t-38 6.5t-33 0.5v27h24q40 0 76 26t36 73q0 38 -22 60t-64 22
q-40 0 -81 -28l-13 23q40 32 98 32q55 0 84 -30t29 -75q0 -38 -22 -69t-63 -44v-1q43 -8 72 -40t29 -84q0 -57 -38.5 -96t-108.5 -39q-64 0 -100 27z" />
    <glyph glyph-name="Japan1.8104" 
d="M960 380q0 -191 -135 -325.5t-325 -134.5t-325 135t-135 325t135 325t325 135t325 -135t135 -325zM500 814q-181 0 -307.5 -127.5t-126.5 -306.5q0 -180 127 -307t307 -127t307 127t127 307t-127 307t-307 127zM742 141h-29v138h-188v20l191 320h26v-315h62v-25h-62v-138
zM555 304h158v197q0 41 3 81h-3q-22 -48 -39 -76l-119 -201v-1zM467 148h-240v18l40 46q45 54 63.5 78t45.5 64.5t37.5 72.5t10.5 64q0 101 -86 101q-43 0 -83 -34l-12 21q42 40 100 40q55 0 83.5 -36.5t28.5 -87.5q0 -34 -10.5 -67t-35.5 -71.5t-45 -65.5t-60 -75l-34 -41
v-2h197v-25z" />
    <glyph glyph-name="Japan1.8105" 
d="M960 380q0 -191 -135 -325.5t-325 -134.5t-325 135t-135 325t135 325t325 135t325 -135t135 -325zM500 814q-181 0 -307.5 -127.5t-126.5 -306.5q0 -180 127 -307t307 -127t307 127t127 307t-127 307t-307 127zM467 148h-240v18l40 46q45 54 63.5 78t45.5 64.5t37.5 72.5
t10.5 64q0 101 -86 101q-43 0 -83 -34l-12 21q42 40 100 40q55 0 83.5 -36.5t28.5 -87.5q0 -34 -10.5 -67t-35.5 -71.5t-45 -65.5t-60 -75l-34 -41v-2h197v-25zM780 612v-25h-150l-24 -152q10 2 30 2q57 0 100 -37t43 -105t-40.5 -111t-99.5 -43q-58 0 -91 26l12 24
q35 -23 81 -23q45 0 76.5 33t30.5 89q0 57 -31 88.5t-89 31.5q-29 0 -53 -4l31 206h174z" />
    <glyph glyph-name="Japan1.8106" 
d="M960 380q0 -191 -135 -325.5t-325 -134.5t-325 135t-135 325t135 325t325 135t325 -135t135 -325zM500 814q-181 0 -307.5 -127.5t-126.5 -306.5q0 -180 127 -307t307 -127t307 127t127 307t-127 307t-307 127zM580 384h2q40 54 101 54q53 0 84 -39.5t31 -99.5
q0 -66 -35.5 -112t-91.5 -46t-89 51.5t-33 137.5q0 76 21 135.5t54.5 92.5t70.5 48.5t73 12.5v-30q-13 1 -41 -4q-62 -12 -100 -67t-47 -134zM767 297q0 57 -25.5 85.5t-64.5 28.5q-41 0 -69 -27t-28 -48q0 -82 25 -125t71 -43q38 0 64.5 34t26.5 95zM467 148h-240v18l40 46
q45 54 63.5 78t45.5 64.5t37.5 72.5t10.5 64q0 101 -86 101q-43 0 -83 -34l-12 21q42 40 100 40q55 0 83.5 -36.5t28.5 -87.5q0 -34 -10.5 -67t-35.5 -71.5t-45 -65.5t-60 -75l-34 -41v-2h197v-25z" />
    <glyph glyph-name="Japan1.8107" 
d="M960 380q0 -191 -135 -325.5t-325 -134.5t-325 135t-135 325t135 325t325 135t325 -135t135 -325zM500 814q-181 0 -307.5 -127.5t-126.5 -306.5q0 -180 127 -307t307 -127t307 127t127 307t-127 307t-307 127zM466 148h-239v18l40 46q57 69 82.5 103t49.5 84t24 92
q0 101 -86 101q-41 0 -83 -34l-12 21q42 40 101 40q55 0 83 -36t28 -88q0 -63 -36 -124t-114 -155l-35 -41v-2h197v-25zM550 612h238v-18l-187 -453h-28l183 444v2h-206v25z" />
    <glyph glyph-name="Japan1.8108" 
d="M705 397v-2q95 -46 95 -127q0 -54 -39 -90.5t-96 -36.5q-60 0 -96.5 35.5t-36.5 82.5q0 85 96 136v2q-78 38 -78 107q0 51 35 83t86 32q54 0 83.5 -32.5t29.5 -75.5q0 -73 -79 -114zM668 592q-41 0 -64.5 -24t-23.5 -60q0 -39 24.5 -62.5t69.5 -38.5q79 35 79 100
q0 37 -21.5 61t-63.5 24zM665 168q48 0 76 26t28 71q0 44 -27.5 71.5t-81.5 48.5q-12 -4 -25 -11.5t-31 -21.5t-29.5 -37t-11.5 -51q0 -43 27.5 -69.5t74.5 -26.5zM960 380q0 -191 -135 -325.5t-325 -134.5t-325 135t-135 325t135 325t325 135t325 -135t135 -325zM500 814
q-181 0 -307.5 -127.5t-126.5 -306.5q0 -180 127 -307t307 -127t307 127t127 307t-127 307t-307 127zM466 148h-239v18l40 46q57 69 82.5 103t49.5 84t24 92q0 101 -86 101q-41 0 -83 -34l-12 21q42 40 101 40q55 0 83 -36t28 -88q0 -63 -36 -124t-114 -155l-35 -41v-2h197
v-25z" />
    <glyph glyph-name="Japan1.8109" 
d="M960 380q0 -191 -135 -325.5t-325 -134.5t-325 135t-135 325t135 325t325 135t325 -135t135 -325zM500 814q-181 0 -307.5 -127.5t-126.5 -306.5q0 -180 127 -307t307 -127t307 127t127 307t-127 307t-307 127zM771 376h-2q-41 -54 -101 -54q-53 0 -84 39.5t-31 99.5
q0 66 35.5 112t91.5 46t89 -51.5t33 -137.5q0 -76 -21 -135.5t-54.5 -92.5t-70.5 -48.5t-73 -12.5v30q13 -1 41 4q62 12 100 67t47 134zM584 463q0 -57 25.5 -85.5t64.5 -28.5q41 0 69 27t28 48q0 82 -25 125t-71 43q-38 0 -64.5 -34t-26.5 -95zM467 148h-240v18l40 46
q45 54 63.5 78t45.5 64.5t37.5 72.5t10.5 64q0 101 -86 101q-43 0 -83 -34l-12 21q42 40 100 40q55 0 83.5 -36.5t28.5 -87.5q0 -34 -10.5 -67t-35.5 -71.5t-45 -65.5t-60 -75l-34 -41v-2h197v-25z" />
    <glyph glyph-name="Japan1.8110" 
d="M960 380q0 -191 -135 -325.5t-325 -134.5t-325 135t-135 325t135 325t325 135t325 -135t135 -325zM500 814q-181 0 -307.5 -127.5t-126.5 -306.5q0 -180 127 -307t307 -127t307 127t127 307t-127 307t-307 127zM671 141q-56 0 -89.5 64t-33.5 174q0 121 37.5 180.5
t94.5 59.5q54 0 88 -58.5t34 -177.5q0 -121 -35.5 -181.5t-95.5 -60.5zM674 166q35 0 57.5 33t30.5 78.5t8 103.5q0 95 -23.5 154t-71.5 59q-42 0 -68.5 -57t-26.5 -161q0 -93 25 -151.5t69 -58.5zM220 168l13 24q38 -24 91 -24q57 0 84.5 31t27.5 76q-1 52 -37 80.5
t-92 28.5h-24v27h24q40 0 76 26t36 73q0 38 -21.5 60t-63.5 22t-81 -28l-14 23q42 32 98 32q55 0 84 -30t29 -75q0 -39 -21.5 -69.5t-63.5 -43.5v-1q43 -8 72.5 -40t29.5 -84q0 -57 -39 -96t-109 -39q-63 0 -99 27z" />
    <glyph glyph-name="Japan1.8111" 
d="M960 380q0 -191 -135 -325.5t-325 -134.5t-325 135t-135 325t135 325t325 135t325 -135t135 -325zM500 814q-181 0 -307.5 -127.5t-126.5 -306.5q0 -180 127 -307t307 -127t307 127t127 307t-127 307t-307 127zM225 168l13 24q38 -24 91 -24q56 0 84 31t28 76
q-1 52 -37.5 80.5t-91.5 28.5h-24v27h24q40 0 76 26t36 73q0 38 -22 60t-64 22q-40 0 -81 -28l-13 23q40 32 98 32q55 0 84 -30t29 -75q0 -38 -22 -69t-63 -44v-1q43 -8 72.5 -40t29.5 -84q0 -57 -39 -96t-109 -39q-63 0 -99 27zM684 141v446h-1l-76 -46l-8 23l89 55h26
v-478h-30z" />
    <glyph glyph-name="Japan1.8112" 
d="M671 415v-192q0 -76 8 -128h-33l-7 88h-2q-19 -38 -62 -63.5t-103 -25.5q-70 0 -107 40.5t-37 93.5q0 181 308 181q0 172 -133 172q-71 0 -126 -41l-14 27q64 43 142 43q166 0 166 -195zM636 263v117q-48 0 -92 -6.5t-87 -21t-68.5 -44.5t-25.5 -72q0 -55 30.5 -84
t75.5 -29q74 0 120.5 44.5t46.5 95.5zM170 840v-5q-102 -134 -102 -455q0 -322 102 -455v-5h-28q-102 140 -102 460t102 460h28zM830 -80v5q102 134 102 455q0 322 -102 455v5h28q102 -140 102 -460t-102 -460h-28z" />
    <glyph glyph-name="Japan1.8113" 
d="M331 126v621h35v-317h2q23 48 63.5 73t88.5 25q79 0 128.5 -67.5t49.5 -188.5q0 -128 -55 -194t-130 -66q-104 0 -147 94h-3l-3 -94h-33q4 54 4 114zM366 322v-116q0 -56 39.5 -110.5t105.5 -54.5q71 0 111.5 66.5t40.5 164.5q0 95 -39.5 161t-111.5 66q-60 0 -103 -55
t-43 -122zM170 840v-5q-102 -134 -102 -455q0 -322 102 -455v-5h-28q-102 140 -102 460t102 460h28zM830 -80v5q102 134 102 455q0 322 -102 455v5h28q102 -140 102 -460t-102 -460h-28z" />
    <glyph glyph-name="Japan1.8114" 
d="M170 840v-5q-102 -134 -102 -455q0 -322 102 -455v-5h-28q-102 140 -102 460t102 460h28zM830 -80v5q102 134 102 455q0 322 -102 455v5h28q102 -140 102 -460t-102 -460h-28zM656 154l14 -29q-56 -31 -131 -31q-98 0 -158.5 70t-60.5 183q0 115 65.5 189t167.5 74
q78 0 119 -29l-16 -29q-49 29 -109 29q-88 0 -140 -69.5t-52 -161.5q0 -103 52.5 -165t135.5 -62q60 0 113 31z" />
    <glyph glyph-name="Japan1.8115" 
d="M633 747h35v-621q0 -60 4 -114h-32l-3 96h-3q-47 -96 -148 -96q-78 0 -129 66.5t-51 184.5q0 124 53.5 194t134.5 70q90 0 137 -81h2v301zM633 211v116q0 77 -42 124.5t-97 47.5q-71 0 -112 -66t-41 -166q0 -93 38 -159.5t110 -66.5q63 0 103.5 53.5t40.5 116.5zM170 840
v-5q-102 -134 -102 -455q0 -322 102 -455v-5h-28q-102 140 -102 460t102 460h28zM830 -80v5q102 134 102 455q0 322 -102 455v5h28q102 -140 102 -460t-102 -460h-28z" />
    <glyph glyph-name="Japan1.8116" 
d="M691 367h-349q-6 -118 49 -181t135 -63q73 0 128 33l10 -30q-53 -32 -143 -32q-98 0 -156.5 70t-58.5 178q0 123 58.5 195.5t148.5 72.5q54 0 92.5 -23.5t55.5 -61.5t24 -70t7 -63q0 -17 -1 -25zM342 396h315q1 45 -11.5 85t-48.5 70t-89 30q-71 0 -114.5 -56.5
t-51.5 -128.5zM170 840v-5q-102 -134 -102 -455q0 -322 102 -455v-5h-28q-102 140 -102 460t102 460h28zM830 -80v5q102 134 102 455q0 322 -102 455v5h28q102 -140 102 -460t-102 -460h-28z" />
    <glyph glyph-name="Japan1.8117" 
d="M170 840v-5q-102 -134 -102 -455q0 -322 102 -455v-5h-28q-102 140 -102 460t102 460h28zM830 -80v5q102 134 102 455q0 322 -102 455v5h28q102 -140 102 -460t-102 -460h-28zM471 12h-35v449h-75v29h75q0 36 1 57t6 53.5t17.5 58t32.5 45.5q48 43 115 43q53 0 81 -20
l-16 -26q-30 17 -71 17q-31 0 -55 -10.5t-37.5 -32t-22 -41t-12 -51t-4 -48.5t-0.5 -45h151v-29h-151v-449z" />
    <glyph glyph-name="Japan1.8118" 
d="M670 507v-292q0 -99 -13.5 -150t-40.5 -80q-49 -53 -141 -53q-83 0 -130 37l14 28q50 -36 124 -36q68 0 110 48t42 151v74h-2q-43 -85 -145 -85q-80 0 -130 67t-50 178q0 128 57 193.5t132 65.5q100 0 139 -86h2l1 86h34q-3 -96 -3 -146zM635 343v123q0 63 -40.5 110.5
t-98.5 47.5q-68 0 -110.5 -63t-42.5 -163q0 -98 41.5 -159t110.5 -61q55 0 97.5 46.5t42.5 118.5zM170 840v-5q-102 -134 -102 -455q0 -322 102 -455v-5h-28q-102 140 -102 460t102 460h28zM830 -80v5q102 134 102 455q0 322 -102 455v5h28q102 -140 102 -460t-102 -460h-28
z" />
    <glyph glyph-name="Japan1.8119" 
d="M170 840v-5q-102 -134 -102 -455q0 -322 102 -455v-5h-28q-102 140 -102 460t102 460h28zM830 -80v5q102 134 102 455q0 322 -102 455v5h28q102 -140 102 -460t-102 -460h-28zM330 12v735h35v-315h2q21 42 64 69t93 27q15 0 31 -3t40 -15t41.5 -31.5t30.5 -57t13 -87.5
v-322h-35v316q0 74 -30.5 122.5t-98.5 48.5q-50 0 -90 -33.5t-56 -84.5q-5 -19 -5 -49v-320h-35z" />
    <glyph glyph-name="Japan1.8120" 
d="M170 840v-5q-102 -134 -102 -455q0 -322 102 -455v-5h-28q-102 140 -102 460t102 460h28zM830 -80v5q102 134 102 455q0 322 -102 455v5h28q102 -140 102 -460t-102 -460h-28zM499 648q-16 0 -25 12t-9 26q0 15 10.5 27.5t24.5 12.5t24.5 -12t10.5 -28q0 -14 -10.5 -26
t-25.5 -12zM517 33h-35v515h35v-515z" />
    <glyph glyph-name="Japan1.8121" 
d="M170 840v-5q-102 -134 -102 -455q0 -322 102 -455v-5h-28q-102 140 -102 460t102 460h28zM830 -80v5q102 134 102 455q0 322 -102 455v5h28q102 -140 102 -460t-102 -460h-28zM510 670q-15 0 -24.5 12t-9.5 26q0 15 10.5 27.5t25.5 12.5q13 0 23.5 -12t10.5 -28
q0 -14 -10.5 -26t-25.5 -12zM343 -57l-4 27q73 2 111 43q24 26 33.5 68.5t9.5 144.5v336h35v-371q0 -25 -0.5 -39.5t-4 -43.5t-10 -47.5t-20 -42.5t-32.5 -38.5t-49.5 -25t-68.5 -11.5z" />
    <glyph glyph-name="Japan1.8122" 
d="M170 840v-5q-102 -134 -102 -455q0 -322 102 -455v-5h-28q-102 140 -102 460t102 460h28zM830 -80v5q102 134 102 455q0 322 -102 455v5h28q102 -140 102 -460t-102 -460h-28zM375 747v-474h2q4 5 50 56l184 199h43l-205 -215l233 -301h-43l-213 277l-51 -55v-222h-35
v735h35z" />
    <glyph glyph-name="Japan1.8123" 
d="M170 840v-5q-102 -134 -102 -455q0 -322 102 -455v-5h-28q-102 140 -102 460t102 460h28zM830 -80v5q102 134 102 455q0 322 -102 455v5h28q102 -140 102 -460t-102 -460h-28zM482 12v735h35v-735h-35z" />
    <glyph glyph-name="Japan1.8124" 
d="M170 840v-5q-102 -134 -102 -455q0 -322 102 -455v-5h-28q-102 140 -102 460t102 460h28zM830 -80v5q102 134 102 455q0 322 -102 455v5h28q102 -140 102 -460t-102 -460h-28zM262 94v397q0 64 -5 119h30l1 -69h4q28 69 105 69q82 0 105 -73h3q30 73 118 73
q50 0 82.5 -33.5t32.5 -111.5v-371h-35v350q0 23 -0.5 37t-5.5 35.5t-14 33.5t-26.5 21.5t-43.5 9.5q-33 0 -60.5 -25.5t-33.5 -72.5q-2 -20 -2 -54v-335h-35v357q0 58 -19 94t-72 36q-37 0 -62.5 -27t-30.5 -82q-1 -17 -1 -46v-332h-35z" />
    <glyph glyph-name="Japan1.8125" 
d="M170 840v-5q-102 -134 -102 -455q0 -322 102 -455v-5h-28q-102 140 -102 460t102 460h28zM830 -80v5q102 134 102 455q0 322 -102 455v5h28q102 -140 102 -460t-102 -460h-28zM325 94v393q0 25 -4 123h32l3 -98h1q20 43 62 70t97 27q20 0 42.5 -6.5t51 -25t47 -61.5
t18.5 -105v-317h-35v312q0 76 -30.5 125.5t-100.5 49.5q-59 0 -104 -47.5t-45 -117.5v-322h-35z" />
    <glyph glyph-name="Japan1.8126" 
d="M500 94q-83 0 -138 68.5t-55 187.5q0 125 57 192.5t137 67.5q84 0 138 -67t54 -188q0 -128 -58.5 -194.5t-134.5 -66.5zM498 123q73 0 116.5 70.5t43.5 160.5q0 50 -13.5 99t-51.5 88.5t-93 39.5q-54 0 -91.5 -38t-52 -87.5t-14.5 -104.5q0 -91 42 -159.5t114 -68.5z
M170 840v-5q-102 -134 -102 -455q0 -322 102 -455v-5h-28q-102 140 -102 460t102 460h28zM830 -80v5q102 134 102 455q0 322 -102 455v5h28q102 -140 102 -460t-102 -460h-28z" />
    <glyph glyph-name="Japan1.8127" 
d="M330 -57v544q0 90 -4 166h35l3 -98h2q50 98 152 98q79 0 129.5 -67t50.5 -184q0 -132 -53 -198.5t-139 -66.5q-98 0 -139 85h-2v-279h-35zM365 444v-108q0 -69 41 -119.5t103 -50.5q74 0 114 66t40 168q0 92 -40 158t-112 66q-59 0 -102.5 -53.5t-43.5 -126.5zM170 840
v-5q-102 -134 -102 -455q0 -322 102 -455v-5h-28q-102 140 -102 460t102 460h28zM830 -80v5q102 134 102 455q0 322 -102 455v5h28q102 -140 102 -460t-102 -460h-28z" />
    <glyph glyph-name="Japan1.8128" 
d="M635 -57v282h-3q-15 -37 -53.5 -62.5t-90.5 -25.5q-81 0 -133.5 66t-52.5 186q0 131 58.5 197.5t139.5 66.5q47 0 83 -24t55 -64h2l1 88h34q-5 -50 -5 -146v-564h-35zM635 337v115q0 75 -41.5 123.5t-99.5 48.5q-74 0 -115.5 -66t-41.5 -167q0 -93 39 -159t115 -66
q61 0 102.5 53t41.5 118zM170 840v-5q-102 -134 -102 -455q0 -322 102 -455v-5h-28q-102 140 -102 460t102 460h28zM830 -80v5q102 134 102 455q0 322 -102 455v5h28q102 -140 102 -460t-102 -460h-28z" />
    <glyph glyph-name="Japan1.8129" 
d="M170 840v-5q-102 -134 -102 -455q0 -322 102 -455v-5h-28q-102 140 -102 460t102 460h28zM830 -80v5q102 134 102 455q0 322 -102 455v5h28q102 -140 102 -460t-102 -460h-28zM378 94v283q0 173 -4 233h35l2 -166h4q66 166 210 166q22 0 42 -5v-28q-13 4 -37 4
q-22 0 -35.5 -1t-39.5 -10.5t-45 -27t-42.5 -53t-41.5 -86.5q-13 -32 -13 -64v-245h-35z" />
    <glyph glyph-name="Japan1.8130" 
d="M170 840v-5q-102 -134 -102 -455q0 -322 102 -455v-5h-28q-102 140 -102 460t102 460h28zM830 -80v5q102 134 102 455q0 322 -102 455v5h28q102 -140 102 -460t-102 -460h-28zM331 132l14 30q64 -39 140 -39q72 0 110.5 33t38.5 74q0 47 -33 71.5t-105 43.5
q-84 22 -114.5 55t-30.5 81q0 50 43.5 89.5t126.5 39.5q73 0 129 -35l-15 -27q-52 33 -126 33q-54 0 -88.5 -30t-34.5 -68q0 -46 29.5 -68.5t101.5 -42.5q84 -23 118 -56.5t34 -89.5q0 -53 -48.5 -92.5t-138.5 -39.5q-78 0 -151 38z" />
    <glyph glyph-name="Japan1.8131" 
d="M170 840v-5q-102 -134 -102 -455q0 -322 102 -455v-5h-28q-102 140 -102 460t102 460h28zM830 -80v5q102 134 102 455q0 322 -102 455v5h28q102 -140 102 -460t-102 -460h-28zM440 673l35 12v-103h168v-29h-168v-340q0 -110 85 -110q39 0 69 10l6 -24q-34 -14 -73 -14
q-122 0 -122 151v327h-96v29h96v91z" />
    <glyph glyph-name="Japan1.8132" 
d="M170 840v-5q-102 -134 -102 -455q0 -322 102 -455v-5h-28q-102 140 -102 460t102 460h28zM830 -80v5q102 134 102 455q0 322 -102 455v5h28q102 -140 102 -460t-102 -460h-28zM675 610v-388q0 -54 4 -128l-31 -1l-3 94h-1q-52 -93 -161 -93q-29 0 -54 8.5t-50 30
t-39.5 65t-14.5 106.5v306h35v-298q0 -189 127 -189q61 0 107 47t46 116v324h35z" />
    <glyph glyph-name="Japan1.8133" 
d="M170 840v-5q-102 -134 -102 -455q0 -322 102 -455v-5h-28q-102 140 -102 460t102 460h28zM830 -80v5q102 134 102 455q0 322 -102 455v5h28q102 -140 102 -460t-102 -460h-28zM312 610h36l108 -337q24 -72 40 -128h3q22 72 43 128l110 337h35l-178 -515h-26z" />
    <glyph glyph-name="Japan1.8134" 
d="M170 840v-5q-102 -134 -102 -455q0 -322 102 -455v-5h-28q-102 140 -102 460t102 460h28zM830 -80v5q102 134 102 455q0 322 -102 455v5h28q102 -140 102 -460t-102 -460h-28zM239 610h36l67 -269q27 -108 40 -167h3l18 79t20 86l68 271h20l66 -260q22 -86 41 -176h3
l40 170l63 266h34l-129 -516h-19l-81 315q-13 59 -26 141h-4q-11 -66 -28 -146l-76 -310h-21z" />
    <glyph glyph-name="Japan1.8135" 
d="M170 840v-5q-102 -134 -102 -455q0 -322 102 -455v-5h-28q-102 140 -102 460t102 460h28zM830 -80v5q102 134 102 455q0 322 -102 455v5h28q102 -140 102 -460t-102 -460h-28zM336 610h38l72 -127l55 -95h3q23 41 56 95l74 127h35l-153 -252l157 -264h-37l-78 134
l-57 101h-1l-57 -101l-79 -134h-37l159 263z" />
    <glyph glyph-name="Japan1.8136" 
d="M170 840v-5q-102 -134 -102 -455q0 -322 102 -455v-5h-28q-102 140 -102 460t102 460h28zM830 -80v5q102 134 102 455q0 322 -102 455v5h28q102 -140 102 -460t-102 -460h-28zM315 653h37l110 -331q31 -88 36 -107h2q2 6 40 110l107 328h38l-122 -342l-19 -49.5
l-17.5 -46l-15 -38l-14.5 -36l-13 -29.5t-14 -28t-13.5 -23t-15.5 -23.5l-15.5 -19t-18.5 -20.5q-37 -36 -75 -55l-14 27q35 17 64.5 43t46.5 50.5t29 49t16.5 39.5t4.5 20q0 9 -4 20z" />
    <glyph glyph-name="Japan1.8137" 
d="M170 840v-5q-102 -134 -102 -455q0 -322 102 -455v-5h-28q-102 140 -102 460t102 460h28zM830 -80v5q102 134 102 455q0 322 -102 455v5h28q102 -140 102 -460t-102 -460h-28zM333 105v20l246 375q46 66 46 70h-270v29h313v-18l-249 -379q-21 -34 -44 -66v-2h292v-29
h-334z" />
    <glyph glyph-name="Japan1.8184" 
d="M230 323v424h-1l-80 -46l-7 26l89 52h34v-456h-35zM232 -19h-38l501 798h39zM907 -11h-323v21l49 42q138 118 181.5 167t43.5 102q0 44 -26.5 75.5t-86.5 31.5q-59 0 -120 -53l-20 23q62 60 145 60q73 0 108 -41.5t35 -87.5q0 -66 -46 -120t-173 -160l-35 -29v-1h268v-30
z" />
    <glyph glyph-name="Japan1.8185" 
d="M839 -19h-35v119h-264v23l271 335h28v-328h85v-30h-85v-119zM584 130h220v225q0 36 1 52l-2 1l-32 -46l-187 -231v-1zM230 323v424h-1l-80 -46l-7 26l89 52h34v-456h-35zM244 -19h-38l501 798h39z" />
    <glyph glyph-name="Japan1.8224" 
d="M960 380q0 -191 -135 -325.5t-325 -134.5t-325 135t-135 325t135 325t325 135t325 -135t135 -325zM500 814q-181 0 -307.5 -127.5t-126.5 -306.5q0 -180 127 -307t307 -127t307 127t127 307t-127 307t-307 127zM494 124q-81 0 -128 73t-47 179q0 128 56.5 194.5
t131.5 66.5q79 0 126 -62t47 -182q0 -132 -49 -200.5t-137 -68.5zM498 149q75 0 112.5 62t37.5 174q0 226 -148 226q-23 0 -46 -10t-47.5 -34t-40 -74.5t-15.5 -120.5q0 -102 40.5 -162.5t106.5 -60.5z" />
    <glyph glyph-name="Japan1.8225" 
d="M679 -12h-42l-123 189l-70.5 109.5l-52.5 80.5h-1l-113 -189l-116 -190h-41l254 403l-231 377h41l133 -219l81 -134h1l81 133l134 220h41l-241 -378zM808 768h35v-780h-35v780z" />
    <glyph glyph-name="Japan1.8226" 
d="M581 -12h-41l-112 188q-97 164 -111 190h-2l-45 -83.5l-57 -105.5l-105 -189h-40l232 403l-210 377h39l121 -218l73 -133h1l195 351h40l-220 -378zM684 768h35v-780h-35v780zM867 768h35v-780h-35v780z" />
    <glyph glyph-name="Japan1.8227" 
d="M492 26q-88 0 -140.5 97t-52.5 253q0 179 61 267.5t147 88.5q85 0 139.5 -85t54.5 -260q0 -181 -56.5 -271t-152.5 -90zM497 56q59 0 98.5 46t55.5 117t16 163q0 144 -42 232t-126 88q-69 0 -117.5 -84t-48.5 -249q0 -140 44.5 -226.5t119.5 -86.5zM170 840v-5
q-102 -134 -102 -455q0 -322 102 -455v-5h-28q-102 140 -102 460t102 460h28zM830 -80v5q102 134 102 455q0 322 -102 455v5h28q102 -140 102 -460t-102 -460h-28z" />
    <glyph glyph-name="Japan1.8228" 
d="M730 764l25 -16l-63 -100q57 -95 57 -268q0 -196 -69 -294.5t-179 -98.5q-109 0 -173 86l-58 -93l-25 16l65 104q-59 102 -59 279q0 186 75.5 282t173.5 96q109 0 174 -82zM333 136l319 505q-54 86 -152 86q-92 0 -152 -94.5t-60 -267.5q0 -139 45 -229zM669 611
l-320 -505q57 -89 148 -89q58 0 101 30t67 82t35.5 113.5t11.5 132.5q0 146 -43 236z" />
    <glyph glyph-name="Japan1.8286" 
d="M500 840q191 0 325.5 -135t134.5 -325t-135 -325t-325 -135t-325 135t-135 325t135 325t325 135zM467 558v-443h90v527h-79l-124 -61l16 -70l95 47h2z" />
    <glyph glyph-name="Japan1.8287" 
d="M500 840q191 0 325.5 -135t134.5 -325t-135 -325t-325 -135t-325 135t-135 325t135 325t325 135zM316 119h368v77h-233v1l46 37q92 81 133 136.5t41 119.5q0 66 -45.5 112.5t-131.5 46.5q-97 0 -168 -59l29 -65q61 48 120 48q53 0 77.5 -27t24.5 -67q0 -47 -41 -96
t-157 -153l-63 -55v-56z" />
    <glyph glyph-name="Japan1.8288" 
d="M500 840q191 0 325.5 -135t134.5 -325t-135 -325t-325 -135t-325 135t-135 325t135 325t325 135zM341 219l-23 -71q60 -39 154 -39q98 0 154 45t56 113q0 50 -34 85.5t-87 44.5v2q101 33 101 122q0 53 -43.5 90.5t-124.5 37.5q-92 0 -158 -43l23 -68q53 35 116 35
q46 0 68.5 -19.5t22.5 -47.5q0 -37 -34 -56t-78 -19h-49v-69h49q53 0 92.5 -23.5t39.5 -67.5q0 -33 -28.5 -59.5t-88.5 -26.5q-73 0 -128 34z" />
    <glyph glyph-name="Japan1.8289" 
d="M500 840q191 0 325.5 -135t134.5 -325t-135 -325t-325 -135t-325 135t-135 325t135 325t325 135zM536 115h90v134h72v74h-72v320h-111l-233 -330v-64h254v-134zM536 484v-161h-162v2l118 162q21 35 44 80h3q-3 -43 -3 -83z" />
    <glyph glyph-name="Japan1.8290" 
d="M500 840q191 0 325.5 -135t134.5 -325t-135 -325t-325 -135t-325 135t-135 325t135 325t325 135zM663 562v77h-280l-34 -260q44 6 79 6q80 0 118 -28t38 -74q0 -50 -36.5 -75t-84.5 -25q-69 0 -124 30l-20 -71q58 -33 146 -33q97 0 156 51t59 128q0 82 -57 125t-146 43
q-25 0 -44 -3l16 109h214z" />
    <glyph glyph-name="Japan1.8291" 
d="M500 840q191 0 325.5 -135t134.5 -325t-135 -325t-325 -135t-325 135t-135 325t135 325t325 135zM641 573v75q-32 2 -66 -2q-123 -7 -198.5 -88.5t-75.5 -223.5q0 -102 51 -163.5t141 -61.5q86 0 142 55.5t56 133.5q0 70 -47 116t-120 46q-80 0 -126 -52h-2q15 76 70 119
q54 47 156 47q13 0 19 -1zM499 179q-52 0 -77.5 40t-25.5 98q0 29 31.5 51.5t72.5 22.5q44 0 70 -28.5t26 -69.5q0 -47 -26 -80.5t-71 -33.5z" />
    <glyph glyph-name="Japan1.8292" 
d="M500 840q191 0 325.5 -135t134.5 -325t-135 -325t-325 -135t-325 135t-135 325t135 325t325 135zM699 639h-364v-77h264v-2l-236 -445h99l237 462v62z" />
    <glyph glyph-name="Japan1.8293" 
d="M500 840q191 0 325.5 -135t134.5 -325t-135 -325t-325 -135t-325 135t-135 325t135 325t325 135zM589 396v2q85 37 85 119q0 54 -44 93t-126 39q-79 0 -130 -41t-51 -103q0 -79 84 -116v-2q-103 -41 -103 -134q0 -61 52 -102.5t141 -41.5q87 0 143 43t56 113q0 47 -29 81
t-78 50zM502 584q44 0 65 -24t21 -53q0 -31 -21 -52.5t-54 -29.5q-98 21 -98 84q0 31 23 53t64 22zM500 174q-45 0 -72.5 26.5t-27.5 63.5q0 34 23.5 58.5t65.5 33.5q112 -25 112 -100q0 -33 -27.5 -57.5t-73.5 -24.5z" />
    <glyph glyph-name="Japan1.8294" 
d="M500 840q191 0 325.5 -135t134.5 -325t-135 -325t-325 -135t-325 135t-135 325t135 325t325 135zM359 185v-75q32 -2 66 2q123 7 198.5 88.5t75.5 223.5q0 102 -51 163.5t-141 61.5q-86 0 -142 -55.5t-56 -133.5q0 -70 47 -116t120 -46q80 0 126 52h2q-15 -76 -70 -119
q-54 -47 -156 -47q-13 0 -19 1zM500 579q55 0 79.5 -41t24.5 -97q0 -29 -31.5 -51.5t-72.5 -22.5q-44 0 -70 28.5t-26 69.5q0 48 26.5 81t69.5 33z" />
    <glyph glyph-name="Japan1.8295" 
d="M493 -12h-39l-98 187l-97 188h-1l-88 -187l-91 -188h-39l203 403l-184 377h38l105 -216l64 -132l63 131l105 217h39l-192 -378zM573 768h35v-780h-35v780zM726 768h35v-780h-35v780zM880 768h35v-780h-35v780z" />
    <glyph glyph-name="Japan1.8296" 
d="M438 -12h-38l-84 185q-64 139 -83 187h-2q-31 -83 -75 -186l-78 -186h-38l176 403l-159 377h37l90 -214q39 -90 54 -131h1l53 130l90 215h38l-167 -377zM473 768h35v-780h-35v780zM784 -12h-34l-203 780h36l115 -449l69 -275h1q13 68 58 276l98 448h36z" />
    <glyph glyph-name="Japan1.8297" 
d="M475 -12h-38l-93 187l-93 188h-1l-85 -187l-88 -188h-37l195 403l-177 377h37l101 -216l61 -132h1l60 131l101 217h37l-185 -378zM762 -12h-33l-227 780h35l129 -449l79 -282h1l69 283l110 448h35z" />
    <glyph glyph-name="Japan1.8298" 
d="M760 668q-17 0 -27 13.5t-10 28.5q0 16 12 29.5t27 13.5t26 -13t11 -30q0 -16 -11 -29t-28 -13zM194 548h37l108 -148l68 -94h4q21 32 69 98l105 144h36l-195 -269l214 -291h-38l-113 152l-82 114h-3l-81 -110l-118 -156h-39l222 291zM778 -12h-35v560h35v-560z" />
    <glyph glyph-name="Japan1.8299" 
d="M674 668q-18 0 -29 13.5t-11 28.5q0 17 11 30t26 13t27 -13.5t12 -29.5t-10.5 -29t-25.5 -13zM844 668q-18 0 -29 13.5t-11 28.5q0 17 11 30t26 13t27 -13.5t12 -29.5t-10.5 -29t-25.5 -13zM144 548h39l102 -148l64 -94h3l66 98l99 144h38l-187 -269l205 -291h-40
l-107 152q-65 95 -77 114h-3l-77 -110l-112 -156h-39l212 291zM690 -12h-35v560h35v-560zM860 -12h-35v560h35v-560z" />
    <glyph glyph-name="Japan1.8300" 
d="M594 668q-18 0 -29 13.5t-11 28.5q0 17 11 30t26 13t27 -13.5t12 -29.5t-10.5 -29t-25.5 -13zM734 668q-18 0 -29 13.5t-11 28.5q0 17 11 30t26 13t27 -13.5t12 -29.5t-10.5 -29t-25.5 -13zM874 668q-18 0 -29 13.5t-11 28.5q0 17 11 30t26 13t27 -13.5t12 -29.5
t-10.5 -29t-25.5 -13zM103 548h39l97 -148l61 -94h3l63 98l95 144h37l-178 -269l195 -291h-39l-102 152q-60 91 -74 114h-3l-73 -110l-107 -156h-39l203 291zM610 -12h-35v560h35v-560zM750 -12h-35v560h35v-560zM890 -12h-35v560h35v-560z" />
    <glyph glyph-name="Japan1.8301" 
d="M504 668q-18 0 -29 13.5t-11 28.5q0 17 11 30t26 13t27 -13.5t12 -29.5t-10.5 -29t-25.5 -13zM62 548h38l83 -146q31 -52 52 -94h3l54 97l82 143h35l-154 -269l169 -291h-37l-88 150l-21.5 37.5l-24 42t-18.5 34.5h-2l-63 -110l-92 -154h-38l177 291zM520 -12h-35v560h35
v-560zM582 548h30l105 -347q37 -124 48 -164h2l50 164l111 347h32l-179 -560h-29z" />
    <glyph glyph-name="Japan1.8302" 
d="M91 548h38l94 -148l59 -94h3l61 98l91 144h37l-172 -268l189 -292h-39l-99 152q-10 17 -34.5 55.5l-36.5 58.5h-3l-71 -110l-103 -156h-39l197 291zM524 548h34l114 -345q32 -93 53 -163h2q10 33 55 163l122 345h31l-198 -560h-25z" />
    <glyph glyph-name="Japan1.9780" 
d="M214 393q-74 0 -124 53t-50 153q0 103 52.5 157t127.5 54q79 0 126 -51t47 -150q0 -106 -47 -161t-132 -55zM214 426q75 0 108 50t33 129q0 81 -34 126.5t-104 45.5q-61 0 -99.5 -47.5t-38.5 -124.5q0 -85 36.5 -132t98.5 -47zM805 810l-570 -860h-41l571 860h40z
M618 -21l12 27q54 -26 139 -26q89 0 122.5 27t33.5 59q0 90 -183 90h-42v30h44q61 0 108.5 20t47.5 59q0 30 -28.5 51t-92.5 21q-67 0 -123 -32l-14 27q61 35 140 35q78 0 115.5 -29.5t37.5 -68.5q0 -34 -28 -60t-80 -35v-2q61 -3 97 -30.5t36 -74.5q0 -50 -50 -83.5
t-149 -33.5q-85 0 -143 29z" />
    <glyph glyph-name="Japan1.9781" 
d="M232 393v384h-2l-99 -46l-12 27l113 52h35v-417h-35zM805 810l-570 -860h-41l571 860h40zM618 -21l12 27q54 -26 139 -26q89 0 122.5 27t33.5 59q0 90 -183 90h-42v30h44q61 0 108.5 20t47.5 59q0 30 -28.5 51t-92.5 21q-67 0 -123 -32l-14 27q61 35 140 35
q78 0 115.5 -29.5t37.5 -68.5q0 -34 -28 -60t-80 -35v-2q61 -3 97 -30.5t36 -74.5q0 -50 -50 -83.5t-149 -33.5q-85 0 -143 29z" />
    <glyph glyph-name="Japan1.9782" 
d="M371 400h-331v17l52 38q141 103 185 145.5t44 88.5q0 39 -25 65t-83 26q-74 0 -121 -49l-21 23q57 56 146 56q71 0 105 -35.5t34 -76.5q0 -21 -4.5 -39t-20 -39t-28.5 -35.5t-49 -43.5l-60.5 -47.5l-82.5 -61.5v-2h260v-30zM805 810l-570 -860h-41l571 860h40zM618 -21
l12 27q54 -26 139 -26q89 0 122.5 27t33.5 59q0 90 -183 90h-42v30h44q61 0 108.5 20t47.5 59q0 30 -28.5 51t-92.5 21q-67 0 -123 -32l-14 27q61 35 140 35q78 0 115.5 -29.5t37.5 -68.5q0 -34 -28 -60t-80 -35v-2q61 -3 97 -30.5t36 -74.5q0 -50 -50 -83.5t-149 -33.5
q-85 0 -143 29z" />
    <glyph glyph-name="Japan1.9783" 
d="M877 -50h-35v118h-262v26l264 273h33v-269h83v-30h-83v-118zM627 98h215v175q0 29 3 52h-2q-81 -87 -106 -112l-110 -113v-2zM40 422l12 27q54 -26 139 -26q89 0 122.5 27t33.5 59q0 90 -183 90h-42v30h44q61 0 108.5 20t47.5 59q0 30 -28.5 51t-92.5 21q-67 0 -123 -32
l-14 27q61 35 140 35q78 0 115.5 -29.5t37.5 -68.5q0 -34 -28 -60t-80 -35v-2q61 -3 97 -30.5t36 -74.5q0 -50 -50 -83.5t-149 -33.5q-85 0 -143 29zM805 810l-570 -860h-41l571 860h40z" />
    <glyph glyph-name="Japan1.9784" 
d="M232 393v384h-2l-99 -46l-12 27l113 52h35v-417h-35zM805 810l-570 -860h-41l571 860h40zM958 360v-30h-216l-24 -124q17 4 55 4q31 0 61 -5.5t60 -18.5t48 -39t18 -62q0 -63 -50 -99t-133 -36q-85 0 -131 29l15 26q46 -25 119 -25q65 0 105 28t40 73q0 99 -162 99
q-43 0 -87 -8l36 188h246z" />
    <glyph glyph-name="Japan1.9785" 
d="M371 400h-331v17l52 38q141 103 185 145.5t44 88.5q0 39 -25 65t-83 26q-74 0 -121 -49l-21 23q57 56 146 56q71 0 105 -35.5t34 -76.5q0 -21 -4.5 -39t-20 -39t-28.5 -35.5t-49 -43.5l-60.5 -47.5l-82.5 -61.5v-2h260v-30zM805 810l-570 -860h-41l571 860h40zM958 360
v-30h-216l-24 -124q17 4 55 4q31 0 61 -5.5t60 -18.5t48 -39t18 -62q0 -63 -50 -99t-133 -36q-85 0 -131 29l15 26q46 -25 119 -25q65 0 105 28t40 73q0 99 -162 99q-43 0 -87 -8l36 188h246z" />
    <glyph glyph-name="Japan1.9786" 
d="M40 422l14 30q57 -26 137 -26q87 0 119.5 26.5t32.5 57.5q0 47 -44.5 67.5t-134.5 20.5h-43v33h45q60 0 106 19.5t46 56.5q0 30 -27.5 50t-90.5 20q-65 0 -119 -30l-17 28q58 35 140 35q78 0 115.5 -29.5t37.5 -68.5q0 -34 -28.5 -59.5t-79.5 -34.5v-2q61 -4 97 -31.5
t36 -74.5q0 -50 -50 -83.5t-149 -33.5q-85 0 -143 29zM805 810l-570 -860h-41l571 860h40zM958 360v-30h-216l-24 -124q17 4 55 4q31 0 61 -5.5t60 -18.5t48 -39t18 -62q0 -63 -50 -99t-133 -36q-85 0 -131 29l15 26q46 -25 119 -25q65 0 105 28t40 73q0 99 -162 99
q-43 0 -87 -8l36 188h246z" />
    <glyph glyph-name="Japan1.9787" 
d="M337 393h-35v118h-262v26l264 273h33v-269h83v-30h-83v-118zM87 541h215v175q0 30 3 52h-2q-81 -87 -106 -112l-110 -113v-2zM805 810l-570 -860h-41l571 860h40zM958 360v-30h-216l-24 -124q17 4 55 4q31 0 61 -5.5t60 -18.5t48 -39t18 -62q0 -63 -50 -99t-133 -36
q-85 0 -131 29l15 26q46 -25 119 -25q65 0 105 28t40 73q0 99 -162 99q-43 0 -87 -8l36 188h246z" />
    <glyph glyph-name="Japan1.9788" 
d="M905 367v-30q-119 0 -186 -53t-75 -122h1q21 26 59.5 43.5t87.5 17.5q76 0 122 -36t46 -97q0 -58 -46.5 -99t-129.5 -41q-76 0 -126 43t-50 128q0 115 86.5 180.5t210.5 65.5zM790 -20q64 0 99.5 30t35.5 79q0 52 -37.5 78t-102.5 26q-56 0 -99 -28t-43 -53
q0 -59 38 -95.5t109 -36.5zM232 393v384h-2l-99 -46l-12 27l113 52h35v-417h-35zM805 810l-570 -860h-41l571 860h40z" />
    <glyph glyph-name="Japan1.9789" 
d="M905 367v-30q-119 0 -186 -53t-75 -122h1q21 26 59.5 43.5t87.5 17.5q76 0 122 -36t46 -97q0 -58 -46.5 -99t-129.5 -41q-76 0 -126 43t-50 128q0 115 86.5 180.5t210.5 65.5zM790 -20q64 0 99.5 30t35.5 79q0 52 -37.5 78t-102.5 26q-56 0 -99 -28t-43 -53
q0 -59 38 -95.5t109 -36.5zM805 810l-570 -860h-41l571 860h40zM352 803v-30h-216l-24 -124q17 4 55 4q31 0 61 -5.5t60 -18.5t48 -39t18 -62q0 -63 -50 -99t-133 -36q-85 0 -131 29l15 26q46 -25 119 -25q65 0 105 28t40 73q0 99 -162 99q-43 0 -87 -8l36 188h246z" />
    <glyph glyph-name="Japan1.9790" 
d="M232 393v384h-2l-99 -46l-12 27l113 52h35v-417h-35zM805 810l-570 -860h-41l571 860h40zM627 360h333v-25l-226 -385h-41l223 378v2h-289v30z" />
    <glyph glyph-name="Japan1.9791" 
d="M371 400h-331v17l52 38q141 103 185 145.5t44 88.5q0 39 -25 65t-83 26q-74 0 -121 -49l-21 23q57 56 146 56q71 0 105 -35.5t34 -76.5q0 -21 -4.5 -39t-20 -39t-28.5 -35.5t-49 -43.5l-60.5 -47.5l-82.5 -61.5v-2h260v-30zM805 810l-570 -860h-41l571 860h40zM627 360
h333v-25l-226 -385h-41l223 378v2h-289v30z" />
    <glyph glyph-name="Japan1.9792" 
d="M40 422l12 27q54 -26 139 -26q89 0 122.5 27t33.5 59q0 90 -183 90h-42v30h44q61 0 108.5 20t47.5 59q0 30 -28.5 51t-92.5 21q-67 0 -123 -32l-14 27q61 35 140 35q78 0 115.5 -29.5t37.5 -68.5q0 -34 -28 -60t-80 -35v-2q61 -3 97 -30.5t36 -74.5q0 -50 -50 -83.5
t-149 -33.5q-85 0 -143 29zM805 810l-570 -860h-41l571 860h40zM627 360h333v-25l-226 -385h-41l223 378v2h-289v30z" />
    <glyph glyph-name="Japan1.9793" 
d="M337 393h-35v118h-262v26l264 273h33v-269h83v-30h-83v-118zM87 541h215v175q0 30 3 52h-2q-81 -87 -106 -112l-110 -113v-2zM805 810l-570 -860h-41l571 860h40zM627 360h333v-25l-226 -385h-41l223 378v2h-289v30z" />
    <glyph glyph-name="Japan1.9794" 
d="M805 810l-570 -860h-41l571 860h40zM352 803v-30h-216l-24 -124q17 4 55 4q31 0 61 -5.5t60 -18.5t48 -39t18 -62q0 -63 -50 -99t-133 -36q-85 0 -131 29l15 26q46 -25 119 -25q65 0 105 28t40 73q0 99 -162 99q-43 0 -87 -8l36 188h246zM627 360h333v-25l-226 -385h-41
l223 378v2h-289v30z" />
    <glyph glyph-name="Japan1.9795" 
d="M337 810v-30q-119 0 -186 -53t-75 -122h1q21 26 59.5 43.5t87.5 17.5q76 0 122 -36t46 -97q0 -58 -46.5 -99t-129.5 -41q-76 0 -126 43t-50 128q0 115 86.5 180.5t210.5 65.5zM222 423q64 0 99.5 30t35.5 79q0 52 -37.5 78t-102.5 26q-56 0 -99 -28t-43 -53
q0 -59 38 -95.5t109 -36.5zM805 810l-570 -860h-41l571 860h40zM627 360h333v-25l-226 -385h-41l223 378v2h-289v30z" />
    <glyph glyph-name="Japan1.9796" 
d="M713 171v2q-97 23 -97 92q0 45 47.5 73.5t119.5 28.5t114 -27t42 -69q0 -19 -6.5 -36.5t-30.5 -36.5t-64 -27v-2q62 -11 92 -39.5t30 -65.5q0 -52 -54.5 -83t-128.5 -31q-78 0 -130.5 29t-52.5 79q0 38 30.5 68.5t88.5 44.5zM782 337q-64 0 -98.5 -21t-34.5 -49
q0 -35 35 -54t106 -28q116 16 116 84q0 26 -30.5 47t-93.5 21zM776 -20q71 0 110 22.5t39 55.5q0 79 -162 97q-64 -9 -99 -34.5t-35 -58.5q0 -35 39.5 -58.5t107.5 -23.5zM232 393v384h-2l-99 -46l-12 27l113 52h35v-417h-35zM805 810l-570 -860h-41l571 860h40z" />
    <glyph glyph-name="Japan1.9797" 
d="M713 171v2q-97 23 -97 92q0 45 47.5 73.5t119.5 28.5t114 -27t42 -69q0 -19 -6.5 -36.5t-30.5 -36.5t-64 -27v-2q62 -11 92 -39.5t30 -65.5q0 -52 -54.5 -83t-128.5 -31q-78 0 -130.5 29t-52.5 79q0 38 30.5 68.5t88.5 44.5zM782 337q-64 0 -98.5 -21t-34.5 -49
q0 -35 35 -54t106 -28q116 16 116 84q0 26 -30.5 47t-93.5 21zM776 -20q71 0 110 22.5t39 55.5q0 79 -162 97q-64 -9 -99 -34.5t-35 -58.5q0 -35 39.5 -58.5t107.5 -23.5zM40 422l12 27q54 -26 139 -26q89 0 122.5 27t33.5 59q0 90 -183 90h-42v30h44q61 0 108.5 20t47.5 59
q0 30 -28.5 51t-92.5 21q-67 0 -123 -32l-14 27q61 35 140 35q78 0 115.5 -29.5t37.5 -68.5q0 -34 -28 -60t-80 -35v-2q61 -3 97 -30.5t36 -74.5q0 -50 -50 -83.5t-149 -33.5q-85 0 -143 29zM805 810l-570 -860h-41l571 860h40z" />
    <glyph glyph-name="Japan1.9798" 
d="M713 171v2q-97 23 -97 92q0 45 47.5 73.5t119.5 28.5t114 -27t42 -69q0 -19 -6.5 -36.5t-30.5 -36.5t-64 -27v-2q62 -11 92 -39.5t30 -65.5q0 -52 -54.5 -83t-128.5 -31q-78 0 -130.5 29t-52.5 79q0 38 30.5 68.5t88.5 44.5zM782 337q-64 0 -98.5 -21t-34.5 -49
q0 -35 35 -54t106 -28q116 16 116 84q0 26 -30.5 47t-93.5 21zM776 -20q71 0 110 22.5t39 55.5q0 79 -162 97q-64 -9 -99 -34.5t-35 -58.5q0 -35 39.5 -58.5t107.5 -23.5zM805 810l-570 -860h-41l571 860h40zM352 803v-30h-216l-24 -124q17 4 55 4q31 0 61 -5.5t60 -18.5
t48 -39t18 -62q0 -63 -50 -99t-133 -36q-85 0 -131 29l15 26q46 -25 119 -25q65 0 105 28t40 73q0 99 -162 99q-43 0 -87 -8l36 188h246z" />
    <glyph glyph-name="Japan1.9799" 
d="M713 171v2q-97 23 -97 92q0 45 47.5 73.5t119.5 28.5t114 -27t42 -69q0 -19 -6.5 -36.5t-30.5 -36.5t-64 -27v-2q62 -11 92 -39.5t30 -65.5q0 -52 -54.5 -83t-128.5 -31q-78 0 -130.5 29t-52.5 79q0 38 30.5 68.5t88.5 44.5zM782 337q-64 0 -98.5 -21t-34.5 -49
q0 -35 35 -54t106 -28q116 16 116 84q0 26 -30.5 47t-93.5 21zM776 -20q71 0 110 22.5t39 55.5q0 79 -162 97q-64 -9 -99 -34.5t-35 -58.5q0 -35 39.5 -58.5t107.5 -23.5zM805 810l-570 -860h-41l571 860h40zM40 803h333v-25l-226 -385h-41l223 378v2h-289v30z" />
    <glyph glyph-name="Japan1.9800" 
d="M663 -50v30q119 0 186 53t75 122h-1q-21 -26 -59.5 -43.5t-87.5 -17.5q-76 0 -122 36t-46 97q0 58 46.5 99t129.5 41q76 0 126 -43t50 -128q0 -115 -86.5 -180.5t-210.5 -65.5zM778 337q-64 0 -99.5 -30t-35.5 -79q0 -52 37.5 -78t102.5 -26q56 0 99 28t43 53
q0 59 -38 95.5t-109 36.5zM232 393v384h-2l-99 -46l-12 27l113 52h35v-417h-35zM805 810l-570 -860h-41l571 860h40z" />
    <glyph glyph-name="Japan1.9801" 
d="M663 -50v30q119 0 186 53t75 122h-1q-21 -26 -59.5 -43.5t-87.5 -17.5q-76 0 -122 36t-46 97q0 58 46.5 99t129.5 41q76 0 126 -43t50 -128q0 -115 -86.5 -180.5t-210.5 -65.5zM778 337q-64 0 -99.5 -30t-35.5 -79q0 -52 37.5 -78t102.5 -26q56 0 99 28t43 53
q0 59 -38 95.5t-109 36.5zM371 400h-331v17l52 38q141 103 185 145.5t44 88.5q0 39 -25 65t-83 26q-74 0 -121 -49l-21 23q57 56 146 56q71 0 105 -35.5t34 -76.5q0 -21 -4.5 -39t-20 -39t-28.5 -35.5t-49 -43.5l-60.5 -47.5l-82.5 -61.5v-2h260v-30zM805 810l-570 -860h-41
l571 860h40z" />
    <glyph glyph-name="Japan1.9802" 
d="M337 393h-35v118h-262v26l264 273h33v-269h83v-30h-83v-118zM87 541h215v175q0 30 3 52h-2q-81 -87 -106 -112l-110 -113v-2zM663 -50v30q119 0 186 53t75 122h-1q-21 -26 -59.5 -43.5t-87.5 -17.5q-76 0 -122 36t-46 97q0 58 46.5 99t129.5 41q76 0 126 -43t50 -128
q0 -115 -86.5 -180.5t-210.5 -65.5zM778 337q-64 0 -99.5 -30t-35.5 -79q0 -52 37.5 -78t102.5 -26q56 0 99 28t43 53q0 59 -38 95.5t-109 36.5zM805 810l-570 -860h-41l571 860h40z" />
    <glyph glyph-name="Japan1.9803" 
d="M663 -50v30q119 0 186 53t75 122h-1q-21 -26 -59.5 -43.5t-87.5 -17.5q-76 0 -122 36t-46 97q0 58 46.5 99t129.5 41q76 0 126 -43t50 -128q0 -115 -86.5 -180.5t-210.5 -65.5zM778 337q-64 0 -99.5 -30t-35.5 -79q0 -52 37.5 -78t102.5 -26q56 0 99 28t43 53
q0 59 -38 95.5t-109 36.5zM805 810l-570 -860h-41l571 860h40zM352 803v-30h-216l-24 -124q17 4 55 4q31 0 61 -5.5t60 -18.5t48 -39t18 -62q0 -63 -50 -99t-133 -36q-85 0 -131 29l15 26q46 -25 119 -25q65 0 105 28t40 73q0 99 -162 99q-43 0 -87 -8l36 188h246z" />
    <glyph glyph-name="Japan1.9804" 
d="M663 -50v30q119 0 186 53t75 122h-1q-21 -26 -59.5 -43.5t-87.5 -17.5q-76 0 -122 36t-46 97q0 58 46.5 99t129.5 41q76 0 126 -43t50 -128q0 -115 -86.5 -180.5t-210.5 -65.5zM778 337q-64 0 -99.5 -30t-35.5 -79q0 -52 37.5 -78t102.5 -26q56 0 99 28t43 53
q0 59 -38 95.5t-109 36.5zM805 810l-570 -860h-41l571 860h40zM40 803h333v-25l-226 -385h-41l223 378v2h-289v30z" />
    <glyph glyph-name="Japan1.9805" 
d="M159 614v2q-97 23 -97 92q0 45 47.5 73.5t119.5 28.5t114 -27t42 -69q0 -19 -6.5 -36.5t-30.5 -36.5t-64 -27v-2q62 -11 92 -39.5t30 -65.5q0 -52 -54.5 -83t-128.5 -31q-78 0 -130.5 29t-52.5 79q0 38 30.5 68.5t88.5 44.5zM228 780q-64 0 -98.5 -21t-34.5 -49
q0 -35 35 -54t106 -28q116 16 116 84q0 26 -30.5 47t-93.5 21zM222 423q71 0 110 22.5t39 55.5q0 79 -162 97q-64 -9 -99 -34.5t-35 -58.5q0 -35 39.5 -58.5t107.5 -23.5zM663 -50v30q119 0 186 53t75 122h-1q-21 -26 -59.5 -43.5t-87.5 -17.5q-76 0 -122 36t-46 97
q0 58 46.5 99t129.5 41q76 0 126 -43t50 -128q0 -115 -86.5 -180.5t-210.5 -65.5zM778 337q-64 0 -99.5 -30t-35.5 -79q0 -52 37.5 -78t102.5 -26q56 0 99 28t43 53q0 59 -38 95.5t-109 36.5zM805 810l-570 -860h-41l571 860h40z" />
    <glyph glyph-name="Japan1.9806" 
d="M809 -50q-69 0 -107.5 60t-38.5 146q0 103 44.5 157t107.5 54q66 0 105.5 -51t39.5 -150q0 -106 -39.5 -161t-111.5 -55zM809 -20q43 0 70.5 28t36.5 66t9 87q0 176 -113 176q-51 0 -82.5 -48t-31.5 -128q0 -85 30 -133t81 -48zM210 393v384h-2l-99 -46l-12 27l113 52h35
v-417h-35zM740 810l-570 -860h-41l571 860h40zM557 -50v380h-2l-69 -35l-11 31l82 41h35v-417h-35z" />
    <glyph glyph-name="Japan1.9807" 
d="M809 -50q-69 0 -107.5 60t-38.5 146q0 103 44.5 157t107.5 54q66 0 105.5 -51t39.5 -150q0 -106 -39.5 -161t-111.5 -55zM809 -20q43 0 70.5 28t36.5 66t9 87q0 176 -113 176q-51 0 -82.5 -48t-31.5 -128q0 -85 30 -133t81 -48zM40 422l14 26q45 -25 122 -25q42 0 71 9
t42.5 23.5t18.5 27t5 26.5q0 90 -161 90h-38v30h40q54 0 95 20t41 59q0 30 -24.5 51t-80.5 21q-61 0 -108 -31l-15 26q55 35 126 35q70 0 103.5 -29.5t33.5 -68.5q0 -34 -25 -60t-72 -35v-2q55 -3 87.5 -30.5t32.5 -74.5q0 -50 -45 -83.5t-134 -33.5q-76 0 -129 29zM740 810
l-570 -860h-41l571 860h40zM557 -50v380h-2l-69 -35l-11 31l82 41h35v-417h-35z" />
    <glyph glyph-name="Japan1.9808" 
d="M809 -50q-69 0 -107.5 60t-38.5 146q0 103 44.5 157t107.5 54q66 0 105.5 -51t39.5 -150q0 -106 -39.5 -161t-111.5 -55zM809 -20q43 0 70.5 28t36.5 66t9 87q0 176 -113 176q-51 0 -82.5 -48t-31.5 -128q0 -85 30 -133t81 -48zM740 810l-570 -860h-41l571 860h40z
M40 803h303v-25l-204 -385h-40l201 378v2h-260v30zM557 -50v380h-2l-69 -35l-11 31l82 41h35v-417h-35z" />
    <glyph glyph-name="Japan1.9809" 
d="M90 393v30q106 0 164.5 53t65.5 122h-2q-18 -26 -52.5 -43.5t-76.5 -17.5q-67 0 -108 36t-41 97q0 58 42 99t117 41q68 0 113 -43t45 -128q0 -115 -78 -180.5t-189 -65.5zM193 780q-56 0 -87 -30t-31 -79q0 -52 33 -78t90 -26q48 0 86 28.5t38 52.5q0 58 -33.5 95
t-95.5 37zM809 -50q-69 0 -107.5 60t-38.5 146q0 103 44.5 157t107.5 54q66 0 105.5 -51t39.5 -150q0 -106 -39.5 -161t-111.5 -55zM809 -20q43 0 70.5 28t36.5 66t9 87q0 176 -113 176q-51 0 -82.5 -48t-31.5 -128q0 -85 30 -133t81 -48zM740 810l-570 -860h-41l571 860h40
zM557 -50v380h-2l-69 -35l-11 31l82 41h35v-417h-35z" />
    <glyph glyph-name="Japan1.9810" 
d="M210 393v384h-2l-99 -46l-12 27l113 52h35v-417h-35zM740 810l-570 -860h-41l571 860h40zM592 -50v380h-2l-69 -35l-11 31l82 41h35v-417h-35zM893 -50v380h-2l-69 -35l-11 31l82 41h35v-417h-35z" />
    <glyph glyph-name="Japan1.9811" 
d="M338 400h-298v17l47 38q123 100 162.5 144t39.5 90q0 39 -22 65t-73 26q-32 0 -61 -14.5t-46 -34.5l-19 23q52 56 131 56q64 0 94.5 -35.5t30.5 -76.5q0 -55 -41.5 -106t-176.5 -160v-2h232v-30zM740 810l-570 -860h-41l571 860h40zM592 -50v380h-2l-69 -35l-11 31l82 41
h35v-417h-35zM893 -50v380h-2l-69 -35l-11 31l82 41h35v-417h-35z" />
    <glyph glyph-name="Japan1.9812" 
d="M40 422l14 26q45 -25 122 -25q42 0 71 9t42.5 23.5t18.5 27t5 26.5q0 90 -161 90h-38v30h40q54 0 95 20t41 59q0 30 -24.5 51t-80.5 21q-61 0 -108 -31l-15 26q55 35 126 35q70 0 103.5 -29.5t33.5 -68.5q0 -34 -25 -60t-72 -35v-2q55 -3 87.5 -30.5t32.5 -74.5
q0 -50 -45 -83.5t-134 -33.5q-76 0 -129 29zM740 810l-570 -860h-41l571 860h40zM592 -50v380h-2l-69 -35l-11 31l82 41h35v-417h-35zM893 -50v380h-2l-69 -35l-11 31l82 41h35v-417h-35z" />
    <glyph glyph-name="Japan1.9813" 
d="M307 393l-35 -1v118h-232v27l238 273h29v-270h75v-30h-75v-117zM85 540h187v175q0 23 3 46h-1q-35 -43 -90 -105l-99 -113v-3zM740 810l-570 -860h-41l571 860h40zM592 -50v380h-2l-69 -35l-11 31l82 41h35v-417h-35zM893 -50v380h-2l-69 -35l-11 31l82 41h35v-417h-35z
" />
    <glyph glyph-name="Japan1.9814" 
d="M740 810l-570 -860h-41l571 860h40zM321 803v-30h-195l-21 -124q15 4 49 4q67 0 118 -29.5t51 -95.5q0 -63 -45 -99t-120 -36q-77 0 -118 29l14 26q42 -25 107 -25q57 0 92 28t35 73q0 99 -143 99q-38 0 -78 -8l32 188h222zM592 -50v380h-2l-69 -35l-11 31l82 41h35v-417
h-35zM893 -50v380h-2l-69 -35l-11 31l82 41h35v-417h-35z" />
    <glyph glyph-name="Japan1.9815" 
d="M307 810v-30q-106 0 -164.5 -53t-65.5 -122h2q18 26 52.5 43.5t76.5 17.5q67 0 108 -36t41 -97q0 -58 -42 -99t-117 -41q-68 0 -113 43t-45 128q0 115 78 180.5t189 65.5zM204 423q56 0 87 30t31 79q0 52 -33 78t-90 26q-48 0 -86 -28.5t-38 -52.5q0 -58 33.5 -95
t95.5 -37zM740 810l-570 -860h-41l571 860h40zM592 -50v380h-2l-69 -35l-11 31l82 41h35v-417h-35zM893 -50v380h-2l-69 -35l-11 31l82 41h35v-417h-35z" />
    <glyph glyph-name="Japan1.9816" 
d="M740 810l-570 -860h-41l571 860h40zM40 803h303v-25l-204 -385h-40l201 378v2h-260v30zM592 -50v380h-2l-69 -35l-11 31l82 41h35v-417h-35zM893 -50v380h-2l-69 -35l-11 31l82 41h35v-417h-35z" />
    <glyph glyph-name="Japan1.9817" 
d="M147 614v2q-87 22 -87 92q0 45 42.5 73.5t107.5 28.5t102.5 -27t37.5 -69q0 -80 -90 -100v-2q55 -11 82 -39.5t27 -65.5q0 -52 -48.5 -83t-115.5 -31q-70 0 -117.5 29t-47.5 79q0 38 27.5 68.5t79.5 44.5zM209 780q-56 0 -86 -21t-30 -49q0 -35 30.5 -54t92.5 -28
q101 16 101 84q0 26 -26.5 47t-81.5 21zM204 423q61 0 95.5 23t34.5 55q0 79 -142 97q-56 -9 -86.5 -34.5t-30.5 -58.5q0 -35 34.5 -58.5t94.5 -23.5zM740 810l-570 -860h-41l571 860h40zM592 -50v380h-2l-69 -35l-11 31l82 41h35v-417h-35zM893 -50v380h-2l-69 -35l-11 31
l82 41h35v-417h-35z" />
    <glyph glyph-name="Japan1.9818" 
d="M90 393v30q106 0 164.5 53t65.5 122h-2q-18 -26 -52.5 -43.5t-76.5 -17.5q-67 0 -108 36t-41 97q0 58 42 99t117 41q68 0 113 -43t45 -128q0 -115 -78 -180.5t-189 -65.5zM193 780q-56 0 -87 -30t-31 -79q0 -52 33 -78t90 -26q48 0 86 28.5t38 52.5q0 58 -33.5 95
t-95.5 37zM740 810l-570 -860h-41l571 860h40zM592 -50v380h-2l-69 -35l-11 31l82 41h35v-417h-35zM893 -50v380h-2l-69 -35l-11 31l82 41h35v-417h-35z" />
    <glyph glyph-name="Japan1.9819" 
d="M340 393q-60 0 -92 61.5t-32 144.5q0 103 38 157t91 54q56 0 89.5 -51t33.5 -150q0 -106 -33.5 -161t-94.5 -55zM341 423q46 0 69 48t23 133q0 176 -90 176q-41 0 -66 -48t-25 -128q0 -85 24 -133t65 -48zM122 393v380h-2l-69 -35l-11 31l82 41h35v-417h-35zM805 810
l-570 -860h-41l571 860h40zM639 -50v380h-2l-69 -35l-11 31l82 41h35v-417h-35zM893 -50v380h-2l-69 -35l-11 31l82 41h35v-417h-35z" />
    <glyph glyph-name="Japan1.9820" 
d="M210 393v384h-2l-99 -46l-12 27l113 52h35v-417h-35zM740 810l-570 -860h-41l571 860h40zM592 -50v380h-2l-69 -35l-11 31l82 41h35v-417h-35zM960 -50h-259v17l36 33q106 96 143 145.5t37 98.5q0 40 -19 66.5t-61 26.5q-45 0 -83 -47l-23 20q45 57 114 57
q54 0 80.5 -36.5t26.5 -77.5q0 -63 -38.5 -116t-148.5 -152v-1h195v-34z" />
    <glyph glyph-name="Japan1.9821" 
d="M740 810l-570 -860h-41l571 860h40zM321 803v-30h-195l-21 -124q15 4 49 4q67 0 118 -29.5t51 -95.5q0 -63 -45 -99t-120 -36q-77 0 -118 29l14 26q42 -25 107 -25q57 0 92 28t35 73q0 99 -143 99q-38 0 -78 -8l32 188h222zM592 -50v380h-2l-69 -35l-11 31l82 41h35v-417
h-35zM960 -50h-259v17l36 33q106 96 143 145.5t37 98.5q0 40 -19 66.5t-61 26.5q-45 0 -83 -47l-23 20q45 57 114 57q54 0 80.5 -36.5t26.5 -77.5q0 -63 -38.5 -116t-148.5 -152v-1h195v-34z" />
    <glyph glyph-name="Japan1.9822" 
d="M740 810l-570 -860h-41l571 860h40zM40 803h303v-25l-204 -385h-40l201 378v2h-260v30zM592 -50v380h-2l-69 -35l-11 31l82 41h35v-417h-35zM960 -50h-259v17l36 33q106 96 143 145.5t37 98.5q0 40 -19 66.5t-61 26.5q-45 0 -83 -47l-23 20q45 57 114 57q54 0 80.5 -36.5
t26.5 -77.5q0 -63 -38.5 -116t-148.5 -152v-1h195v-34z" />
    <glyph glyph-name="Japan1.9823" 
d="M122 393v380h-2l-69 -35l-11 31l82 41h35v-417h-35zM777 810l-570 -860h-41l571 860h40zM376 393v380h-2l-69 -35l-11 31l82 41h35v-417h-35zM592 -50v380h-2l-69 -35l-11 31l82 41h35v-417h-35zM960 -50h-259v17l36 33q106 96 143 145.5t37 98.5q0 40 -19 66.5t-61 26.5
q-45 0 -83 -47l-23 20q45 57 114 57q54 0 80.5 -36.5t26.5 -77.5q0 -63 -38.5 -116t-148.5 -152v-1h195v-34z" />
    <glyph glyph-name="Japan1.9824" 
d="M666 -50q-16 0 -29 7t-26 26.5t-20.5 63.5t-7.5 109q0 113 22 162t64 49q43 0 62.5 -46.5t19.5 -154.5q0 -116 -19.5 -166t-65.5 -50zM667 -20q25 0 37 41t12 140q0 93 -10 134.5t-38 41.5q-49 0 -49 -176q0 -96 11 -138.5t37 -42.5zM876 -50q-16 0 -29 7t-26 26.5
t-20.5 63.5t-7.5 109q0 113 22 162t64 49q43 0 62.5 -46.5t19.5 -154.5q0 -116 -19.5 -166t-65.5 -50zM877 -20q25 0 37 41t12 140q0 93 -10 134.5t-38 41.5q-49 0 -49 -176q0 -96 11 -138.5t37 -42.5zM673 810l-570 -860h-41l571 860h40zM183 393v384h-2l-99 -46l-12 27
l113 52h35v-417h-35zM497 -50v380h-2l-69 -35l-11 31l82 41h35v-417h-35z" />
    <glyph glyph-name="Japan1.9825" 
d="M498 460q-68 0 -114.5 48.5t-46.5 138.5q0 94 48.5 143.5t117.5 49.5q73 0 116.5 -46.5t43.5 -136.5q0 -96 -43.5 -146.5t-121.5 -50.5zM498 490q130 0 130 163q0 74 -31.5 115.5t-95.5 41.5q-57 0 -93 -43t-36 -114q0 -77 34.5 -120t91.5 -43zM940 397v-34h-880v34h880z
M341 -53l14 26q46 -23 126 -23t110.5 23.5t30.5 52.5q0 80 -165 80h-40v30h41q56 0 98.5 18t42.5 53q0 27 -25.5 45t-83.5 18q-63 0 -113 -28l-14 26q59 32 130 32q72 0 106.5 -27t34.5 -63q0 -31 -26 -54t-74 -32v-2q56 -2 89.5 -27.5t33.5 -67.5q0 -46 -46 -76.5
t-138 -30.5q-83 0 -132 27z" />
    <glyph glyph-name="Japan1.9826" 
d="M497 460v351h-2l-91 -41l-11 24l104 46h35v-380h-35zM940 397v-34h-880v34h880zM653 -73h-306v14l48 36q140 107 165 132q44 43 44 81q0 34 -23 57t-76 23q-66 0 -110 -44l-20 23q52 51 135 51q66 0 97.5 -32.5t31.5 -69.5q0 -47 -39.5 -91t-179.5 -148v-2h233v-30z" />
    <glyph glyph-name="Japan1.9827" 
d="M497 460v351h-2l-91 -41l-11 24l104 46h35v-380h-35zM940 397v-34h-880v34h880zM341 -53l14 26q46 -23 126 -23t110.5 23.5t30.5 52.5q0 80 -165 80h-40v30h41q56 0 98.5 18t42.5 53q0 27 -25.5 45t-83.5 18q-63 0 -113 -28l-14 26q59 32 130 32q72 0 106.5 -27t34.5 -63
q0 -31 -26 -54t-74 -32v-2q56 -2 89.5 -27.5t33.5 -67.5q0 -46 -46 -76.5t-138 -30.5q-83 0 -132 27z" />
    <glyph glyph-name="Japan1.9828" 
d="M653 467h-306v14l48 36q140 107 165 132q44 43 44 81q0 34 -23 57t-76 23q-66 0 -110 -44l-20 23q52 51 135 51q66 0 97.5 -32.5t31.5 -69.5q0 -47 -39.5 -91t-179.5 -148v-2h233v-30zM940 397v-34h-880v34h880zM341 -53l14 26q46 -23 126 -23t110.5 23.5t30.5 52.5
q0 80 -165 80h-40v30h41q56 0 98.5 18t42.5 53q0 27 -25.5 45t-83.5 18q-63 0 -113 -28l-14 26q59 32 130 32q72 0 106.5 -27t34.5 -63q0 -31 -26 -54t-74 -32v-2q56 -2 89.5 -27.5t33.5 -67.5q0 -46 -46 -76.5t-138 -30.5q-83 0 -132 27z" />
    <glyph glyph-name="Japan1.9829" 
d="M596 -80h-35v102h-242v25l244 242h33v-237h77v-30h-77v-102zM369 52h192v140q0 36 3 56h-2q-24 -26 -95 -97l-98 -97v-2zM497 460v351h-2l-91 -41l-11 24l104 46h35v-380h-35zM940 397v-34h-880v34h880z" />
    <glyph glyph-name="Japan1.9830" 
d="M596 -80h-35v102h-242v25l244 242h33v-237h77v-30h-77v-102zM369 52h192v140q0 36 3 56h-2q-24 -26 -95 -97l-98 -97v-2zM348 487l14 26q46 -23 126 -23t110.5 23.5t30.5 52.5q0 80 -165 80h-40v30h41q56 0 98.5 18t42.5 53q0 27 -25.5 45t-83.5 18q-63 0 -113 -28
l-14 26q59 32 130 32q72 0 106.5 -27t34.5 -63q0 -31 -26 -54t-74 -32v-2q56 -2 89.5 -27.5t33.5 -67.5q0 -46 -46 -76.5t-138 -30.5q-82 0 -132 27zM940 397v-34h-880v34h880z" />
    <glyph glyph-name="Japan1.9831" 
d="M497 460v351h-2l-91 -41l-11 24l104 46h35v-380h-35zM940 397v-34h-880v34h880zM642 293v-30h-200l-22 -109q24 4 51 4q80 0 126.5 -30.5t46.5 -85.5q0 -57 -46 -89.5t-123 -32.5q-82 0 -121 27l14 25q40 -22 110 -22q58 0 94.5 25t36.5 65q0 88 -147 88q-39 0 -81 -8
l34 173h227z" />
    <glyph glyph-name="Japan1.9832" 
d="M653 467h-306v14l48 36q140 107 165 132q44 43 44 81q0 34 -23 57t-76 23q-66 0 -110 -44l-20 23q52 51 135 51q66 0 97.5 -32.5t31.5 -69.5q0 -47 -39.5 -91t-179.5 -148v-2h233v-30zM940 397v-34h-880v34h880zM642 293v-30h-200l-22 -109q24 4 51 4q80 0 126.5 -30.5
t46.5 -85.5q0 -57 -46 -89.5t-123 -32.5q-82 0 -121 27l14 25q40 -22 110 -22q58 0 94.5 25t36.5 65q0 88 -147 88q-39 0 -81 -8l34 173h227z" />
    <glyph glyph-name="Japan1.9833" 
d="M348 487l14 26q46 -23 126 -23t110.5 23.5t30.5 52.5q0 80 -165 80h-40v30h41q56 0 98.5 18t42.5 53q0 27 -25.5 45t-83.5 18q-63 0 -113 -28l-14 26q59 32 130 32q72 0 106.5 -27t34.5 -63q0 -31 -26 -54t-74 -32v-2q56 -2 89.5 -27.5t33.5 -67.5q0 -46 -46 -76.5
t-138 -30.5q-82 0 -132 27zM940 397v-34h-880v34h880zM642 293v-30h-200l-22 -109q24 4 51 4q80 0 126.5 -30.5t46.5 -85.5q0 -57 -46 -89.5t-123 -32.5q-82 0 -121 27l14 25q40 -22 110 -22q58 0 94.5 25t36.5 65q0 88 -147 88q-39 0 -81 -8l34 173h227z" />
    <glyph glyph-name="Japan1.9834" 
d="M596 460h-35v102h-242v25l244 242h33v-237h77v-30h-77v-102zM369 592h192v140q0 36 3 56h-2q-24 -26 -95 -97l-98 -97v-2zM940 397v-34h-880v34h880zM642 293v-30h-200l-22 -109q24 4 51 4q80 0 126.5 -30.5t46.5 -85.5q0 -57 -46 -89.5t-123 -32.5q-82 0 -121 27l14 25
q40 -22 110 -22q58 0 94.5 25t36.5 65q0 88 -147 88q-39 0 -81 -8l34 173h227z" />
    <glyph glyph-name="Japan1.9835" 
d="M612 300v-30q-115 0 -173 -49t-65 -107h1q48 56 132 56q71 0 113.5 -33.5t42.5 -88.5q0 -53 -43 -90.5t-120 -37.5q-70 0 -116.5 39t-46.5 116q0 101 77.5 163t197.5 62zM505 -50q58 0 90.5 27t32.5 70q0 47 -34 70t-94 23q-51 0 -89.5 -25t-38.5 -48q0 -52 34.5 -84.5
t98.5 -32.5zM940 397v-34h-880v34h880zM497 460v351h-2l-91 -41l-11 24l104 46h35v-380h-35z" />
    <glyph glyph-name="Japan1.9836" 
d="M612 300v-30q-115 0 -173 -49t-65 -107h1q48 56 132 56q71 0 113.5 -33.5t42.5 -88.5q0 -53 -43 -90.5t-120 -37.5q-70 0 -116.5 39t-46.5 116q0 101 77.5 163t197.5 62zM505 -50q58 0 90.5 27t32.5 70q0 47 -34 70t-94 23q-51 0 -89.5 -25t-38.5 -48q0 -52 34.5 -84.5
t98.5 -32.5zM940 397v-34h-880v34h880zM642 833v-30h-200l-22 -109q24 4 51 4q80 0 126.5 -30.5t46.5 -85.5q0 -57 -46 -89.5t-123 -32.5q-82 0 -121 27l14 25q40 -22 110 -22q58 0 94.5 25t36.5 65q0 88 -147 88q-39 0 -81 -8l34 173h227z" />
    <glyph glyph-name="Japan1.9837" 
d="M497 460v351h-2l-91 -41l-11 24l104 46h35v-380h-35zM940 397v-34h-880v34h880zM346 293h308v-23l-206 -350h-41l203 342v1h-264v30z" />
    <glyph glyph-name="Japan1.9838" 
d="M653 467h-306v14l48 36q140 107 165 132q44 43 44 81q0 34 -23 57t-76 23q-66 0 -110 -44l-20 23q52 51 135 51q66 0 97.5 -32.5t31.5 -69.5q0 -47 -39.5 -91t-179.5 -148v-2h233v-30zM940 397v-34h-880v34h880zM346 293h308v-23l-206 -350h-41l203 342v1h-264v30z" />
    <glyph glyph-name="Japan1.9839" 
d="M348 487l14 26q46 -23 126 -23t110.5 23.5t30.5 52.5q0 80 -165 80h-40v30h41q56 0 98.5 18t42.5 53q0 27 -25.5 45t-83.5 18q-63 0 -113 -28l-14 26q59 32 130 32q72 0 106.5 -27t34.5 -63q0 -31 -26 -54t-74 -32v-2q56 -2 89.5 -27.5t33.5 -67.5q0 -46 -46 -76.5
t-138 -30.5q-82 0 -132 27zM940 397v-34h-880v34h880zM346 293h308v-23l-206 -350h-41l203 342v1h-264v30z" />
    <glyph glyph-name="Japan1.9840" 
d="M596 460h-35v102h-242v25l244 242h33v-237h77v-30h-77v-102zM369 592h192v140q0 36 3 56h-2q-24 -26 -95 -97l-98 -97v-2zM940 397v-34h-880v34h880zM346 293h308v-23l-206 -350h-41l203 342v1h-264v30z" />
    <glyph glyph-name="Japan1.9841" 
d="M642 833v-30h-200l-22 -109q24 4 51 4q80 0 126.5 -30.5t46.5 -85.5q0 -57 -46 -89.5t-123 -32.5q-82 0 -121 27l14 25q40 -22 110 -22q58 0 94.5 25t36.5 65q0 88 -147 88q-39 0 -81 -8l34 173h227zM940 397v-34h-880v34h880zM346 293h308v-23l-206 -350h-41l203 342v1
h-264v30z" />
    <glyph glyph-name="Japan1.9842" 
d="M612 840v-30q-115 0 -173 -49t-65 -107h1q48 56 132 56q71 0 113.5 -33.5t42.5 -88.5q0 -53 -43 -90.5t-120 -37.5q-70 0 -116.5 39t-46.5 116q0 101 77.5 163t197.5 62zM505 490q58 0 90.5 27t32.5 70q0 47 -34 70t-94 23q-51 0 -89.5 -25t-38.5 -48q0 -52 34.5 -84.5
t98.5 -32.5zM940 397v-34h-880v34h880zM346 293h308v-23l-206 -350h-41l203 342v1h-264v30z" />
    <glyph glyph-name="Japan1.9843" 
d="M441 122v1q-90 20 -90 84q0 41 44 67t111 26t105.5 -24.5t38.5 -63.5q0 -28 -20 -54t-73 -36v-2q57 -10 84.5 -36t27.5 -60q0 -47 -50 -75.5t-119 -28.5q-71 0 -120 26.5t-49 72.5q0 34 28.5 62t81.5 41zM505 270q-59 0 -90 -18.5t-31 -42.5q0 -32 31.5 -48.5t96.5 -24.5
q105 14 105 74q0 23 -27 41.5t-85 18.5zM499 -50q64 0 99.5 20t35.5 49q0 71 -147 86q-57 -7 -89 -30t-32 -53q0 -31 35.5 -51.5t97.5 -20.5zM497 460v351h-2l-91 -41l-11 24l104 46h35v-380h-35zM940 397v-34h-880v34h880z" />
    <glyph glyph-name="Japan1.9844" 
d="M441 122v1q-90 20 -90 84q0 41 44 67t111 26t105.5 -24.5t38.5 -63.5q0 -28 -20 -54t-73 -36v-2q57 -10 84.5 -36t27.5 -60q0 -47 -50 -75.5t-119 -28.5q-71 0 -120 26.5t-49 72.5q0 34 28.5 62t81.5 41zM505 270q-59 0 -90 -18.5t-31 -42.5q0 -32 31.5 -48.5t96.5 -24.5
q105 14 105 74q0 23 -27 41.5t-85 18.5zM499 -50q64 0 99.5 20t35.5 49q0 71 -147 86q-57 -7 -89 -30t-32 -53q0 -31 35.5 -51.5t97.5 -20.5zM348 487l14 26q46 -23 126 -23t110.5 23.5t30.5 52.5q0 80 -165 80h-40v30h41q56 0 98.5 18t42.5 53q0 27 -25.5 45t-83.5 18
q-63 0 -113 -28l-14 26q59 32 130 32q72 0 106.5 -27t34.5 -63q0 -31 -26 -54t-74 -32v-2q56 -2 89.5 -27.5t33.5 -67.5q0 -46 -46 -76.5t-138 -30.5q-82 0 -132 27zM940 397v-34h-880v34h880z" />
    <glyph glyph-name="Japan1.9845" 
d="M441 122v1q-90 20 -90 84q0 41 44 67t111 26t105.5 -24.5t38.5 -63.5q0 -28 -20 -54t-73 -36v-2q57 -10 84.5 -36t27.5 -60q0 -47 -50 -75.5t-119 -28.5q-71 0 -120 26.5t-49 72.5q0 34 28.5 62t81.5 41zM505 270q-59 0 -90 -18.5t-31 -42.5q0 -32 31.5 -48.5t96.5 -24.5
q105 14 105 74q0 23 -27 41.5t-85 18.5zM499 -50q64 0 99.5 20t35.5 49q0 71 -147 86q-57 -7 -89 -30t-32 -53q0 -31 35.5 -51.5t97.5 -20.5zM642 833v-30h-200l-22 -109q24 4 51 4q80 0 126.5 -30.5t46.5 -85.5q0 -57 -46 -89.5t-123 -32.5q-82 0 -121 27l14 25
q40 -22 110 -22q58 0 94.5 25t36.5 65q0 88 -147 88q-39 0 -81 -8l34 173h227zM940 397v-34h-880v34h880z" />
    <glyph glyph-name="Japan1.9846" 
d="M441 122v1q-90 20 -90 84q0 41 44 67t111 26t105.5 -24.5t38.5 -63.5q0 -28 -20 -54t-73 -36v-2q57 -10 84.5 -36t27.5 -60q0 -47 -50 -75.5t-119 -28.5q-71 0 -120 26.5t-49 72.5q0 34 28.5 62t81.5 41zM505 270q-59 0 -90 -18.5t-31 -42.5q0 -32 31.5 -48.5t96.5 -24.5
q105 14 105 74q0 23 -27 41.5t-85 18.5zM499 -50q64 0 99.5 20t35.5 49q0 71 -147 86q-57 -7 -89 -30t-32 -53q0 -31 35.5 -51.5t97.5 -20.5zM346 833h308v-23l-206 -350h-41l203 342v1h-264v30zM940 397v-34h-880v34h880z" />
    <glyph glyph-name="Japan1.9847" 
d="M388 -80v30q115 0 173 49t65 107h-1q-48 -56 -132 -56q-71 0 -113.5 33.5t-42.5 88.5q0 53 43 90.5t120 37.5q70 0 116.5 -39t46.5 -116q0 -101 -77.5 -163t-197.5 -62zM495 270q-58 0 -90.5 -27t-32.5 -70q0 -47 34 -70t94 -23q51 0 89.5 25t38.5 48q0 52 -34.5 84.5
t-98.5 32.5zM497 460v351h-2l-91 -41l-11 24l104 46h35v-380h-35zM940 397v-34h-880v34h880z" />
    <glyph glyph-name="Japan1.9848" 
d="M388 -80v30q115 0 173 49t65 107h-1q-48 -56 -132 -56q-71 0 -113.5 33.5t-42.5 88.5q0 53 43 90.5t120 37.5q70 0 116.5 -39t46.5 -116q0 -101 -77.5 -163t-197.5 -62zM495 270q-58 0 -90.5 -27t-32.5 -70q0 -47 34 -70t94 -23q51 0 89.5 25t38.5 48q0 52 -34.5 84.5
t-98.5 32.5zM653 467h-306v14l48 36q140 107 165 132q44 43 44 81q0 34 -23 57t-76 23q-66 0 -110 -44l-20 23q52 51 135 51q66 0 97.5 -32.5t31.5 -69.5q0 -47 -39.5 -91t-179.5 -148v-2h233v-30zM940 397v-34h-880v34h880z" />
    <glyph glyph-name="Japan1.9849" 
d="M596 460h-35v102h-242v25l244 242h33v-237h77v-30h-77v-102zM369 592h192v140q0 36 3 56h-2q-24 -26 -95 -97l-98 -97v-2zM388 -80v30q115 0 173 49t65 107h-1q-48 -56 -132 -56q-71 0 -113.5 33.5t-42.5 88.5q0 53 43 90.5t120 37.5q70 0 116.5 -39t46.5 -116
q0 -101 -77.5 -163t-197.5 -62zM495 270q-58 0 -90.5 -27t-32.5 -70q0 -47 34 -70t94 -23q51 0 89.5 25t38.5 48q0 52 -34.5 84.5t-98.5 32.5zM940 397v-34h-880v34h880z" />
    <glyph glyph-name="Japan1.9850" 
d="M388 -80v30q115 0 173 49t65 107h-1q-48 -56 -132 -56q-71 0 -113.5 33.5t-42.5 88.5q0 53 43 90.5t120 37.5q70 0 116.5 -39t46.5 -116q0 -101 -77.5 -163t-197.5 -62zM495 270q-58 0 -90.5 -27t-32.5 -70q0 -47 34 -70t94 -23q51 0 89.5 25t38.5 48q0 52 -34.5 84.5
t-98.5 32.5zM642 833v-30h-200l-22 -109q24 4 51 4q80 0 126.5 -30.5t46.5 -85.5q0 -57 -46 -89.5t-123 -32.5q-82 0 -121 27l14 25q40 -22 110 -22q58 0 94.5 25t36.5 65q0 88 -147 88q-39 0 -81 -8l34 173h227zM940 397v-34h-880v34h880z" />
    <glyph glyph-name="Japan1.9851" 
d="M388 -80v30q115 0 173 49t65 107h-1q-48 -56 -132 -56q-71 0 -113.5 33.5t-42.5 88.5q0 53 43 90.5t120 37.5q70 0 116.5 -39t46.5 -116q0 -101 -77.5 -163t-197.5 -62zM495 270q-58 0 -90.5 -27t-32.5 -70q0 -47 34 -70t94 -23q51 0 89.5 25t38.5 48q0 52 -34.5 84.5
t-98.5 32.5zM346 833h308v-23l-206 -350h-41l203 342v1h-264v30zM940 397v-34h-880v34h880z" />
    <glyph glyph-name="Japan1.9852" 
d="M441 662v1q-90 20 -90 84q0 41 44 67t111 26t105.5 -24.5t38.5 -63.5q0 -28 -20 -54t-73 -36v-2q57 -10 84.5 -36t27.5 -60q0 -47 -50 -75.5t-119 -28.5q-71 0 -120 26.5t-49 72.5q0 34 28.5 62t81.5 41zM505 810q-59 0 -90 -18.5t-31 -42.5q0 -32 31.5 -48.5t96.5 -24.5
q105 14 105 74q0 23 -27 41.5t-85 18.5zM499 490q64 0 99.5 20t35.5 49q0 71 -147 86q-57 -7 -89 -30t-32 -53q0 -31 35.5 -51.5t97.5 -20.5zM388 -80v30q115 0 173 49t65 107h-1q-48 -56 -132 -56q-71 0 -113.5 33.5t-42.5 88.5q0 53 43 90.5t120 37.5q70 0 116.5 -39
t46.5 -116q0 -101 -77.5 -163t-197.5 -62zM495 270q-58 0 -90.5 -27t-32.5 -70q0 -47 34 -70t94 -23q51 0 89.5 25t38.5 48q0 52 -34.5 84.5t-98.5 32.5zM940 397v-34h-880v34h880z" />
    <glyph glyph-name="Japan1.9853" 
d="M597 -80q-68 0 -114.5 48.5t-46.5 138.5q0 94 48.5 143.5t117.5 49.5q73 0 116.5 -46.5t43.5 -136.5q0 -96 -43.5 -146.5t-121.5 -50.5zM597 -50q130 0 130 163q0 74 -31.5 115.5t-95.5 41.5q-57 0 -93 -43t-36 -114q0 -77 34.5 -120t91.5 -43zM497 460v351h-2l-91 -41
l-11 24l104 46h35v-380h-35zM940 397v-34h-880v34h880zM327 -80v351h-2l-91 -41l-11 24l104 46h35v-380h-35z" />
    <glyph glyph-name="Japan1.9854" 
d="M597 -80q-68 0 -114.5 48.5t-46.5 138.5q0 94 48.5 143.5t117.5 49.5q73 0 116.5 -46.5t43.5 -136.5q0 -96 -43.5 -146.5t-121.5 -50.5zM597 -50q130 0 130 163q0 74 -31.5 115.5t-95.5 41.5q-57 0 -93 -43t-36 -114q0 -77 34.5 -120t91.5 -43zM348 487l14 26
q46 -23 126 -23t110.5 23.5t30.5 52.5q0 80 -165 80h-40v30h41q56 0 98.5 18t42.5 53q0 27 -25.5 45t-83.5 18q-63 0 -113 -28l-14 26q59 32 130 32q72 0 106.5 -27t34.5 -63q0 -31 -26 -54t-74 -32v-2q56 -2 89.5 -27.5t33.5 -67.5q0 -46 -46 -76.5t-138 -30.5
q-82 0 -132 27zM327 -80v351h-2l-91 -41l-11 24l104 46h35v-380h-35zM940 397v-34h-880v34h880z" />
    <glyph glyph-name="Japan1.9855" 
d="M597 -80q-68 0 -114.5 48.5t-46.5 138.5q0 94 48.5 143.5t117.5 49.5q73 0 116.5 -46.5t43.5 -136.5q0 -96 -43.5 -146.5t-121.5 -50.5zM597 -50q130 0 130 163q0 74 -31.5 115.5t-95.5 41.5q-57 0 -93 -43t-36 -114q0 -77 34.5 -120t91.5 -43zM346 833h308v-23
l-206 -350h-41l203 342v1h-264v30zM940 397v-34h-880v34h880zM327 -80v351h-2l-91 -41l-11 24l104 46h35v-380h-35z" />
    <glyph glyph-name="Japan1.9856" 
d="M388 460v30q115 0 173 49t65 107h-1q-48 -56 -132 -56q-71 0 -113.5 33.5t-42.5 88.5q0 53 43 90.5t120 37.5q70 0 116.5 -39t46.5 -116q0 -101 -77.5 -163t-197.5 -62zM495 810q-58 0 -90.5 -27t-32.5 -70q0 -47 34 -70t94 -23q51 0 89.5 25t38.5 48q0 52 -34.5 84.5
t-98.5 32.5zM597 -80q-68 0 -114.5 48.5t-46.5 138.5q0 94 48.5 143.5t117.5 49.5q73 0 116.5 -46.5t43.5 -136.5q0 -96 -43.5 -146.5t-121.5 -50.5zM597 -50q130 0 130 163q0 74 -31.5 115.5t-95.5 41.5q-57 0 -93 -43t-36 -114q0 -77 34.5 -120t91.5 -43zM940 397v-34
h-880v34h880zM327 -80v351h-2l-91 -41l-11 24l104 46h35v-380h-35z" />
    <glyph glyph-name="Japan1.9857" 
d="M940 397v-34h-880v34h880zM332 -80v351h-2l-91 -41l-11 24l104 46h35v-380h-35zM683 -80v351h-2l-91 -41l-11 24l104 46h35v-380h-35zM497 460v351h-2l-91 -41l-11 24l104 46h35v-380h-35z" />
    <glyph glyph-name="Japan1.9858" 
d="M940 397v-34h-880v34h880zM332 -80v351h-2l-91 -41l-11 24l104 46h35v-380h-35zM683 -80v351h-2l-91 -41l-11 24l104 46h35v-380h-35zM653 467h-306v14l48 36q140 107 165 132q44 43 44 81q0 34 -23 57t-76 23q-66 0 -110 -44l-20 23q52 51 135 51q66 0 97.5 -32.5
t31.5 -69.5q0 -47 -39.5 -91t-179.5 -148v-2h233v-30z" />
    <glyph glyph-name="Japan1.9859" 
d="M940 397v-34h-880v34h880zM332 -80v351h-2l-91 -41l-11 24l104 46h35v-380h-35zM683 -80v351h-2l-91 -41l-11 24l104 46h35v-380h-35zM348 487l14 26q46 -23 126 -23t110.5 23.5t30.5 52.5q0 80 -165 80h-40v30h41q56 0 98.5 18t42.5 53q0 27 -25.5 45t-83.5 18
q-63 0 -113 -28l-14 26q59 32 130 32q72 0 106.5 -27t34.5 -63q0 -31 -26 -54t-74 -32v-2q56 -2 89.5 -27.5t33.5 -67.5q0 -46 -46 -76.5t-138 -30.5q-82 0 -132 27z" />
    <glyph glyph-name="Japan1.9860" 
d="M940 397v-34h-880v34h880zM332 -80v351h-2l-91 -41l-11 24l104 46h35v-380h-35zM683 -80v351h-2l-91 -41l-11 24l104 46h35v-380h-35zM596 460h-35v102h-242v25l244 242h33v-237h77v-30h-77v-102zM369 592h192v140q0 36 3 56h-2q-24 -26 -95 -97l-98 -97v-2z" />
    <glyph glyph-name="Japan1.9861" 
d="M940 397v-34h-880v34h880zM332 -80v351h-2l-91 -41l-11 24l104 46h35v-380h-35zM683 -80v351h-2l-91 -41l-11 24l104 46h35v-380h-35zM642 833v-30h-200l-22 -109q24 4 51 4q80 0 126.5 -30.5t46.5 -85.5q0 -57 -46 -89.5t-123 -32.5q-82 0 -121 27l14 25q40 -22 110 -22
q58 0 94.5 25t36.5 65q0 88 -147 88q-39 0 -81 -8l34 173h227z" />
    <glyph glyph-name="Japan1.9862" 
d="M940 397v-34h-880v34h880zM332 -80v351h-2l-91 -41l-11 24l104 46h35v-380h-35zM683 -80v351h-2l-91 -41l-11 24l104 46h35v-380h-35zM612 840v-30q-115 0 -173 -49t-65 -107h1q48 56 132 56q71 0 113.5 -33.5t42.5 -88.5q0 -53 -43 -90.5t-120 -37.5q-70 0 -116.5 39
t-46.5 116q0 101 77.5 163t197.5 62zM506 490q56 0 89 26.5t33 70.5q0 47 -34 70t-94 23q-51 0 -89.5 -25t-38.5 -48q0 -51 33.5 -84t100.5 -33z" />
    <glyph glyph-name="Japan1.9863" 
d="M940 397v-34h-880v34h880zM332 -80v351h-2l-91 -41l-11 24l104 46h35v-380h-35zM683 -80v351h-2l-91 -41l-11 24l104 46h35v-380h-35zM346 833h308v-23l-206 -350h-41l203 342v1h-264v30z" />
    <glyph glyph-name="Japan1.9864" 
d="M441 662v1q-90 20 -90 84q0 41 44 67t111 26t105.5 -24.5t38.5 -63.5q0 -28 -20 -54t-73 -36v-2q57 -10 84.5 -36t27.5 -60q0 -47 -50 -75.5t-119 -28.5q-71 0 -120 26.5t-49 72.5q0 34 28.5 62t81.5 41zM505 810q-59 0 -90 -18.5t-31 -42.5q0 -32 31.5 -48.5t96.5 -24.5
q105 14 105 74q0 23 -27 41.5t-85 18.5zM499 490q64 0 99.5 20t35.5 49q0 71 -147 86q-57 -7 -89 -30t-32 -53q0 -31 35.5 -51.5t97.5 -20.5zM940 397v-34h-880v34h880zM332 -80v351h-2l-91 -41l-11 24l104 46h35v-380h-35zM683 -80v351h-2l-91 -41l-11 24l104 46h35v-380
h-35z" />
    <glyph glyph-name="Japan1.9865" 
d="M940 397v-34h-880v34h880zM332 -80v351h-2l-91 -41l-11 24l104 46h35v-380h-35zM683 -80v351h-2l-91 -41l-11 24l104 46h35v-380h-35zM388 460v30q115 0 173 49t65 107h-1q-48 -56 -132 -56q-71 0 -113.5 33.5t-42.5 88.5q0 53 43 90.5t120 37.5q70 0 116.5 -39
t46.5 -116q0 -101 -77.5 -163t-197.5 -62zM495 810q-58 0 -90.5 -27t-32.5 -70q0 -47 34 -70t94 -23q51 0 89.5 25t38.5 48q0 52 -34.5 84.5t-98.5 32.5z" />
    <glyph glyph-name="Japan1.9866" 
d="M940 397v-34h-880v34h880zM332 -80v351h-2l-91 -41l-11 24l104 46h35v-380h-35zM683 -80v351h-2l-91 -41l-11 24l104 46h35v-380h-35zM597 460q-68 0 -114.5 48.5t-46.5 138.5q0 94 48.5 143.5t117.5 49.5q73 0 116.5 -46.5t43.5 -136.5q0 -96 -43.5 -146.5t-121.5 -50.5
zM597 490q130 0 130 163q0 74 -31.5 115.5t-95.5 41.5q-57 0 -93 -43t-36 -114q0 -77 34.5 -120t91.5 -43zM327 460v351h-2l-91 -41l-11 24l104 46h35v-380h-35z" />
    <glyph glyph-name="Japan1.9867" 
d="M497 460v351h-2l-91 -41l-11 24l104 46h35v-380h-35zM940 397v-34h-880v34h880zM322 -80v351h-2l-91 -41l-11 24l104 46h35v-380h-35zM760 -73h-306v14l48 36q140 107 165 132q44 43 44 81q0 34 -23 57t-76 23q-66 0 -110 -44l-20 23q52 51 135 51q66 0 97.5 -32.5
t31.5 -69.5q0 -47 -39.5 -91t-179.5 -148v-2h233v-30z" />
    <glyph glyph-name="Japan1.9868" 
d="M642 833v-30h-200l-22 -109q24 4 51 4q80 0 126.5 -30.5t46.5 -85.5q0 -57 -46 -89.5t-123 -32.5q-82 0 -121 27l14 25q40 -22 110 -22q58 0 94.5 25t36.5 65q0 88 -147 88q-39 0 -81 -8l34 173h227zM940 397v-34h-880v34h880zM322 -80v351h-2l-91 -41l-11 24l104 46h35
v-380h-35zM760 -73h-306v14l48 36q140 107 165 132q44 43 44 81q0 34 -23 57t-76 23q-66 0 -110 -44l-20 23q52 51 135 51q66 0 97.5 -32.5t31.5 -69.5q0 -47 -39.5 -91t-179.5 -148v-2h233v-30z" />
    <glyph glyph-name="Japan1.9869" 
d="M346 833h308v-23l-206 -350h-41l203 342v1h-264v30zM940 397v-34h-880v34h880zM322 -80v351h-2l-91 -41l-11 24l104 46h35v-380h-35zM760 -73h-306v14l48 36q140 107 165 132q44 43 44 81q0 34 -23 57t-76 23q-66 0 -110 -44l-20 23q52 51 135 51q66 0 97.5 -32.5
t31.5 -69.5q0 -47 -39.5 -91t-179.5 -148v-2h233v-30z" />
    <glyph glyph-name="Japan1.9870" 
d="M322 460v351h-2l-91 -41l-11 24l104 46h35v-380h-35zM673 460v351h-2l-91 -41l-11 24l104 46h35v-380h-35zM940 397v-34h-880v34h880zM322 -80v351h-2l-91 -41l-11 24l104 46h35v-380h-35zM760 -73h-306v14l48 36q140 107 165 132q44 43 44 81q0 34 -23 57t-76 23
q-66 0 -110 -44l-20 23q52 51 135 51q66 0 97.5 -32.5t31.5 -69.5q0 -47 -39.5 -91t-179.5 -148v-2h233v-30z" />
    <glyph glyph-name="Japan1.9871" 
d="M457 -80q-55 0 -86.5 47.5t-31.5 139.5q0 97 34 145t88 48q117 0 117 -183q0 -197 -121 -197zM457 -50q45 0 65.5 38.5t20.5 124.5q0 77 -19 117t-65 40q-41 0 -63 -41.5t-22 -115.5q0 -163 83 -163zM753 -80q-55 0 -86.5 47.5t-31.5 139.5q0 97 34 145t88 48
q117 0 117 -183q0 -197 -121 -197zM753 -50q45 0 65.5 38.5t20.5 124.5q0 77 -19 117t-65 40q-41 0 -63 -41.5t-22 -115.5q0 -163 83 -163zM497 460v351h-2l-91 -41l-11 24l104 46h35v-380h-35zM940 397v-34h-880v34h880zM217 -80v351h-2l-91 -41l-11 24l104 46h35v-380h-35
z" />
    <glyph glyph-name="Japan1.9872" 
d="M500 -13q-90 0 -150 96t-60 285q0 194 64.5 291.5t148.5 97.5q95 0 151 -92t56 -287q0 -191 -58 -291t-152 -100zM498 17q87 0 132 97t45 255q0 358 -175 358q-71 0 -123 -92t-52 -272q0 -154 46 -250t127 -96z" />
    <glyph glyph-name="Japan1.9873" 
d="M522 -13v730h-2l-140 -86l-15 26l158 100h34v-770h-35z" />
    <glyph glyph-name="Japan1.9874" 
d="M710 0h-420v20l64 71q174 202 236.5 297.5t62.5 180.5q0 68 -34.5 113t-106.5 45q-48 0 -90 -28.5t-68 -68.5l-26 19q74 108 187 108q87 0 130 -53.5t43 -125.5q0 -54 -15.5 -103.5t-58 -113t-86.5 -117l-131 -152.5l-50 -58v-4h363v-30z" />
    <glyph glyph-name="Japan1.9875" 
d="M340 670l-19 26q77 61 173 61q94 0 138.5 -53t44.5 -125q0 -136 -150 -186v-2q83 -11 133 -60t50 -125q0 -43 -13 -80.5t-39.5 -69.5t-74 -50.5t-109.5 -18.5q-110 0 -184 65l19 28q73 -63 175 -63q54 0 93.5 18.5t59.5 48t29 59t9 59.5q0 88 -66 130t-177 42h-42v30h45
q51 0 97 17.5t78.5 58t32.5 95.5q0 64 -36 108t-113 44q-80 0 -154 -57z" />
    <glyph glyph-name="Japan1.9876" 
d="M637 -13h-35v209h-332v24l340 537h27v-531h93v-30h-93v-209zM316 226h286v356q3 96 4 115h-2l-59 -104l-229 -363v-4z" />
    <glyph glyph-name="Japan1.9877" 
d="M697 744v-30h-273l-39 -258q28 5 70 5q112 0 178 -63.5t66 -163.5q0 -109 -69 -178t-166 -69q-50 0 -94 14.5t-69 34.5l20 27q62 -46 149 -46q83 0 139 59t55 148q-1 94 -54 150.5t-158 56.5q-50 0 -104 -9l47 322h302z" />
    <glyph glyph-name="Japan1.9878" 
d="M648 757l2 -36q-72 0 -132 -31t-98.5 -82.5t-62 -112t-29.5 -124.5h2q28 48 73.5 79.5t104.5 31.5q93 0 147.5 -67t54.5 -171q0 -103 -54.5 -180t-151.5 -77q-90 0 -152 81t-62 228q0 114 33 205.5t86.5 145.5t115 82t123.5 28zM509 17q73 0 119.5 61.5t46.5 162.5
q0 103 -48 157t-125 54q-72 0 -124.5 -57.5t-52.5 -102.5q0 -123 47.5 -199t136.5 -76z" />
    <glyph glyph-name="Japan1.9879" 
d="M294 744h411v-30l-301 -727h-38l302 724v3h-374v30z" />
    <glyph glyph-name="Japan1.9880" 
d="M438 396v4q-65 26 -98.5 71t-33.5 98q0 83 56 135.5t146 52.5q85 0 135.5 -51.5t50.5 -124.5q0 -125 -134 -184v-5q162 -62 162 -196q0 -95 -64 -152t-158 -57q-98 0 -160 54.5t-62 142.5q0 143 160 212zM506 727q-78 0 -122.5 -43.5t-44.5 -104.5q0 -69 43.5 -108
t129.5 -61q148 53 148 171q0 60 -38 103t-116 43zM498 17q84 0 136.5 47.5t52.5 119.5q0 79 -50 124t-149 73q-84 -24 -129.5 -75t-45.5 -116q0 -73 49.5 -123t135.5 -50z" />
    <glyph glyph-name="Japan1.9881" 
d="M352 -13l-2 36q72 0 132 31t98.5 82.5t62 112t29.5 124.5h-2q-28 -48 -73.5 -79t-104.5 -31q-93 0 -147.5 66.5t-54.5 170.5q0 103 54.5 180t151.5 77q90 0 152 -81t62 -228q0 -114 -33 -205.5t-86.5 -145.5t-115 -82t-123.5 -28zM491 727q-73 0 -119.5 -61.5
t-46.5 -162.5q0 -103 48 -157t125 -54q72 0 124.5 57.5t52.5 102.5q0 123 -47.5 199t-136.5 76z" />
    <glyph glyph-name="Japan1.9882" 
d="M678 757l32 -16l-47 -92q47 -99 47 -271q0 -191 -58 -291t-152 -100q-84 0 -138 77l-41 -79l-31 17l50 98q-50 102 -50 268q0 194 64.5 291.5t148.5 97.5q86 0 138 -72zM360 138l263 512q-44 77 -123 77q-72 0 -123.5 -93t-51.5 -269q0 -136 35 -227zM642 609l-263 -511
q45 -81 118 -81q89 0 133.5 99t44.5 253q0 150 -33 240z" />
    <glyph glyph-name="Japan1.9883" 
d="M108 768h35v-780h-35v780zM356 768h35v-780h-35v780zM605 768h35v-780h-35v780zM855 768h35v-780h-35v780z" />
    <glyph glyph-name="Japan1.9884" 
d="M323 44q-142 0 -142 336q0 174 40 254t101 80q133 0 133 -336q0 -334 -132 -334zM321 74q32 0 54 33t31.5 87t12.5 97t3 88q0 133 -24.5 219t-75.5 86q-53 0 -80.5 -88t-27.5 -217q0 -130 27 -217.5t80 -87.5zM687 44q-142 0 -142 336q0 174 40 254t101 80
q133 0 133 -336q0 -334 -132 -334zM685 74q32 0 54 33t31.5 87t12.5 97t3 88q0 133 -24.5 219t-75.5 86q-53 0 -80.5 -88t-27.5 -217q0 -130 27 -217.5t80 -87.5zM170 840v-5q-102 -134 -102 -455q0 -322 102 -455v-5h-28q-102 140 -102 460t102 460h28zM830 -80v5
q102 134 102 455q0 322 -102 455v5h28q102 -140 102 -460t-102 -460h-28z" />
    <glyph glyph-name="Japan1.9885" 
d="M323 44q-142 0 -142 336q0 174 40 254t101 80q133 0 133 -336q0 -334 -132 -334zM321 74q32 0 54 33t31.5 87t12.5 97t3 88q0 133 -24.5 219t-75.5 86q-53 0 -80.5 -88t-27.5 -217q0 -130 27 -217.5t80 -87.5zM170 840v-5q-102 -134 -102 -455q0 -322 102 -455v-5h-28
q-102 140 -102 460t102 460h28zM830 -80v5q102 134 102 455q0 322 -102 455v5h28q102 -140 102 -460t-102 -460h-28zM698 45v632h-2l-85 -53l-9 24l104 67h24v-670h-32z" />
    <glyph glyph-name="Japan1.9886" 
d="M323 44q-142 0 -142 336q0 174 40 254t101 80q133 0 133 -336q0 -334 -132 -334zM321 74q32 0 54 33t31.5 87t12.5 97t3 88q0 133 -24.5 219t-75.5 86q-53 0 -80.5 -88t-27.5 -217q0 -130 27 -217.5t80 -87.5zM170 840v-5q-102 -134 -102 -455q0 -322 102 -455v-5h-28
q-102 140 -102 460t102 460h28zM830 -80v5q102 134 102 455q0 322 -102 455v5h28q102 -140 102 -460t-102 -460h-28zM803 54h-262v16l44 69l27 43q28 44 34.5 56l30 53t32.5 64l23 59.5t19 68.5t5 63q0 67 -24.5 102.5t-69.5 35.5q-22 0 -40 -9.5t-25.5 -18t-18.5 -23.5
l-20 19q39 62 110 62q57 0 89.5 -45t32.5 -125q0 -83 -40 -173.5t-117 -213.5l-45 -72v-2h215v-29z" />
    <glyph glyph-name="Japan1.9887" 
d="M323 44q-142 0 -142 336q0 174 40 254t101 80q133 0 133 -336q0 -334 -132 -334zM321 74q32 0 54 33t31.5 87t12.5 97t3 88q0 133 -24.5 219t-75.5 86q-53 0 -80.5 -88t-27.5 -217q0 -130 27 -217.5t80 -87.5zM170 840v-5q-102 -134 -102 -455q0 -322 102 -455v-5h-28
q-102 140 -102 460t102 460h28zM830 -80v5q102 134 102 455q0 322 -102 455v5h28q102 -140 102 -460t-102 -460h-28zM534 80l17 27q43 -32 95 -32q61 0 91.5 43.5t30.5 115.5q0 75 -38 116.5t-102 41.5h-21v30h22q42 0 81.5 38.5t39.5 103.5q0 58 -23.5 89.5t-68.5 31.5
q-41 0 -83 -38l-18 25q43 43 105 43q57 0 90 -41.5t33 -104.5q0 -52 -24 -94t-75 -63v-2q49 -11 83 -55t34 -120q0 -85 -40.5 -137.5t-121.5 -52.5q-29 0 -59.5 10t-47.5 25z" />
    <glyph glyph-name="Japan1.9888" 
d="M752 45h-35v178h-186v23l180 469h41v-462h62v-30h-62v-178zM570 253h147v268q0 44 4 138h-2l-48 -132l-101 -272v-2zM323 44q-142 0 -142 336q0 174 40 254t101 80q133 0 133 -336q0 -334 -132 -334zM321 74q32 0 54 33t31.5 87t12.5 97t3 88q0 133 -24.5 219t-75.5 86
q-53 0 -80.5 -88t-27.5 -217q0 -130 27 -217.5t80 -87.5zM170 840v-5q-102 -134 -102 -455q0 -322 102 -455v-5h-28q-102 140 -102 460t102 460h28zM830 -80v5q102 134 102 455q0 322 -102 455v5h28q102 -140 102 -460t-102 -460h-28z" />
    <glyph glyph-name="Japan1.9889" 
d="M323 44q-142 0 -142 336q0 174 40 254t101 80q133 0 133 -336q0 -334 -132 -334zM321 74q32 0 54 33t31.5 87t12.5 97t3 88q0 133 -24.5 219t-75.5 86q-53 0 -80.5 -88t-27.5 -217q0 -130 27 -217.5t80 -87.5zM170 840v-5q-102 -134 -102 -455q0 -322 102 -455v-5h-28
q-102 140 -102 460t102 460h28zM830 -80v5q102 134 102 455q0 322 -102 455v5h28q102 -140 102 -460t-102 -460h-28zM568 425l24 280h183v-29h-157l-19 -219q7 2 25 2t35.5 -3.5t40.5 -16.5t39.5 -33t28.5 -57.5t12 -86.5q0 -99 -42.5 -158t-107.5 -59q-57 0 -91 32l16 26
q33 -28 76 -28q46 0 80 48t34 134q0 84 -33.5 128t-92.5 44q-29 0 -51 -4z" />
    <glyph glyph-name="Japan1.9890" 
d="M780 715v-33q-75 0 -133 -75.5t-71 -205.5h2q40 53 103 53q59 0 92.5 -52.5t33.5 -139.5q0 -95 -35.5 -156t-97.5 -61q-66 0 -101 74t-35 185q0 198 73 304.5t169 106.5zM673 75q39 0 69 44.5t30 143.5q0 83 -26.5 122t-70.5 39q-45 0 -73.5 -39.5t-28.5 -59.5
q0 -126 27.5 -188t72.5 -62zM323 44q-142 0 -142 336q0 174 40 254t101 80q133 0 133 -336q0 -334 -132 -334zM321 74q32 0 54 33t31.5 87t12.5 97t3 88q0 133 -24.5 219t-75.5 86q-53 0 -80.5 -88t-27.5 -217q0 -130 27 -217.5t80 -87.5zM170 840v-5q-102 -134 -102 -455
q0 -322 102 -455v-5h-28q-102 140 -102 460t102 460h28zM830 -80v5q102 134 102 455q0 322 -102 455v5h28q102 -140 102 -460t-102 -460h-28z" />
    </font>
</defs>
</svg>
