<svg height="36" viewBox="0 0 36 36" width="36" xmlns="http://www.w3.org/2000/svg" xmlns:xlink="http://www.w3.org/1999/xlink"><mask id="a" fill="#fff"><path d="m0 .000144h35.74944v35.749296h-35.74944z" fill="#fff" fill-rule="evenodd"/></mask><path d="m22.32 18.504144h-2.90808v10.36512h-4.3092v-10.36512h-2.0484v-3.66336h2.0484v-2.36952c0-1.69704.8064-4.3488 4.3488-4.3488l3.1932.01224v3.55608h-2.31768c-.37728 0-.91368.18864-.91368.99792v2.1528h3.2832zm-4.44528-18.504c-9.85608 0-17.87472 8.01864-17.87472 17.87472 0 9.85464 8.01864 17.87472 17.87472 17.87472 9.85536 0 17.87472-8.02008 17.87472-17.87472 0-9.85608-8.01792-17.87472-17.87472-17.87472z" fill="#fff" fill-rule="evenodd" mask="url(#a)"/></svg>