<svg height="36" viewBox="0 0 36 36" width="36" xmlns="http://www.w3.org/2000/svg" xmlns:xlink="http://www.w3.org/1999/xlink"><mask id="a" fill="#fff"><path d="m0 .09098182h35.9079796v35.54538178h-35.9079796z" fill="#fff" fill-rule="evenodd"/></mask><g fill="#fff" fill-rule="evenodd"><path d="m9.2197102 16.3137455c-.35889796-.2785455-.80081632-.4389091-1.26073469-.4389091-1.1277551 0-2.04465306.9090909-2.04465306 2.0261818 0 .6472727.31555102 1.2447273.828 1.62.42538775-1.2050909 1.28828571-2.2996364 2.47738775-3.2072727"/><path d="m26.7237551 11.3153455c.8423265 0 1.5274286-.6789091 1.5274286-1.51345459 0-.83454546-.6851021-1.51272727-1.5274286-1.51272727-.8430612 0-1.5296327.67818181-1.5296327 1.51272727 0 .83454549.6865715 1.51345459 1.5296327 1.51345459"/><path d="m29.2880204 20.1029818c.0484898.28.0793469.5632727.0793469.8523637 0 4.1596363-5.1435918 7.5432727-11.4667346 7.5432727-6.3220409 0-11.46489801-3.3836364-11.46489801-7.5432727 0-.3069091.036-.6072728.09036735-.9043637-.86289796-.5007273-1.40767347-1.4174545-1.40767347-2.4221818 0-1.552 1.27395919-2.8134545 2.84069388-2.8134545.71632653 0 1.39812245.2818181 1.92085714.7592727 2.02261221-1.3054546 4.77514281-2.1192727 7.81310201-2.1556364l1.7684082-5.53781816c.063551-.19745455.2696326-.31309091.4713061-.26509091l4.6304082 1.07890909c.3386939-.856 1.1769796-1.46581818 2.161102-1.46581818 1.2809388 0 2.3238368 1.032 2.3238368 2.30036363s-1.042898 2.30109093-2.3238368 2.30109093c-1.2824081 0-2.3249388-1.0327273-2.3249388-2.30109093 0-.02145454.0055103-.04036363.0062449-.06181818l-4.2950204-1.00145454-1.5873061 4.96654545c2.9049796.1029091 5.5289388.912 7.4666939 2.1818182.5267755-.5036364 1.215551-.7996364 1.9586939-.7996364 1.567102 0 2.8428979 1.2621818 2.8428979 2.8138182-.001102 1.0523636-.5829796 1.9883636-1.503551 2.4741818m-11.3341224-20.01199998c-9.91542861 0-17.95408167 7.95745454-17.95408167 17.77272728 0 9.8152727 8.03865306 17.7727273 17.95408167 17.7727273 9.9157959 0 17.9540816-7.9574546 17.9540816-17.7727273 0-9.81527274-8.0382857-17.77272728-17.9540816-17.77272728" mask="url(#a)" transform="translate(0 .272727)"/><path d="m21.8564082 21.5064c-.9319592 0-1.6912653-.7501818-1.6912653-1.6741818s.7585714-1.6741818 1.6912653-1.6741818c.9326938 0 1.6912653.7509091 1.6912653 1.6741818 0 .9236363-.7585715 1.6741818-1.6912653 1.6741818m.2016734 3.2905455c-.8522449.844-2.1904898 1.2538181-4.0904081 1.2538181-.0044082 0-.008449-.0032727-.0135919-.0032727-.0051428 0-.0091836.0032727-.0143265.0032727-1.8999184 0-3.2377959-.4098181-4.0904082-1.2538181-.1550204-.1538182-.1550204-.4029091 0-.5567273.1557551-.1534546.4073878-.1534546.5631429 0 .6953878.6887273 1.8488571 1.0229091 3.5272653 1.0229091.0051429 0 .0091837.0032727.0143265.0032727.0051429 0 .0091837-.0032727.0135919-.0032727 1.6787755 0 2.8326122-.3345455 3.528-1.0229091.1557551-.1534546.4073877-.1534546.5631428 0 .1550204.1538182.1550204.4032727-.0007347.5567273m-9.6917143-4.9647273c0-.9232727.7589388-1.6741818 1.6916327-1.6741818s1.6912653.7509091 1.6912653 1.6741818c0 .9236363-.7582041 1.6741818-1.6912653 1.6741818s-1.6916327-.7505455-1.6916327-1.6741818"/><path d="m27.9477918 15.8748364c-.4878367 0-.945551.1741818-1.3114285.4774545 1.1813877.9149091 2.0347347 2.0167273 2.4465306 3.2283636.5624081-.3705454.9110204-.9898181.9110204-1.6796363 0-1.1170909-.916898-2.0261818-2.0461225-2.0261818"/></g></svg>