<svg height="36" viewBox="0 0 36 36" width="36" xmlns="http://www.w3.org/2000/svg" xmlns:xlink="http://www.w3.org/1999/xlink"><mask id="a" fill="#fff"><path d="m0 0h36v35.999775h-36z" fill="#fff" fill-rule="evenodd"/></mask><g fill="#fff" fill-rule="evenodd"><path d="m20.8125 13.6126125c-1.9125-.225-3.825.45-5.175 1.6875-1.9125 1.8-2.3625 4.6125-1.2375 6.975.225.3375.225.7875 0 1.125-.225.675-.7875 1.35-1.35 1.9125 1.125.45 2.1375.7875 3.7125 1.0125 1.0125.1125 2.1375.1125 3.15 0 1.4625-.1125 3.2625-.9 4.5-2.025 2.475-2.3625 2.5875-6.4125.1125-8.8875-1.0125-1.0125-2.3625-1.575-3.7125-1.8"/><path d="m25.875 25.649775c-1.575 1.4625-3.6 2.5875-5.625 2.7-1.2375.1125-2.475.1125-3.7125 0-4.275-.5625-7.5375-2.586375-7.5375-2.586375s2.475-.5625 3.2625-2.476125v-.1125c-.5625-.3375-1.125-.675-1.6875-1.125-3.375-2.925-3.825-7.875-.9-11.25 1.35-1.575 3.2625-2.7 5.175-3.0375 5.85-1.125 11.025 1.575 11.025 1.575s-2.25.675-2.925 2.475c1.125.45 2.1375 1.0125 3.0375 1.9125 3.2625 3.375 3.15 8.663625-.1125 11.925m-7.875-25.65c-9.9 0-18 8.1-18 18s8.1 18 18 18 18-8.1 18-18-8.1-18-18-18" mask="url(#a)"/></g></svg>