<svg height="36" viewBox="0 0 36 36" width="36" xmlns="http://www.w3.org/2000/svg" xmlns:xlink="http://www.w3.org/1999/xlink"><mask id="a" fill="#fff"><path d="m.000288 0h35.749152v35.74944h-35.749152z" fill="#fff" fill-rule="evenodd"/></mask><path d="m25.849008 13.78368c.00792.17712.01224.35568.01224.53424 0 5.436-4.13712 11.7036-11.70648 11.7036-2.32344 0-4.48632-.67896-6.30648-1.8468.32184.03816.64872.0576.98136.0576 1.92816 0 3.7008-.65808 5.10912-1.76112-1.8-.03312-3.3192-1.22256-3.84264-2.85768.25056.04752.50904.07416.77328.07416.37512 0 .73944-.04896 1.08432-.144-1.8828-.37656-3.29976-2.03904-3.29976-4.03344 0-.01728 0-.03528.00072-.05184.5544.30744 1.18872.4932 1.86264.51408-1.10304-.73656-1.82952-1.99656-1.82952-3.4236 0-.75456.20232-1.4616.55656-2.06928 2.02752 2.48976 5.06088 4.12704 8.47944 4.29984-.07056-.30168-.10584-.61488-.10584-.93816 0-2.2716 1.84176-4.11408 4.11264-4.11408 1.1844 0 2.25144.49968 3.00312 1.29888.93888-.18432 1.81728-.5256 2.61432-.99864-.31032.9612-.95976 1.76688-1.81224 2.27664.83376-.09936 1.62792-.31968 2.36376-.64728-.54864.82368-1.24704 1.54872-2.05056 2.12688m-7.974-13.78368c-9.85608 0-17.87472 8.01864-17.87472 17.87472 0 9.85536 8.01864 17.87472 17.87472 17.87472 9.85464 0 17.87472-8.01936 17.87472-17.87472 0-9.85608-8.01864-17.87472-17.87472-17.87472" fill="#fff" fill-rule="evenodd" mask="url(#a)"/></svg>